<svg width="16" height="14" viewBox="0 0 16 14" fill="none" xmlns="http://www.w3.org/2000/svg">
<path d="M6.10526 9.50229L11.4008 6.17647L6.10526 2.85065V9.50229ZM5.05263 14V12.3529H1.52232C1.09691 12.3529 0.736842 12.2088 0.442105 11.9206C0.147368 11.6324 0 11.2802 0 10.8642V1.48874C0 1.07272 0.147368 0.720588 0.442105 0.432353C0.736842 0.144118 1.09691 0 1.52232 0H14.4777C14.9031 0 15.2632 0.144118 15.5579 0.432353C15.8526 0.720588 16 1.07272 16 1.48874V10.8642C16 11.2802 15.8526 11.6324 15.5579 11.9206C15.2632 12.2088 14.9031 12.3529 14.4777 12.3529H10.9474V14H5.05263ZM1.52232 11.1176H14.4777C14.5425 11.1176 14.6019 11.0912 14.6558 11.0384C14.7098 10.9857 14.7368 10.9276 14.7368 10.8642V1.48874C14.7368 1.42532 14.7098 1.36726 14.6558 1.31456C14.6019 1.26172 14.5425 1.23529 14.4777 1.23529H1.52232C1.45747 1.23529 1.39811 1.26172 1.34421 1.31456C1.29018 1.36726 1.26316 1.42532 1.26316 1.48874V10.8642C1.26316 10.9276 1.29018 10.9857 1.34421 11.0384C1.39811 11.0912 1.45747 11.1176 1.52232 11.1176Z" fill="#001625"/>
</svg>
