<svg width="16" height="14" viewBox="0 0 16 14" fill="none" xmlns="http://www.w3.org/2000/svg">
<path d="M1.58546 14V3.96144L0 0.538413L1.16103 0L2.99003 3.91926H13.01L14.839 0L16 0.538413L14.4145 3.96144V14H1.58546ZM6.28946 8.30586H9.71054C9.89229 8.30586 10.0446 8.24519 10.1675 8.12386C10.2905 8.00252 10.352 7.85222 10.352 7.67296C10.352 7.49356 10.2905 7.34334 10.1675 7.22228C10.0446 7.10109 9.89229 7.04049 9.71054 7.04049H6.28946C6.10771 7.04049 5.9554 7.10116 5.83253 7.22249C5.70951 7.34383 5.648 7.49413 5.648 7.67339C5.648 7.85279 5.70951 8.00301 5.83253 8.12407C5.9554 8.24526 6.10771 8.30586 6.28946 8.30586ZM2.86837 12.7346H13.1316V5.18462H2.86837V12.7346Z" fill="#001625"/>
</svg>
