<svg width="16" height="17" viewBox="0 0 16 17" fill="none" xmlns="http://www.w3.org/2000/svg">
<path d="M1.70141 16.5C1.22596 16.5 0.823529 16.3353 0.494118 16.0059C0.164706 15.6765 0 15.274 0 14.7986V2.20141C0 1.72596 0.164706 1.32353 0.494118 0.994118C0.823529 0.664706 1.22596 0.5 1.70141 0.5H14.2986C14.774 0.5 15.1765 0.664706 15.5059 0.994118C15.8353 1.32353 16 1.72596 16 2.20141V14.7986C16 15.274 15.8353 15.6765 15.5059 16.0059C15.1765 16.3353 14.774 16.5 14.2986 16.5H1.70141ZM1.70141 15.0882H7.29412V1.91176H1.70141C1.62894 1.91176 1.56259 1.94196 1.50235 2.00235C1.44196 2.06259 1.41176 2.12894 1.41176 2.20141V14.7986C1.41176 14.8711 1.44196 14.9374 1.50235 14.9976C1.56259 15.058 1.62894 15.0882 1.70141 15.0882ZM8.70588 15.0882H14.2986C14.3711 15.0882 14.4374 15.058 14.4976 14.9976C14.558 14.9374 14.5882 14.8711 14.5882 14.7986V8.5H8.70588V15.0882ZM8.70588 7.08824H14.5882V2.20141C14.5882 2.12894 14.558 2.06259 14.4976 2.00235C14.4374 1.94196 14.3711 1.91176 14.2986 1.91176H8.70588V7.08824Z" fill="#001625"/>
</svg>
