<svg width="23" height="24" viewBox="0 0 23 24" fill="none" xmlns="http://www.w3.org/2000/svg">
<g filter="url(#filter0_d_247_12583)">
<path d="M7.1328 6.68019L11.0886 0L15.0444 6.68019H7.1328ZM15.614 16C14.6698 16 13.8694 15.6619 13.2129 14.9858C12.5563 14.3097 12.228 13.4856 12.228 12.5133C12.228 11.5411 12.5563 10.7169 13.2129 10.0408C13.8694 9.36472 14.6698 9.02666 15.614 9.02666C16.5581 9.02666 17.3585 9.36472 18.0151 10.0408C18.6717 10.7169 19 11.5411 19 12.5133C19 13.4856 18.6717 14.3097 18.0151 14.9858C17.3585 15.6619 16.5581 16 15.614 16ZM4 15.5764V9.45029H9.94923V15.5764H4ZM15.6138 14.7293C16.2162 14.7293 16.7255 14.5151 17.1417 14.0867C17.5579 13.6583 17.766 13.1339 17.766 12.5135C17.766 11.8932 17.558 11.3688 17.1419 10.9402C16.7259 10.5116 16.2166 10.2973 15.6142 10.2973C15.0118 10.2973 14.5025 10.5115 14.0863 10.94C13.6701 11.3684 13.462 11.8928 13.462 12.5131C13.462 13.1335 13.67 13.6579 14.0861 14.0865C14.5021 14.515 15.0114 14.7293 15.6138 14.7293ZM5.23399 14.3057H8.71524V10.721H5.23399V14.3057ZM9.31013 5.40952H12.8671L11.0886 2.46361L9.31013 5.40952Z" fill="#001625"/>
</g>
<defs>
<filter id="filter0_d_247_12583" x="0" y="0" width="23" height="24" filterUnits="userSpaceOnUse" color-interpolation-filters="sRGB">
<feFlood flood-opacity="0" result="BackgroundImageFix"/>
<feColorMatrix in="SourceAlpha" type="matrix" values="0 0 0 0 0 0 0 0 0 0 0 0 0 0 0 0 0 0 127 0" result="hardAlpha"/>
<feOffset dy="4"/>
<feGaussianBlur stdDeviation="2"/>
<feComposite in2="hardAlpha" operator="out"/>
<feColorMatrix type="matrix" values="0 0 0 0 0 0 0 0 0 0 0 0 0 0 0 0 0 0 0.25 0"/>
<feBlend mode="normal" in2="BackgroundImageFix" result="effect1_dropShadow_247_12583"/>
<feBlend mode="normal" in="SourceGraphic" in2="effect1_dropShadow_247_12583" result="shape"/>
</filter>
</defs>
</svg>
