<svg width="16" height="13" viewBox="0 0 16 13" fill="none" xmlns="http://www.w3.org/2000/svg">
<path d="M9.3788 7.11247C8.82833 7.11247 8.36243 6.91481 7.98109 6.5195C7.59975 6.12419 7.40909 5.64121 7.40909 5.07057C7.40909 4.49993 7.59975 4.01696 7.98109 3.62165C8.36243 3.22634 8.82833 3.02868 9.3788 3.02868C9.92927 3.02868 10.3952 3.22634 10.7765 3.62165C11.1578 4.01696 11.3485 4.49993 11.3485 5.07057C11.3485 5.64121 11.1578 6.12419 10.7765 6.5195C10.3952 6.91481 9.92927 7.11247 9.3788 7.11247ZM4.18171 9.64135C3.79013 9.64135 3.45488 9.49678 3.17597 9.20765C2.89706 8.91852 2.7576 8.57092 2.7576 8.16486V1.97629C2.7576 1.57036 2.89706 1.22283 3.17597 0.933698C3.45488 0.644566 3.79013 0.5 4.18171 0.5H14.5757C14.9674 0.5 15.3027 0.644566 15.5816 0.933698C15.8605 1.22283 16 1.57036 16 1.97629V8.16486C16 8.57092 15.8605 8.91852 15.5816 9.20765C15.3027 9.49678 14.9674 9.64135 14.5757 9.64135H4.18171ZM5.36354 8.41621H13.3941C13.3941 8.00893 13.5335 7.66099 13.8124 7.3724C14.0913 7.08395 14.4266 6.93972 14.8182 6.93972V3.20142C14.4253 3.20142 14.0897 3.05686 13.8114 2.76773C13.5332 2.47859 13.3941 2.13106 13.3941 1.72514H5.36354C5.36354 2.13243 5.22408 2.4803 4.94517 2.76875C4.66626 3.0572 4.33101 3.20142 3.93943 3.20142V6.93972C4.33232 6.93972 4.6679 7.08429 4.94615 7.37342C5.22441 7.66255 5.36354 8.01015 5.36354 8.41621ZM13.6515 12.5H1.4243C1.03259 12.5 0.697279 12.3554 0.418368 12.0663C0.139456 11.7772 0 11.4296 0 11.0235V2.93455H1.18183V11.0235C1.18183 11.0863 1.20704 11.1438 1.25747 11.1963C1.30802 11.2487 1.36363 11.2749 1.4243 11.2749H13.6515V12.5ZM4.18171 8.41621H3.93943V1.72514H4.18171C4.11605 1.72514 4.05926 1.74998 4.01133 1.79967C3.9634 1.84935 3.93943 1.90823 3.93943 1.97629V8.16486C3.93943 8.23292 3.9634 8.2918 4.01133 8.34148C4.05926 8.3913 4.11605 8.41621 4.18171 8.41621Z" fill="#001625"/>
</svg>
