<svg width="16" height="15" viewBox="0 0 16 15" fill="none" xmlns="http://www.w3.org/2000/svg">
<path d="M8.30859 2.83333V12.1667M5.97526 9.97489L6.65893 10.4874C7.5697 11.1711 9.04671 11.1711 9.95826 10.4874C10.8698 9.80378 10.8698 8.69622 9.95826 8.01256C9.50326 7.67033 8.90593 7.5 8.30859 7.5C7.7447 7.5 7.18082 7.32889 6.7507 6.98744C5.89048 6.30378 5.89048 5.19622 6.7507 4.51256C7.61093 3.82889 9.00626 3.82889 9.86648 4.51256L10.1893 4.76922M15.3086 7.5C15.3086 8.41925 15.1275 9.32951 14.7758 10.1788C14.424 11.0281 13.9084 11.7997 13.2583 12.4497C12.6083 13.0998 11.8367 13.6154 10.9874 13.9672C10.1381 14.3189 9.22785 14.5 8.30859 14.5C7.38934 14.5 6.47909 14.3189 5.62981 13.9672C4.78053 13.6154 4.00886 13.0998 3.35885 12.4497C2.70884 11.7997 2.19322 11.0281 1.84144 10.1788C1.48965 9.32951 1.30859 8.41925 1.30859 7.5C1.30859 5.64348 2.04609 3.86301 3.35885 2.55025C4.6716 1.2375 6.45208 0.5 8.30859 0.5C10.1651 0.5 11.9456 1.2375 13.2583 2.55025C14.5711 3.86301 15.3086 5.64348 15.3086 7.5Z" stroke="#001625" stroke-linecap="round" stroke-linejoin="round"/>
</svg>
