<svg width="80" height="80" viewBox="0 0 80 80" fill="none" xmlns="http://www.w3.org/2000/svg">
<g filter="url(#filter0_d_88_1346)">
<g filter="url(#filter1_d_88_1346)">
<circle cx="40" cy="28" r="16" fill="url(#paint0_linear_88_1346)"/>
</g>
<path fill-rule="evenodd" clip-rule="evenodd" d="M42.8168 21.0256H37.1788C34.8875 21.0256 33.0234 22.8897 33.0234 25.181V30.819C33.0234 33.1103 34.8875 34.9744 37.1788 34.9744H42.8168C45.1081 34.9744 46.9722 33.1103 46.9722 30.819V25.181C46.9721 22.8897 45.108 21.0256 42.8168 21.0256ZM45.57 30.819C45.57 32.3389 44.3378 33.5711 42.8178 33.5711H37.1799C35.6599 33.5711 34.4277 32.3389 34.4277 30.819V25.181C34.4277 23.661 35.6599 22.4289 37.1799 22.4289H42.8178C44.3378 22.4289 45.57 23.661 45.57 25.181V30.819ZM36.3906 28C36.3906 26.0107 38.009 24.3924 39.9983 24.3924C41.9875 24.3924 43.6059 26.0107 43.6059 28C43.6059 29.9892 41.9875 31.6076 39.9983 31.6076C38.009 31.6076 36.3906 29.9892 36.3906 28ZM39.9974 30.2044C38.7799 30.2044 37.793 29.2175 37.793 28C37.793 26.7825 38.7799 25.7956 39.9974 25.7956C41.2148 25.7956 42.2018 26.7825 42.2018 28C42.2018 29.2174 41.2148 30.2044 39.9974 30.2044ZM43.6125 25.2839C44.0899 25.2839 44.477 24.8969 44.477 24.4194C44.477 23.942 44.0899 23.555 43.6125 23.555C43.1351 23.555 42.748 23.942 42.748 24.4194C42.748 24.8969 43.1351 25.2839 43.6125 25.2839Z" fill="white"/>
</g>
<defs>
<filter id="filter0_d_88_1346" x="0" y="0" width="80" height="80" filterUnits="userSpaceOnUse" color-interpolation-filters="sRGB">
<feFlood flood-opacity="0" result="BackgroundImageFix"/>
<feColorMatrix in="SourceAlpha" type="matrix" values="0 0 0 0 0 0 0 0 0 0 0 0 0 0 0 0 0 0 127 0" result="hardAlpha"/>
<feOffset dy="12"/>
<feGaussianBlur stdDeviation="12"/>
<feColorMatrix type="matrix" values="0 0 0 0 0 0 0 0 0 0 0 0 0 0 0 0 0 0 0.1 0"/>
<feBlend mode="normal" in2="BackgroundImageFix" result="effect1_dropShadow_88_1346"/>
<feBlend mode="normal" in="SourceGraphic" in2="effect1_dropShadow_88_1346" result="shape"/>
</filter>
<filter id="filter1_d_88_1346" x="16" y="8" width="48" height="48" filterUnits="userSpaceOnUse" color-interpolation-filters="sRGB">
<feFlood flood-opacity="0" result="BackgroundImageFix"/>
<feColorMatrix in="SourceAlpha" type="matrix" values="0 0 0 0 0 0 0 0 0 0 0 0 0 0 0 0 0 0 127 0" result="hardAlpha"/>
<feOffset dy="4"/>
<feGaussianBlur stdDeviation="4"/>
<feColorMatrix type="matrix" values="0 0 0 0 0 0 0 0 0 0 0 0 0 0 0 0 0 0 0.1 0"/>
<feBlend mode="normal" in2="BackgroundImageFix" result="effect1_dropShadow_88_1346"/>
<feBlend mode="normal" in="SourceGraphic" in2="effect1_dropShadow_88_1346" result="shape"/>
</filter>
<linearGradient id="paint0_linear_88_1346" x1="24.1069" y1="11.9465" x2="24" y2="43.9465" gradientUnits="userSpaceOnUse">
<stop stop-color="#7024C4"/>
<stop offset="0.415461" stop-color="#C21975"/>
<stop offset="0.702206" stop-color="#C74C4D"/>
<stop offset="1" stop-color="#E09B3D"/>
</linearGradient>
</defs>
</svg>
