<svg width="16" height="15" viewBox="0 0 16 15" fill="none" xmlns="http://www.w3.org/2000/svg">
<path d="M8.85436 5.12216C9.3209 5.34491 9.72717 5.67637 10.039 6.08869C10.3509 6.50101 10.5593 6.98216 10.6467 7.49171C10.734 8.00126 10.6978 8.52434 10.5411 9.01701C10.3844 9.50967 10.1117 9.95753 9.74605 10.323L6.51529 13.5537C5.9094 14.1596 5.08764 14.5 4.23078 14.5C3.37392 14.5 2.55216 14.1596 1.94627 13.5537C1.34038 12.9478 1 12.1261 1 11.2692C1 10.4124 1.34038 9.5906 1.94627 8.98471L3.20771 7.72328M12.7923 7.27672L14.0537 6.01529C14.6596 5.4094 15 4.58764 15 3.73078C15 2.87392 14.6596 2.05216 14.0537 1.44627C13.4478 0.840385 12.6261 0.5 11.7692 0.5C10.9124 0.5 10.0906 0.840385 9.48471 1.44627L6.25395 4.67703C5.88826 5.04247 5.6156 5.49033 5.45889 5.983C5.30217 6.47566 5.26598 6.99874 5.35334 7.50829C5.44071 8.01784 5.64908 8.49899 5.96095 8.91131C6.27283 9.32364 6.6791 9.65509 7.14564 9.87784" stroke="#001625" stroke-linecap="round" stroke-linejoin="round"/>
</svg>
