<svg width="48" height="48" viewBox="0 0 48 48" fill="none" xmlns="http://www.w3.org/2000/svg">
<path d="M40.8937 27.6037C38.3342 24.1939 34.1462 21.6858 29.7244 20.7801C32.3901 18.6383 34.0997 15.353 34.0997 11.6754C34.0997 5.23763 28.8621 0 22.4241 0C15.9861 0 10.7486 5.23763 10.7486 11.6756C10.7486 15.3421 12.4479 18.6188 15.0999 20.7608C6.50466 22.4495 0 30.0404 0 39.1232V40.5941H26.8147C28.1684 44.8822 32.1833 48 36.9129 48C42.7506 48 47.4999 43.2506 47.4999 37.4131C47.4998 32.9829 44.7641 29.1802 40.8937 27.6037ZM13.6905 11.6756C13.6905 6.85978 17.6083 2.94197 22.4241 2.94197C27.2398 2.94197 31.1577 6.85978 31.1577 11.6756C31.1577 16.4915 27.2399 20.4094 22.4241 20.4094C17.6082 20.4094 13.6905 16.4913 13.6905 11.6756ZM19.9286 37.6522H3.01003C3.75403 29.6422 10.5131 23.3512 18.7141 23.3512H18.9933L20.6675 26.2466L18.2698 29.4623L19.9286 37.6522ZM22.4241 35.1541L21.4138 30.1668L22.4241 28.8119L23.4343 30.1668L22.4241 35.1541ZM26.3291 37.6522H24.9199L26.5788 29.4623L24.1919 26.2611L25.8591 23.3513H26.1634C29.6331 23.3513 33.2987 24.7071 36.0515 26.8615C30.6153 27.3014 26.3261 31.8656 26.3261 37.4132C26.326 37.4931 26.3273 37.5727 26.3291 37.6522ZM36.9128 45.0581C32.6975 45.0581 29.2679 41.6286 29.2679 37.4132C29.2679 33.1978 32.6975 29.7683 36.9128 29.7683C41.1283 29.7683 44.5579 33.1978 44.5579 37.4132C44.5579 41.6285 41.1284 45.0581 36.9128 45.0581Z" fill="#D3DFE6"/>
<path d="M38.4294 33.1123L36.3068 37.0742L34.8537 35.6211L32.7734 37.7014L37.0286 41.9565L41.0224 34.5017L38.4294 33.1123Z" fill="#D3DFE6"/>
</svg>
