<svg width="51" height="50" viewBox="0 0 51 50" fill="none" xmlns="http://www.w3.org/2000/svg">
<path d="M29.5728 46.8689L29.5722 46.869C24.6443 47.1032 3.91392 47.0521 1.84263 47.047C1.74444 47.0468 1.68818 47.0466 1.67753 47.0466C1.07336 47.0466 0.580078 47.5399 0.580078 48.1441C0.580078 48.7483 1.07336 49.2416 1.67753 49.2416C1.74992 49.2416 1.95021 49.242 2.26069 49.2426C2.63973 49.2435 3.18299 49.2446 3.85822 49.2458C5.08607 49.2479 6.74934 49.25 8.65205 49.25C15.7759 49.25 26.2662 49.2162 29.6716 49.0633L29.6719 49.0633C35.2648 48.8056 39.3208 44.828 39.5127 44.6367L49.7393 34.91L49.7451 34.9044L49.7506 34.8985C50.3291 34.2726 50.5624 33.3022 50.5126 32.3587C50.4627 31.4123 50.1255 30.4355 49.492 29.7834L49.4914 29.7828C49.2829 29.5697 48.7908 29.1456 48.0619 29.0196C47.3208 28.8915 46.3853 29.0799 45.317 30.0001L38.7815 34.9017C36.7569 36.4201 34.2418 37.2585 31.7112 37.2585H24.0417C23.4376 37.2585 22.9443 37.7518 22.9443 38.356C22.9443 38.9601 23.4376 39.4534 24.0417 39.4534H31.7112C34.7145 39.4534 37.6907 38.4613 40.0983 36.6577L40.0984 36.6576L46.6831 31.7169L46.69 31.7118L46.6964 31.7063C47.2037 31.2685 47.5038 31.1872 47.657 31.1886C47.7928 31.1898 47.858 31.2548 47.9142 31.311C48.1443 31.5488 48.2927 31.9812 48.3317 32.4295C48.3507 32.6488 48.3421 32.8575 48.3102 33.0289C48.2782 33.2011 48.2278 33.3085 48.1837 33.36L37.9879 43.0647L37.9882 43.065C37.9844 43.0686 37.9799 43.0728 37.9748 43.0776C37.6172 43.4114 34.1354 46.6626 29.5728 46.8689Z" fill="#D3DFE5" stroke="#D3DFE5" stroke-width="0.5"/>
<path d="M22.3408 34.7496L22.3407 34.75H22.3546H27.8793C29.3376 34.758 30.0145 35.6379 30.2953 36.1607L30.2955 36.1608C30.5586 36.6495 30.6027 37.0781 30.5895 37.308C30.1576 37.4578 29.8503 37.8643 29.8503 38.3474C29.8503 38.9516 30.3436 39.4449 30.9478 39.4449C31.4069 39.4449 31.8707 39.2666 32.2195 38.893C32.569 38.5187 32.7864 37.9669 32.791 37.2473V37.2457C32.791 35.3696 31.2358 32.5898 27.8813 32.572H27.88H22.404C20.8624 32.4863 19.6867 32.7358 18.7187 33.1423C17.7537 33.5476 17.0046 34.1058 16.3239 34.6131L16.3177 34.6177C15.6861 35.0839 15.0943 35.5208 14.3661 35.8458C13.6404 36.1697 12.7706 36.3855 11.592 36.3855H11.4875L1.72536 35.9453C1.11911 35.9026 0.612129 36.3927 0.57975 36.9863C0.546717 37.5919 1.0192 38.1085 1.62433 38.1311C1.62467 38.1311 1.62502 38.1311 1.62537 38.1311L11.4285 38.5633L11.4284 38.5635H11.4395H11.4397H11.44H11.4402H11.4405H11.4407H11.4409H11.4412H11.4414H11.4417H11.4419H11.4422H11.4424H11.4427H11.4429H11.4432H11.4434H11.4437H11.4439H11.4442H11.4444H11.4447H11.4449H11.4452H11.4454H11.4457H11.4459H11.4462H11.4464H11.4467H11.4469H11.4472H11.4474H11.4477H11.4479H11.4481H11.4484H11.4486H11.4489H11.4491H11.4494H11.4496H11.4499H11.4501H11.4504H11.4506H11.4509H11.4511H11.4514H11.4516H11.4519H11.4521H11.4524H11.4526H11.4529H11.4531H11.4534H11.4536H11.4539H11.4541H11.4544H11.4546H11.4549H11.4551H11.4553H11.4556H11.4558H11.4561H11.4563H11.4566H11.4568H11.4571H11.4573H11.4576H11.4578H11.4581H11.4583H11.4586H11.4588H11.4591H11.4593H11.4596H11.4598H11.4601H11.4603H11.4606H11.4608H11.4611H11.4613H11.4616H11.4618H11.4621H11.4623H11.4625H11.4628H11.463H11.4633H11.4635H11.4638H11.464H11.4643H11.4645H11.4648H11.465H11.4653H11.4655H11.4658H11.466H11.4663H11.4665H11.4668H11.467H11.4673H11.4675H11.4678H11.468H11.4683H11.4685H11.4688H11.469H11.4693H11.4695H11.4697H11.47H11.4702H11.4705H11.4707H11.471H11.4712H11.4715H11.4717H11.472H11.4722H11.4725H11.4727H11.473H11.4732H11.4735H11.4737H11.474H11.4742H11.4745H11.4747H11.475H11.4752H11.4755H11.4757H11.476H11.4762H11.4765H11.4767H11.4769H11.4772H11.4774H11.4777H11.4779H11.4782H11.4784H11.4787H11.4789H11.4792H11.4794H11.4797H11.4799H11.4802H11.4804H11.4807H11.4809H11.4812H11.4814H11.4817H11.4819H11.4822H11.4824H11.4827H11.4829H11.4832H11.4834H11.4837H11.4839H11.4841H11.4844H11.4846H11.4849H11.4851H11.4854H11.4856H11.4859H11.4861H11.4864H11.4866H11.4869H11.4871H11.4874H11.4876H11.4879H11.4881H11.4884H11.4886H11.4889H11.4891H11.4894H11.4896H11.4899H11.4901H11.4904H11.4906H11.4909H11.4911H11.4913H11.4916H11.4918H11.4921H11.4923H11.4926H11.4928H11.4931H11.4933H11.4936H11.4938H11.4941H11.4943H11.4946H11.4948H11.4951H11.4953H11.4956H11.4958H11.4961H11.4963H11.4966H11.4968H11.4971H11.4973H11.4976H11.4978H11.4981H11.4983H11.4985H11.4988H11.499H11.4993H11.4995H11.4998H11.5H11.5003H11.5005H11.5008H11.501H11.5013H11.5015H11.5018H11.502H11.5023H11.5025H11.5028H11.503H11.5033H11.5035H11.5038H11.504H11.5043H11.5045H11.5048H11.505H11.5053H11.5055H11.5057H11.506H11.5062H11.5065H11.5067H11.507H11.5072H11.5075H11.5077H11.508H11.5082H11.5085H11.5087H11.509H11.5092H11.5095H11.5097H11.51H11.5102H11.5105H11.5107H11.511H11.5112H11.5115H11.5117H11.512H11.5122H11.5125H11.5127H11.5129H11.5132H11.5134H11.5137H11.5139H11.5142H11.5144H11.5147H11.5149H11.5152H11.5154H11.5157H11.5159H11.5162H11.5164H11.5167H11.5169H11.5172H11.5174H11.5177H11.5179H11.5182H11.5184H11.5187H11.5189H11.5192H11.5194H11.5197H11.5199H11.5201H11.5204H11.5206H11.5209H11.5211H11.5214H11.5216H11.5219H11.5221H11.5224H11.5226H11.5229H11.5231H11.5234H11.5236H11.5239H11.5241H11.5244H11.5246H11.5249H11.5251H11.5254H11.5256H11.5259H11.5261H11.5264H11.5266H11.5269H11.5271H11.5273H11.5276H11.5278H11.5281H11.5283H11.5286H11.5288H11.5291H11.5293H11.5296H11.5298H11.5301H11.5303H11.5306H11.5308H11.5311H11.5313H11.5316H11.5318H11.5321H11.5323H11.5326H11.5328H11.5331H11.5333H11.5336H11.5338H11.5341H11.5343H11.5345H11.5348H11.535H11.5353H11.5355H11.5358H11.536H11.5363H11.5365H11.5368H11.537H11.5373H11.5375H11.5378H11.538H11.5383H11.5385H11.5388H11.539H11.5393H11.5395H11.5398H11.54H11.5403H11.5405H11.5408H11.541H11.5413H11.5415H11.5417H11.542H11.5422H11.5425H11.5427H11.543H11.5432H11.5435H11.5437H11.544H11.5442H11.5445H11.5447H11.545H11.5452H11.5455H11.5457H11.546H11.5462H11.5465H11.5467H11.547H11.5472H11.5475H11.5477H11.548H11.5482H11.5485H11.5487H11.5489H11.5492H11.5494H11.5497H11.5499H11.5502H11.5504H11.5507H11.5509H11.5512H11.5514H11.5517H11.5519H11.5522H11.5524H11.5527H11.5529H11.5532H11.5534H11.5537H11.5539H11.5542H11.5544H11.5547H11.5549H11.5552H11.5554H11.5557H11.5559H11.5561H11.5564H11.5566H11.5569H11.5571H11.5574H11.5576H11.5579H11.5581H11.5584H11.5586H11.5589H11.5591H11.5594H11.5596H11.5599H11.5601H11.5604H11.5606H11.5609H11.5611H11.5614H11.5616H11.5619H11.5621H11.5624H11.5626H11.5629H11.5631H11.5633H11.5636H11.5638H11.5641H11.5643H11.5646H11.5648H11.5651H11.5653H11.5656H11.5658H11.5661H11.5663H11.5666C14.6519 38.5635 16.2487 37.3833 17.6226 36.3677L17.6304 36.362L17.6305 36.3619C18.2863 35.8765 18.8708 35.4461 19.5882 35.1482C20.2996 34.8528 21.1534 34.6836 22.3408 34.7496Z" fill="#D3DFE5" stroke="#D3DFE5" stroke-width="0.5"/>
<path d="M18.3345 28.4615L18.3345 28.4615L18.3384 28.464C18.521 28.5822 18.7373 28.6482 18.9488 28.6482C19.3042 28.6482 19.6413 28.4708 19.8557 28.1707L19.8557 28.1707L19.8593 28.1654L31.1304 11.5044L31.1306 11.504C31.4703 11 31.3388 10.3191 30.8342 9.97905C30.3302 9.63939 29.6494 9.77083 29.3093 10.2754C29.3093 10.2754 29.3092 10.2754 29.3092 10.2755L18.0384 26.9361L18.0381 26.9365C17.6985 27.4405 17.8299 28.1214 18.3345 28.4615Z" fill="#D3DFE5" stroke="#D3DFE5" stroke-width="0.5"/>
<path d="M17.8516 12.4745C17.8516 14.4346 19.4465 16.0296 21.4066 16.0296C23.3578 16.0296 24.9617 14.435 24.9617 12.4745C24.9617 10.5144 23.3667 8.91943 21.4066 8.91943C19.4465 8.91943 17.8516 10.5144 17.8516 12.4745ZM20.0465 12.4745C20.0465 11.7228 20.6549 11.1143 21.4066 11.1143C22.1473 11.1143 22.759 11.7289 22.7668 12.4757C22.7661 13.2269 22.158 13.8347 21.4066 13.8347C20.6549 13.8347 20.0465 13.2263 20.0465 12.4745Z" fill="#D3DFE5" stroke="#D3DFE5" stroke-width="0.5"/>
<path d="M24.207 26.6356C24.207 28.5958 25.802 30.1907 27.7621 30.1907C29.7133 30.1907 31.3171 28.5962 31.3171 26.6356C31.3171 24.6755 29.7222 23.0806 27.7621 23.0806C25.802 23.0806 24.207 24.6755 24.207 26.6356ZM26.4019 26.6356C26.4019 25.8839 27.0103 25.2755 27.7621 25.2755C28.5037 25.2755 29.1144 25.8824 29.1222 26.6368C29.1216 27.388 28.5134 27.9958 27.7621 27.9958C27.0103 27.9958 26.4019 27.3874 26.4019 26.6356Z" fill="#D3DFE5" stroke="#D3DFE5" stroke-width="0.5"/>
<path d="M43.3039 26.4412C43.9306 24.5009 44.2482 22.475 44.2482 20.4152C44.2482 9.57379 35.4244 0.75 24.5831 0.75C13.7417 0.75 4.91797 9.57379 4.91797 20.4152C4.91797 24.432 6.12823 28.2947 8.4023 31.5903C8.61263 31.8997 8.95478 32.0636 9.30353 32.0636C9.5167 32.0636 9.73403 31.9965 9.92525 31.869L9.92527 31.869L9.9284 31.8669C10.4265 31.5237 10.5424 30.8429 10.2058 30.3433L10.2058 30.3433L10.2041 30.3409C8.18224 27.4167 7.11287 23.9833 7.11287 20.4152C7.11287 10.782 14.9417 2.94491 24.5746 2.94491C34.2076 2.94491 42.0448 10.7821 42.0448 20.4152C42.0448 22.2453 41.7607 24.05 41.2092 25.7712L41.2092 25.7712L41.208 25.7752C41.0345 26.3499 41.3378 26.966 41.9218 27.1533L41.9218 27.1533L41.9259 27.1546C42.5004 27.328 43.1163 27.0249 43.3039 26.4412ZM43.3039 26.4412L43.0664 26.3645L43.304 26.4408C43.304 26.4409 43.3039 26.4411 43.3039 26.4412Z" fill="#D3DFE5" stroke="#D3DFE5" stroke-width="0.5"/>
</svg>
