<svg width="80" height="80" viewBox="0 0 80 80" fill="none" xmlns="http://www.w3.org/2000/svg">
<g filter="url(#filter0_d_88_1334)">
<circle cx="40" cy="28" r="16" fill="#FFFC00"/>
<path d="M46.8226 31.6001C44.9829 31.2741 44.1598 29.3677 44.063 29.1419V29.1169C43.9662 28.9162 43.942 28.7657 43.9904 28.6403C44.0872 28.4145 44.4987 28.264 44.765 28.1888C44.8376 28.1637 44.9102 28.1386 44.9587 28.1135C45.467 27.8878 45.7333 27.6119 45.7333 27.2858C45.7333 27.035 45.5396 26.7841 45.2491 26.6838C45.1523 26.6336 45.0313 26.6085 44.9102 26.6085C44.8376 26.6085 44.7166 26.6336 44.5956 26.6838C44.3535 26.7841 44.1599 26.8594 44.0146 26.8594C43.9662 26.8594 43.9178 26.8594 43.8694 26.8343C43.8936 26.759 43.8936 26.6838 43.8936 26.5835V26.5333C43.942 25.5049 44.0388 24.2256 43.6999 23.4731C42.7074 21.2156 40.6499 21.04 40.0447 21.04H39.7542C39.1491 21.04 37.0915 21.2156 36.1233 23.4731C35.7844 24.2256 35.857 25.5049 35.9296 26.5333C35.9538 26.6336 35.9538 26.734 35.9538 26.8343C35.9054 26.8343 35.8327 26.8594 35.7601 26.8594C35.5665 26.8594 35.3728 26.8092 35.1307 26.6838C34.7918 26.5333 34.1383 26.759 34.0656 27.2105C34.0172 27.4614 34.1141 27.8125 34.8403 28.1135C34.8887 28.1386 34.9613 28.1637 35.0581 28.1888C35.3002 28.264 35.7117 28.4145 35.8085 28.6403C35.8569 28.7406 35.8327 28.9162 35.7359 29.1169C35.6875 29.1921 34.8403 31.2239 32.9279 31.55C32.7343 31.6001 32.6133 31.7757 32.6133 31.9764C32.6133 32.0516 32.6375 32.1018 32.6617 32.152C32.8069 32.5533 33.4363 32.8041 34.574 33.0048C34.5982 33.08 34.6224 33.2305 34.6466 33.3058C34.6708 33.4061 34.6951 33.5315 34.7193 33.657C34.7435 33.7824 34.8645 33.983 35.155 33.983C35.2518 33.983 35.3728 33.958 35.4939 33.9329C35.6875 33.8827 35.9296 33.8325 36.2443 33.8325C36.4379 33.8325 36.6074 33.8576 36.801 33.9078C37.1399 33.958 37.4546 34.1837 37.7935 34.4345C38.3018 34.8108 38.7618 35.0867 39.7058 35.0867C39.73 35.0867 39.7542 35.0867 39.7784 35.0867C39.8026 35.0867 39.8511 35.0867 39.8753 35.0867C40.6983 35.0867 41.4245 34.861 42.0539 34.4345C42.3928 34.2088 42.7074 33.958 43.0463 33.9078C43.2158 33.8827 43.4094 33.8576 43.5789 33.8576C43.8693 33.8576 44.1114 33.8827 44.3293 33.9329C44.4745 33.9579 44.5955 33.983 44.6924 33.983C44.886 33.983 45.0555 33.8576 45.1039 33.657C45.1281 33.5315 45.1523 33.4312 45.1765 33.3058C45.2007 33.2556 45.2249 33.1051 45.2491 33.0298C46.3868 32.8543 46.9436 32.5783 47.113 32.2021C47.1372 32.1519 47.1615 32.0767 47.1615 32.0265C47.1614 31.8259 47.0162 31.6252 46.8226 31.6001Z" fill="black"/>
<path fill-rule="evenodd" clip-rule="evenodd" d="M45.103 32.5282C44.8125 32.5533 44.7641 32.8543 44.6915 33.1804C44.6673 33.2557 44.643 33.356 44.6188 33.4563C44.5704 33.4563 44.4978 33.4563 44.3768 33.4313C44.1347 33.3811 43.8684 33.3309 43.5295 33.3309C43.3359 33.3309 43.1422 33.356 42.9244 33.3811C42.4887 33.4564 42.1014 33.7323 41.7383 34.0082C41.2057 34.4095 40.6005 34.5851 39.8743 34.5851C39.8502 34.5851 39.8259 34.5851 39.7775 34.5851C39.771 34.5851 39.7649 34.5851 39.7594 34.5851C39.7573 34.5851 39.7552 34.5851 39.7533 34.5851C38.9545 34.5851 38.5672 34.3342 38.1073 34.0081C37.7442 33.7322 37.3811 33.4563 36.9212 33.3811C36.7275 33.356 36.5096 33.3309 36.316 33.3309C35.9529 33.3309 35.6624 33.3811 35.4688 33.4312C35.372 33.4563 35.2993 33.4814 35.2267 33.4814C35.2025 33.3811 35.1783 33.2807 35.1541 33.1804C35.0815 32.8543 35.0331 32.5533 34.7426 32.5031C33.6775 32.3526 33.3144 32.1269 33.1934 32.0266C35.1783 31.6001 36.0981 29.5935 36.2192 29.3176C36.3644 28.9915 36.3886 28.6905 36.2918 28.4396C36.0981 27.9881 35.5656 27.8126 35.2267 27.7122C35.1541 27.7122 35.1057 27.6871 35.0573 27.662C34.6457 27.4865 34.5731 27.336 34.5731 27.3109C34.5731 27.2357 34.7425 27.1353 34.8878 27.1353C34.9362 27.1353 34.9604 27.1353 34.9604 27.1353C35.2509 27.2858 35.5414 27.3611 35.7834 27.3611C36.1465 27.3611 36.3402 27.1855 36.3886 27.1353C36.437 27.0852 36.4612 27.035 36.4612 26.9598C36.4612 26.8093 36.437 26.6588 36.437 26.5083C36.3644 25.53 36.2918 24.326 36.5822 23.6738C37.4295 21.6922 39.245 21.5417 39.7775 21.5417H40.0196H40.0438C40.5763 21.5417 42.3918 21.6922 43.2632 23.6237C43.5295 24.2759 43.4569 25.4799 43.4085 26.4581V26.5083C43.4085 26.6588 43.3843 26.7842 43.3843 26.9096C43.3843 26.9849 43.4085 27.0601 43.4569 27.1103C43.5053 27.1605 43.6747 27.311 44.0378 27.336C44.2799 27.311 44.522 27.2357 44.8125 27.1103C44.8609 27.0852 44.9819 27.0852 45.0787 27.1354C45.1998 27.1855 45.2482 27.2608 45.2482 27.2859C45.2482 27.336 45.1514 27.4865 44.764 27.637C44.7156 27.6621 44.643 27.6872 44.5704 27.7123C44.2557 27.8126 43.7231 27.9882 43.5295 28.4397C43.4085 28.6905 43.4569 28.9915 43.6021 29.3176C43.6989 29.5685 44.5946 31.6253 46.6037 32.0517C46.4827 32.152 46.1438 32.3527 45.103 32.5282Z" fill="white"/>
</g>
<defs>
<filter id="filter0_d_88_1334" x="0" y="0" width="80" height="80" filterUnits="userSpaceOnUse" color-interpolation-filters="sRGB">
<feFlood flood-opacity="0" result="BackgroundImageFix"/>
<feColorMatrix in="SourceAlpha" type="matrix" values="0 0 0 0 0 0 0 0 0 0 0 0 0 0 0 0 0 0 127 0" result="hardAlpha"/>
<feOffset dy="12"/>
<feGaussianBlur stdDeviation="12"/>
<feColorMatrix type="matrix" values="0 0 0 0 0 0 0 0 0 0 0 0 0 0 0 0 0 0 0.1 0"/>
<feBlend mode="normal" in2="BackgroundImageFix" result="effect1_dropShadow_88_1334"/>
<feBlend mode="normal" in="SourceGraphic" in2="effect1_dropShadow_88_1334" result="shape"/>
</filter>
</defs>
</svg>
