<svg width="52" height="50" viewBox="0 0 52 50" fill="none" xmlns="http://www.w3.org/2000/svg">
<path d="M46.602 21.0367V26.2935H32.3579C30.2276 26.2935 28.4917 28.0295 28.4917 30.1597V35.8118C28.4917 37.9421 30.2276 39.678 32.3579 39.678H46.5935V43.9759C46.5935 45.6985 45.1894 47.1026 43.4668 47.1026H4.61528C3.66491 47.1026 2.88883 46.3265 2.88883 45.3762V20.0353C2.88883 18.9209 3.74853 18.0068 4.83199 17.91H5.02263H43.4753C45.1979 17.91 46.602 19.314 46.602 21.0367ZM4.62376 49.1999H43.4753C46.3613 49.1999 48.6993 46.8525 48.6993 43.9674V38.6208C48.6993 38.0436 48.2279 37.5722 47.6506 37.5722H32.3579C31.382 37.5722 30.589 36.7791 30.589 35.8033V30.1513C30.589 29.1754 31.382 28.3824 32.3579 28.3824H47.6591C48.2364 28.3824 48.7078 27.9109 48.7078 27.3337V21.0282C48.7078 18.1513 46.3695 15.8042 43.4837 15.8042H5.03112C2.69718 15.8042 0.8 17.7013 0.8 20.0353V45.3762C0.8 47.4806 2.51017 49.1999 4.62376 49.1999Z" fill="#D3DFE5" stroke="#D3DFE5" stroke-width="0.4"/>
<path d="M32.3576 39.6781H48.1681C49.7895 39.6781 51.1007 38.3576 51.1007 36.7454V29.2178C51.1007 27.6049 49.7887 26.2937 48.1681 26.2937H32.3576C30.2273 26.2937 28.4914 28.0296 28.4914 30.1599V35.8119C28.4914 37.9422 30.2273 39.6781 32.3576 39.6781ZM30.5887 30.1514C30.5887 29.1755 31.3818 28.3825 32.3576 28.3825H48.1681C48.6284 28.3825 49.0034 28.7533 49.0034 29.2094V36.7369C49.0034 37.1951 48.6262 37.5723 48.1681 37.5723H32.3576C31.3818 37.5723 30.5887 36.7792 30.5887 35.8034V30.1514Z" fill="#D3DFE5" stroke="#D3DFE5" stroke-width="0.4"/>
<path d="M4.84233 15.8156L4.84233 15.8156L4.84043 15.816C4.27395 15.9209 3.89818 16.465 3.9921 17.0296C4.07638 17.5449 4.51878 17.9015 5.02111 17.9015L5.02625 17.9015C5.07411 17.9015 5.13928 17.9015 5.20675 17.8903L5.20675 17.8903L5.2084 17.89L38.2255 12.1028C38.2262 12.1027 38.2268 12.1026 38.2275 12.1025C38.4994 12.0612 38.7622 12.1374 38.9722 12.3194L38.9726 12.3197C39.1749 12.4941 39.2935 12.7445 39.2935 13.0254V16.8443C39.2935 17.4215 39.765 17.893 40.3422 17.893C40.9194 17.893 41.3909 17.4215 41.3909 16.8443V13.0254C41.3909 12.1439 41.009 11.308 40.3372 10.727L40.3361 10.726C39.6636 10.1535 38.7828 9.90011 37.887 10.0268L37.887 10.0267L37.8805 10.0278L4.84233 15.8156Z" fill="#D3DFE5" stroke="#D3DFE5" stroke-width="0.4"/>
<path d="M38.0755 32.8597V32.8586C38.0755 31.1782 36.7129 29.8156 35.0325 29.8156C33.352 29.8156 31.9895 31.1782 31.9895 32.8586C31.9895 34.5391 33.352 35.9016 35.0325 35.9016C36.7054 35.9016 38.0664 34.5299 38.0755 32.8597ZM34.0868 32.8586C34.0868 32.3411 34.5149 31.9129 35.0325 31.9129C35.551 31.9129 35.9781 32.3336 35.9781 32.8586C35.9781 33.3837 35.551 33.8043 35.0325 33.8043C34.5149 33.8043 34.0868 33.3762 34.0868 32.8586Z" fill="#D3DFE5" stroke="#D3DFE5" stroke-width="0.4"/>
<path d="M6.25703 12.7198C6.25703 13.2971 6.72847 13.7685 7.30569 13.7685C7.89139 13.7685 8.35434 13.3055 8.35434 12.7198V5.6675C8.35434 5.09029 7.88291 4.61885 7.30569 4.61885C6.72847 4.61885 6.25703 5.09029 6.25703 5.6675V12.7198Z" fill="#D3DFE5" stroke="#D3DFE5" stroke-width="0.4"/>
<path d="M7.30466 7.32347L9.56824 10.0795C9.56834 10.0796 9.56845 10.0797 9.56855 10.0799C9.93644 10.5314 10.5971 10.5927 11.0462 10.2271C11.4981 9.85932 11.5596 9.19845 11.1939 8.74917L11.1934 8.74853L8.12228 5.00724C7.92199 4.75516 7.62643 4.61885 7.31317 4.61885C6.99996 4.61885 6.70541 4.755 6.50551 4.99699L6.5053 4.99725L3.38224 8.79074L3.38224 8.79074L3.38153 8.7916C3.01675 9.23977 3.07701 9.89849 3.52587 10.2668C3.72038 10.4381 3.96388 10.5097 4.19011 10.5097C4.49675 10.5097 4.78855 10.3722 4.9945 10.1354L4.99456 10.1354L4.99812 10.1311L7.30466 7.32347Z" fill="#D3DFE5" stroke="#D3DFE5" stroke-width="0.4"/>
<path d="M17.4602 8.90099C17.4602 9.47821 17.9316 9.94965 18.5088 9.94965C19.0847 9.94965 19.5575 9.488 19.5575 8.90099V1.84866C19.5575 1.27144 19.086 0.8 18.5088 0.8C17.9316 0.8 17.4602 1.27144 17.4602 1.84866V8.90099Z" fill="#D3DFE5" stroke="#D3DFE5" stroke-width="0.4"/>
<path d="M18.5 3.50462L20.7636 6.26063C20.7637 6.26075 20.7638 6.26088 20.7639 6.26101C21.1317 6.71256 21.7924 6.77388 22.2415 6.4083C22.6934 6.04047 22.7549 5.3796 22.3892 4.93032L22.3887 4.92968L19.3176 1.18839C19.1173 0.936316 18.8217 0.8 18.5085 0.8C18.1953 0.8 17.9007 0.936153 17.7008 1.17814L17.7006 1.1784L14.5776 4.97189L14.5776 4.97189L14.5768 4.97276C14.2121 5.42092 14.2723 6.07965 14.7212 6.448C14.9157 6.61929 15.1592 6.69081 15.3854 6.69081C15.6891 6.69081 15.9925 6.55547 16.1931 6.31267L16.1934 6.31225L18.5 3.50462Z" fill="#D3DFE5" stroke="#D3DFE5" stroke-width="0.4"/>
<path d="M29.5793 9.01134C29.5793 9.58856 30.0507 10.06 30.628 10.06C31.2025 10.06 31.6766 9.59966 31.6766 9.01983V1.95901C31.6766 1.38179 31.2052 0.910352 30.628 0.910352C30.0507 0.910352 29.5793 1.38179 29.5793 1.95901V9.01134Z" fill="#D3DFE5" stroke="#D3DFE5" stroke-width="0.4"/>
<path d="M30.6191 3.61498L32.8827 6.37098C32.8828 6.37109 32.8829 6.37119 32.883 6.3713C33.2508 6.8229 33.9115 6.88425 34.3607 6.51865C34.8126 6.15083 34.874 5.48995 34.5083 5.04067L34.5078 5.04003L31.4367 1.29876C31.2365 1.04667 30.9409 0.910352 30.6276 0.910352C30.3144 0.910352 30.0199 1.04651 29.82 1.28849L29.8198 1.28875L26.6967 5.08225L26.6967 5.08224L26.696 5.08311C26.3312 5.53127 26.3915 6.19 26.8403 6.55835C27.0348 6.72964 27.2783 6.80116 27.5046 6.80116C27.8082 6.80116 28.1116 6.66582 28.3122 6.42302L28.3126 6.4226L30.6191 3.61498Z" fill="#D3DFE5" stroke="#D3DFE5" stroke-width="0.4"/>
</svg>
