<svg width="18" height="20" viewBox="0 0 18 20" fill="none" xmlns="http://www.w3.org/2000/svg">
<path d="M12.3804 8.61538V4.46154C12.3804 3.54348 12.0243 2.66303 11.3904 2.01386C10.7565 1.3647 9.89683 1 9.0004 1C8.10397 1 7.24425 1.3647 6.61038 2.01386C5.97651 2.66303 5.62041 3.54348 5.62041 4.46154V8.61538M15.8559 6.77569L16.9943 17.8526C17.0574 18.4665 16.5887 19 15.9857 19H2.01508C1.87286 19.0002 1.7322 18.9697 1.60223 18.9105C1.47226 18.8514 1.35589 18.7649 1.26069 18.6567C1.16549 18.5485 1.09358 18.421 1.04963 18.2824C1.00568 18.1439 0.990676 17.9975 1.00559 17.8526L2.14488 6.77569C2.17116 6.52052 2.28875 6.28434 2.47499 6.1127C2.66123 5.94106 2.90292 5.84611 3.15346 5.84615H14.8473C15.3665 5.84615 15.8018 6.24769 15.8559 6.77569ZM5.95841 8.61538C5.95841 8.70719 5.9228 8.79524 5.85941 8.86015C5.79602 8.92507 5.71005 8.96154 5.62041 8.96154C5.53076 8.96154 5.44479 8.92507 5.38141 8.86015C5.31802 8.79524 5.28241 8.70719 5.28241 8.61538C5.28241 8.52358 5.31802 8.43553 5.38141 8.37062C5.44479 8.3057 5.53076 8.26923 5.62041 8.26923C5.71005 8.26923 5.79602 8.3057 5.85941 8.37062C5.9228 8.43553 5.95841 8.52358 5.95841 8.61538ZM12.7184 8.61538C12.7184 8.70719 12.6828 8.79524 12.6194 8.86015C12.556 8.92507 12.47 8.96154 12.3804 8.96154C12.2907 8.96154 12.2048 8.92507 12.1414 8.86015C12.078 8.79524 12.0424 8.70719 12.0424 8.61538C12.0424 8.52358 12.078 8.43553 12.1414 8.37062C12.2048 8.3057 12.2907 8.26923 12.3804 8.26923C12.47 8.26923 12.556 8.3057 12.6194 8.37062C12.6828 8.43553 12.7184 8.52358 12.7184 8.61538Z" stroke="black" stroke-linecap="round" stroke-linejoin="round"/>
</svg>
