<svg width="1036" height="1105" viewBox="0 0 1036 1105" fill="none" xmlns="http://www.w3.org/2000/svg">
<g opacity="0.2">
<path d="M383.729 1025.17C372.977 1022.35 362.224 1026.94 356.176 1036.11C282.589 1011.41 215.386 968.376 159.943 910.521C67.8751 813.86 17.4728 685.45 17.4728 548.22C17.4728 463.906 36.9617 381.004 74.2594 307.626C96.7724 263.177 125.67 221.902 160.279 185.919C209.001 134.766 265.452 96.3135 328.286 70.5608C334.671 79.0274 345.759 82.9081 356.512 79.7331C370.288 75.147 378.017 59.9776 373.985 45.161C369.616 30.6972 355.168 22.5833 341.055 26.8166C329.631 30.3444 322.574 41.2805 322.574 53.2749C257.051 79.7331 198.585 119.95 147.847 172.866C112.229 210.26 82.3236 252.593 58.8026 298.807C20.4969 374.654 0 460.731 0 547.867C0 689.683 52.4184 823.032 147.847 923.221C205.305 983.546 275.196 1028 351.808 1053.4C352.48 1065.04 360.208 1075.62 371.632 1078.44C385.745 1081.97 399.858 1073.15 403.554 1058.33C406.914 1043.52 398.514 1028.7 384.401 1024.82L383.729 1025.17Z" fill="white"/>
<path d="M1015.17 642.885C1001.21 640.072 987.253 649.566 984.594 664.334C982.268 675.937 987.253 686.837 996.226 692.814C974.292 778.257 931.755 856.667 871.937 919.957C793.176 1003.29 690.489 1054.63 580.49 1066.58C576.502 1056.74 566.865 1050.05 555.898 1050.05C541.608 1050.41 530.309 1063.06 530.641 1078.18C530.974 1093.3 542.937 1105.26 557.227 1104.91C568.858 1104.91 578.496 1096.12 581.487 1084.51C695.806 1072.21 802.481 1019.11 883.901 932.615C946.045 866.863 990.244 785.64 1012.84 696.682C1023.81 695.276 1033.11 686.837 1035.44 674.882C1038.43 660.114 1029.13 645.346 1015.17 642.533V642.885Z" fill="white"/>
<path d="M555.964 55.9629C566.959 55.9629 576.288 49.5477 580.62 39.212C690.905 51.3297 793.861 103.364 872.827 187.832C931.468 250.558 973.45 327.185 995.774 411.296C987.111 417.355 982.113 428.76 984.445 440.521C987.444 455.49 1001.44 465.113 1015.43 461.905C1029.43 458.697 1038.42 443.728 1035.42 428.76C1033.09 416.642 1023.43 408.088 1012.43 407.019C989.443 319.701 945.795 239.866 884.822 174.645C802.857 86.9699 696.236 33.1531 581.619 20.6791C578.621 9.27419 568.958 0.364067 557.297 0.00766438C542.969 -0.348738 530.975 11.769 530.641 27.0943C530.308 42.4196 541.637 55.2501 555.964 55.6065V55.9629Z" fill="white"/>
<path d="M101.382 434.47C91.0087 472.89 85.8223 513.073 85.8223 553.609C85.8223 574.405 87.2053 595.554 89.9714 616.351C79.5986 621.991 73.7207 634.327 76.4868 646.664C79.9444 661.469 94.4662 670.633 108.988 667.461C123.51 663.936 132.5 649.132 129.388 634.328C126.968 623.401 117.978 615.293 107.951 613.531C105.185 593.792 103.802 574.053 103.802 553.961C103.802 515.188 108.642 476.768 118.67 439.757C168.459 252.236 337.19 121.112 528.395 121.112C697.471 121.112 846.494 219.808 915.3 374.548C907.348 381.95 903.89 393.582 907.694 404.509C912.88 418.96 928.093 426.363 942.27 421.075C956.446 415.788 963.707 400.279 958.52 385.827C954.371 374.195 943.307 367.145 931.897 367.85C899.395 294.181 848.223 231.087 782.529 184.207C707.844 130.982 620.021 102.783 528.395 102.783C328.891 102.783 153.245 239.547 101.036 435.175L101.382 434.47Z" fill="white"/>
<path d="M177.295 758.938C169.604 745.793 152.822 741.175 139.886 748.991C126.95 756.806 122.405 773.858 130.097 787.003C136.39 798.015 148.976 802.634 160.164 799.792C244.073 919.867 378.676 990.917 525.167 990.917C543.697 990.917 562.227 989.496 580.407 987.365C586.001 998.022 597.888 1004.06 610.125 1001.57C624.809 998.377 634.249 983.457 631.102 968.536C627.955 953.616 613.271 944.024 598.587 947.221C587.4 949.708 579.358 958.589 577.61 969.247C560.129 971.378 542.648 972.444 525.167 972.444C384.62 972.444 255.61 904.591 175.198 789.489C181.491 780.963 182.54 768.529 176.946 758.582L177.295 758.938Z" fill="white"/>
<path d="M826.047 890.637C836.456 881.099 836.456 865.203 826.047 855.348C815.975 845.492 799.187 845.492 788.779 855.348C781.057 862.66 779.042 873.787 783.071 882.689C772.663 891.273 761.583 899.221 750.168 906.533C742.11 900.492 730.358 899.221 720.622 904.308C708.199 911.302 703.834 926.244 710.885 938.325C718.271 950.088 734.052 954.221 746.81 947.545C756.883 942.14 761.583 931.013 759.233 920.522C771.656 912.574 783.407 903.99 794.823 894.77C804.559 899.539 817.318 898.267 825.376 890.637H826.047Z" fill="white"/>
<path d="M984.938 510.983C983.197 496.743 969.618 486.477 954.645 488.464C939.673 490.119 928.879 503.035 930.968 517.275C932.361 528.203 940.369 536.482 950.815 539.131C950.815 544.099 951.163 549.066 951.163 554.365C951.163 611.987 938.977 667.623 914.603 719.284C904.157 718.291 893.363 722.927 887.792 732.531C880.48 745.115 885.355 760.68 898.586 767.634C911.817 774.588 928.183 769.952 935.495 757.368C941.414 747.102 939.325 734.518 930.968 726.57C956.038 672.59 969.27 613.643 969.27 554.034C969.27 548.735 969.27 543.105 968.921 537.476C979.715 533.171 986.679 522.573 985.286 510.652L984.938 510.983Z" fill="white"/>
<path d="M884.361 577.247C885.058 561.766 873.206 548.444 858.216 548.084C843.226 547.364 830.328 559.605 829.98 575.087C829.631 586.608 835.906 597.049 845.318 601.73C820.916 777.068 680.431 906.321 508.573 906.321C321.376 906.321 169.388 745.745 169.388 548.444C169.388 370.946 293.837 220.81 456.981 194.528C461.512 204.249 471.622 210.729 482.777 210.369C497.767 209.649 509.619 196.688 508.922 181.206C508.225 165.725 495.675 153.484 480.685 154.204C468.136 154.924 458.027 163.925 455.238 176.166C375.06 188.767 301.855 229.091 246.777 292.098C185.424 361.945 151.61 453.035 151.61 548.444C151.61 648.895 188.212 743.224 255.143 814.152C322.422 885.799 412.709 925.043 508.922 925.043C605.135 925.043 688.798 888.679 755.031 823.153C813.944 764.827 851.941 687.779 863.445 603.89C874.949 601.01 884.012 590.569 884.361 577.607V577.247Z" fill="white"/>
</g>
</svg>
