<svg width="48" height="48" viewBox="0 0 48 48" fill="none" xmlns="http://www.w3.org/2000/svg">
<path fill-rule="evenodd" clip-rule="evenodd" d="M37.2689 3.78563C35.7763 2.29074 33.3376 2.29074 31.8384 3.78563C29.2064 6.4217 26.5745 9.05778 23.9492 11.6872C21.3239 9.05778 22.5033 10.239 19.878 7.60961C18.3854 6.11472 15.94 6.11472 14.4475 7.60961C12.9549 9.1045 12.9549 11.547 14.4475 13.0486C16.9795 15.5846 15.7135 14.3166 18.2455 16.8526C21.3839 19.9958 26.5078 19.9958 29.6529 16.8526C32.1915 14.3099 34.7302 11.7673 37.2689 9.22462C38.7614 7.72973 38.7614 5.28052 37.2689 3.78563Z" fill="#4376BA"/>
<path fill-rule="evenodd" clip-rule="evenodd" d="M23.9491 11.6872C26.581 9.05111 29.213 6.41503 31.8383 3.78563C33.3309 2.29074 35.7762 2.29074 37.2688 3.78563C38.7614 5.28052 38.7614 7.72973 37.2688 9.22462C35.9961 10.4993 34.7235 11.7739 33.4508 13.0486C32.1848 14.3166 30.9188 15.5846 29.6528 16.8526C26.5144 19.9958 21.3904 19.9958 18.2454 16.8526C16.9794 15.5846 15.7134 14.3166 14.4474 13.0486C16.8328 15.4378 21.4304 14.2098 23.9491 11.6872Z" fill="#479FD7"/>
<path fill-rule="evenodd" clip-rule="evenodd" d="M21.0306 1.21627C22.6498 -0.405422 25.2684 -0.405422 26.8876 1.21627C28.5067 2.83795 28.5067 5.46068 26.8876 7.08237C25.2684 8.70406 22.6498 8.70406 21.0306 7.08237C19.4115 5.46068 19.4115 2.83795 21.0306 1.21627Z" fill="#4376BA"/>
<path fill-rule="evenodd" clip-rule="evenodd" d="M44.1453 37.3272C45.6378 35.8323 45.6378 33.3831 44.1453 31.8882C41.5133 29.2522 38.8814 26.6161 36.2561 23.9867C38.8814 21.3573 37.702 22.5385 40.3273 19.9091C41.8198 18.4142 41.8198 15.965 40.3273 14.4701C38.8347 12.9752 36.3893 12.9752 34.8968 14.4701C32.3648 17.0061 33.6308 15.7381 31.0988 18.2741C27.9604 21.4173 27.9604 26.5493 31.0988 29.6993C33.6374 32.2419 36.1761 34.7846 38.7148 37.3272C40.2073 38.8221 42.6527 38.8221 44.1453 37.3272Z" fill="#C73427"/>
<path fill-rule="evenodd" clip-rule="evenodd" d="M36.2494 23.9867C38.8813 26.6227 41.5133 29.2588 44.1386 31.8882C45.6311 33.3831 45.6311 35.8323 44.1386 37.3272C42.646 38.8221 40.2006 38.8221 38.7081 37.3272C37.4354 36.0526 36.1627 34.7779 34.8901 33.5032C33.6241 32.2353 32.3581 30.9673 31.0921 29.6993C27.9537 26.556 27.9537 21.424 31.0921 18.2741C32.3581 17.0061 33.6241 15.7381 34.8901 14.4701C32.5046 16.8592 33.7307 21.464 36.2494 23.9867Z" fill="#EF4923"/>
<path fill-rule="evenodd" clip-rule="evenodd" d="M46.704 21.0702C48.3231 22.6919 48.3231 25.3147 46.704 26.9363C45.0848 28.558 42.4662 28.558 40.8471 26.9363C39.2279 25.3147 39.2279 22.6919 40.8471 21.0702C42.4662 19.4486 45.0848 19.4486 46.704 21.0702Z" fill="#C73427"/>
<path fill-rule="evenodd" clip-rule="evenodd" d="M10.6495 44.2144C12.142 45.7093 14.5874 45.7093 16.08 44.2144C18.7119 41.5783 21.3439 38.9422 23.9692 36.3128C26.5945 38.9422 25.4151 37.761 28.0404 40.3904C29.5329 41.8853 31.9783 41.8853 33.4709 40.3904C34.9634 38.8955 34.9634 36.4463 33.4709 34.9514C30.9389 32.4155 32.2049 33.6834 29.6729 31.1475C26.5345 28.0042 21.4105 28.0042 18.2655 31.1475C15.7268 33.6901 13.1881 36.2328 10.6495 38.7754C9.15692 40.2703 9.15692 42.7195 10.6495 44.2144Z" fill="#F48020"/>
<path fill-rule="evenodd" clip-rule="evenodd" d="M23.9692 36.3128C21.3372 38.9489 18.7053 41.585 16.08 44.2144C14.5874 45.7093 12.142 45.7093 10.6495 44.2144C9.15692 42.7195 9.15692 40.2703 10.6495 38.7754C11.9221 37.5007 13.1948 36.2261 14.4675 34.9514C15.7335 33.6834 16.9995 32.4154 18.2655 31.1475C21.4039 28.0042 26.5278 28.0042 29.6729 31.1475C30.9389 32.4154 32.2049 33.6834 33.4709 34.9514C31.0855 32.5623 26.4879 33.7902 23.9692 36.3128Z" fill="#FACF1E"/>
<path fill-rule="evenodd" clip-rule="evenodd" d="M26.8876 46.7837C25.2684 48.4054 22.6498 48.4054 21.0306 46.7837C19.4115 45.162 19.4115 42.5393 21.0306 40.9176C22.6498 39.2959 25.2684 39.2959 26.8876 40.9176C28.5067 42.5393 28.5067 45.162 26.8876 46.7837Z" fill="#F48020"/>
<path fill-rule="evenodd" clip-rule="evenodd" d="M3.77963 10.6728C2.28708 12.1677 2.28708 14.6169 3.77963 16.1118C6.41159 18.7479 9.04355 21.384 11.6688 24.0134C9.04355 26.6428 10.2229 25.4615 7.59764 28.0909C6.10508 29.5858 6.10508 32.035 7.59764 33.5299C9.09019 35.0248 11.5356 35.0248 13.0281 33.5299C15.5601 30.994 14.2941 32.2619 16.8262 29.726C19.9645 26.5827 19.9645 21.4507 16.8262 18.3007C14.2875 15.7581 11.7488 13.2154 9.21013 10.6728C7.71758 9.17791 5.27219 9.17791 3.77963 10.6728Z" fill="#008560"/>
<path fill-rule="evenodd" clip-rule="evenodd" d="M11.6688 24.0134C9.03689 21.3773 6.40493 18.7412 3.77963 16.1118C2.28708 14.6169 2.28708 12.1677 3.77963 10.6728C5.27219 9.17791 7.71758 9.17791 9.21013 10.6728C10.4828 11.9475 11.7555 13.2221 13.0281 14.4968C14.2941 15.7648 15.5601 17.0328 16.8262 18.3007C19.9645 21.444 19.9645 26.576 16.8262 29.726C15.5601 30.994 14.2941 32.2619 13.0281 33.5299C15.4136 31.1408 14.1875 26.536 11.6688 24.0134Z" fill="#06B079"/>
<path fill-rule="evenodd" clip-rule="evenodd" d="M1.21434 26.9297C-0.404819 25.308 -0.404819 22.6853 1.21434 21.0636C2.83349 19.4419 5.45212 19.4419 7.07128 21.0636C8.69043 22.6853 8.69043 25.308 7.07128 26.9297C5.45212 28.5514 2.83349 28.5514 1.21434 26.9297Z" fill="#008560"/>
<path d="M21.5637 33.3898C21.3505 33.3364 21.1373 33.4231 21.0173 33.5967C19.5581 33.1295 18.2254 32.3153 17.126 31.2208C15.3003 29.3923 14.3008 26.9631 14.3008 24.367C14.3008 22.772 14.6873 21.2038 15.4269 19.8156C15.8733 18.9748 16.4464 18.1939 17.1327 17.5132C18.0988 16.5456 19.2183 15.8181 20.4643 15.331C20.5909 15.4911 20.8108 15.5645 21.024 15.5045C21.2972 15.4177 21.4504 15.1308 21.3705 14.8505C21.2839 14.5769 20.9973 14.4234 20.7175 14.5034C20.4909 14.5702 20.351 14.7771 20.351 15.004C19.0517 15.5045 17.8923 16.2653 16.8861 17.2663C16.1799 17.9737 15.5868 18.7746 15.1204 19.6488C14.3608 21.0836 13.9543 22.712 13.9543 24.3604C13.9543 27.0432 14.9938 29.5658 16.8861 31.4611C18.0256 32.6023 19.4115 33.4432 20.9307 33.9237C20.944 34.1439 21.0973 34.3441 21.3238 34.3975C21.6037 34.4642 21.8835 34.2974 21.9568 34.0171C22.0235 33.7368 21.8569 33.4565 21.577 33.3831L21.5637 33.3898Z" fill="white"/>
<path d="M33.6774 25.9554C33.3976 25.902 33.1177 26.0822 33.0644 26.3625C33.0178 26.5827 33.1177 26.7896 33.2976 26.903C32.8578 28.5247 32.0049 30.0129 30.8056 31.2142C29.2264 32.7958 27.1675 33.7702 24.962 33.9971C24.882 33.8102 24.6888 33.6834 24.4689 33.6834C24.1824 33.6901 23.9558 33.9303 23.9625 34.2173C23.9691 34.5043 24.209 34.7312 24.4955 34.7245C24.7288 34.7245 24.922 34.5577 24.982 34.3374C27.2741 34.1039 29.413 33.0961 31.0455 31.4544C32.2915 30.2065 33.1777 28.6649 33.6308 26.9764C33.8507 26.9497 34.0372 26.7896 34.0839 26.5627C34.1438 26.2824 33.9573 26.0021 33.6774 25.9487V25.9554Z" fill="white"/>
<path d="M24.4689 15.044C24.6888 15.044 24.8753 14.9238 24.962 14.7303C27.1675 14.9572 29.2264 15.9316 30.8056 17.5132C31.9783 18.6878 32.8179 20.1226 33.2643 21.6976C33.091 21.811 32.9911 22.0246 33.0377 22.2448C33.0977 22.5251 33.3776 22.7053 33.6574 22.6452C33.9373 22.5851 34.1172 22.3049 34.0572 22.0246C34.0106 21.7977 33.8173 21.6375 33.5975 21.6175C33.1377 19.9824 32.2648 18.4875 31.0455 17.2663C29.4063 15.6246 27.2741 14.6169 24.982 14.3833C24.922 14.1697 24.7288 14.0029 24.4955 13.9962C24.209 13.9895 23.9691 14.2164 23.9625 14.5034C23.9558 14.7904 24.1824 15.0306 24.4689 15.0373V15.044Z" fill="white"/>
<path d="M15.7335 22.1114C15.5336 22.8388 15.4336 23.5996 15.4336 24.367C15.4336 24.7608 15.4603 25.1612 15.5136 25.5549C15.3137 25.6617 15.2004 25.8953 15.2537 26.1289C15.3204 26.4092 15.6002 26.5827 15.8801 26.5226C16.1599 26.4559 16.3332 26.1756 16.2732 25.8953C16.2266 25.6884 16.0533 25.5349 15.8601 25.5016C15.8068 25.1278 15.7801 24.7541 15.7801 24.3737C15.7801 23.6396 15.8734 22.9122 16.0667 22.2115C17.0262 18.6611 20.2778 16.1785 23.9625 16.1785C27.2208 16.1785 30.0927 18.0471 31.4186 20.9768C31.2654 21.117 31.1987 21.3372 31.272 21.5441C31.372 21.8177 31.6652 21.9579 31.9384 21.8578C32.2116 21.7577 32.3515 21.464 32.2515 21.1904C32.1716 20.9702 31.9584 20.8367 31.7385 20.85C31.1121 19.4553 30.126 18.2607 28.86 17.3731C27.4207 16.3654 25.7283 15.8315 23.9625 15.8315C20.1179 15.8315 16.733 18.4208 15.7268 22.1247L15.7335 22.1114Z" fill="white"/>
<path d="M17.326 28.5514C17.1794 28.3044 16.8596 28.2177 16.6131 28.3645C16.3665 28.5113 16.2799 28.8317 16.4265 29.0786C16.5464 29.2855 16.7863 29.3722 16.9995 29.3188C18.5987 31.5745 21.164 32.9092 23.9559 32.9092C24.309 32.9092 24.6622 32.8825 25.0087 32.8425C25.1153 33.0427 25.3418 33.1562 25.575 33.1094C25.8549 33.0494 26.0348 32.7691 25.9748 32.4888C25.9149 32.2085 25.635 32.0283 25.3552 32.0884C25.1419 32.1351 24.9887 32.3019 24.9554 32.5021C24.6222 32.5422 24.289 32.5622 23.9559 32.5622C21.2773 32.5622 18.8186 31.2875 17.286 29.1253C17.406 28.9651 17.426 28.7315 17.3194 28.5447L17.326 28.5514Z" fill="white"/>
<path d="M30.1059 30.787C30.3124 30.5868 30.3124 30.2531 30.1059 30.0462C29.906 29.8394 29.5728 29.8394 29.3663 30.0462C29.213 30.1997 29.173 30.4333 29.253 30.6202C29.0464 30.8004 28.8265 30.9672 28.6 31.1207C28.4401 30.9939 28.2069 30.9672 28.0136 31.074C27.7671 31.2208 27.6805 31.5345 27.8204 31.7881C27.967 32.035 28.2802 32.1217 28.5334 31.9816C28.7333 31.8681 28.8265 31.6346 28.7799 31.4143C29.0264 31.2475 29.2597 31.0673 29.4862 30.8738C29.6794 30.9739 29.9326 30.9472 30.0926 30.787H30.1059Z" fill="white"/>
<path d="M32.7978 23.4995C32.7645 23.2125 32.5047 23.0056 32.2182 23.0457C31.9316 23.079 31.7251 23.3393 31.7651 23.6263C31.7917 23.8465 31.945 24.0133 32.1449 24.0667C32.1449 24.1668 32.1515 24.2669 32.1515 24.3737C32.1515 25.5349 31.9183 26.6561 31.4519 27.6972C31.252 27.6772 31.0454 27.7706 30.9388 27.9641C30.7989 28.2177 30.8922 28.5314 31.1454 28.6715C31.3986 28.8117 31.7117 28.7182 31.8517 28.4646C31.9649 28.2578 31.925 28.0042 31.7651 27.844C32.2448 26.7562 32.498 25.5683 32.498 24.367C32.498 24.2603 32.498 24.1468 32.4913 24.0334C32.6979 23.9466 32.8312 23.7331 32.8045 23.4928L32.7978 23.4995Z" fill="white"/>
<path d="M31.1188 24.9076C31.1321 24.6206 30.9056 24.3737 30.6191 24.367C30.3326 24.3537 30.086 24.5806 30.0794 24.8676C30.0727 25.0811 30.1926 25.2747 30.3725 25.3614C29.9061 28.6115 27.2208 31.0073 23.9359 31.0073C20.3578 31.0073 17.4526 28.0309 17.4526 24.3737C17.4526 21.0836 19.8314 18.3007 22.9497 17.8136C23.0364 17.9937 23.2296 18.1139 23.4428 18.1072C23.7293 18.0938 23.9559 17.8536 23.9426 17.5666C23.9292 17.2797 23.6894 17.0528 23.4028 17.0661C23.163 17.0795 22.9697 17.2463 22.9164 17.4732C21.3839 17.7068 19.9846 18.4542 18.9318 19.6221C17.7591 20.9168 17.1128 22.6052 17.1128 24.3737C17.1128 26.2357 17.8124 27.9841 19.0918 29.2988C20.3778 30.6269 22.1035 31.3543 23.9426 31.3543C25.7816 31.3543 27.3808 30.6803 28.6468 29.4657C29.7728 28.3846 30.4991 26.9564 30.719 25.4015C30.9389 25.3481 31.1121 25.1545 31.1188 24.9143V24.9076Z" fill="white"/>
</svg>
