<svg width="242" height="59" viewBox="0 0 242 59" fill="none" xmlns="http://www.w3.org/2000/svg">
<path d="M64.6989 19.7514C64.6989 17.2113 65.1897 15.4389 66.163 14.4424C67.1363 13.446 68.8621 12.9478 71.324 12.9478H73.6469C76.0924 12.9478 77.8101 13.3806 78.7997 14.2382C79.7894 15.0958 80.2802 16.5497 80.2802 18.6079V19.4737H78.0064V18.9265C78.0064 17.4236 77.6955 16.3945 77.0821 15.8473C76.4687 15.3 75.2664 15.0223 73.4751 15.0223H71.9374C70.7351 15.0223 69.8599 15.0958 69.3119 15.2429C68.7639 15.3899 68.3059 15.6349 67.946 15.9861C67.578 16.321 67.3244 16.7702 67.1772 17.3093C67.03 17.8483 66.9564 18.8529 66.9564 20.3068V25.9588C66.9564 27.3963 67.03 28.3927 67.1772 28.94C67.3244 29.4872 67.578 29.9282 67.946 30.2631C68.3141 30.6062 68.7558 30.8594 69.2711 31.0064C69.7863 31.1534 70.6779 31.2269 71.9374 31.2269H73.4751C75.3072 31.2269 76.5259 30.941 77.1312 30.3611C77.7364 29.7812 78.0391 28.6786 78.0391 27.0369C78.0391 26.7919 78.0391 26.5959 78.0391 26.4652C78.0391 26.3345 78.0309 26.2038 78.0227 26.0895H80.2802V27.3963C80.2802 29.6015 79.7976 31.1371 78.8406 31.9947C77.8837 32.8604 76.1497 33.2851 73.6387 33.2851H71.3158C68.8457 33.2851 67.1281 32.7869 66.1548 31.7905C65.1815 30.794 64.6907 29.0216 64.6907 26.4815V19.7432L64.6989 19.7514Z" fill="#02070C"/>
<path d="M83.3882 19.7514C83.3882 17.2194 83.9117 15.447 84.9668 14.4506C86.0137 13.4541 87.8786 12.9478 90.5613 12.9478H93.0723C95.7796 12.9478 97.6526 13.4378 98.6914 14.4261C99.7301 15.4144 100.245 17.1868 100.245 19.7514V26.4897C100.245 29.0298 99.722 30.8022 98.6669 31.7986C97.6117 32.7951 95.7469 33.2933 93.0805 33.2933H90.5695C87.8868 33.2933 86.0219 32.7951 84.975 31.7986C83.9281 30.8022 83.3964 29.0298 83.3964 26.4897V19.7514H83.3882ZM92.4098 15.0223H91.183C89.7843 15.0223 88.7946 15.0958 88.2221 15.251C87.6414 15.4062 87.1425 15.6594 86.7253 16.0106C86.3327 16.3455 86.0546 16.8029 85.8992 17.3746C85.7357 17.9463 85.662 18.9346 85.662 20.3313V25.9588C85.662 27.3473 85.7438 28.3192 85.8992 28.8828C86.0628 29.4464 86.3327 29.8956 86.7253 30.2386C87.1425 30.598 87.6414 30.8512 88.2221 30.9982C88.8028 31.1534 89.7925 31.2269 91.183 31.2269H92.4098C93.8085 31.2269 94.7981 31.1534 95.387 30.9982C95.9759 30.843 96.4748 30.5898 96.9002 30.2386C97.2846 29.9119 97.5545 29.4709 97.7099 28.9155C97.8653 28.3682 97.9471 27.3799 97.9471 25.9588V20.3068C97.9471 18.9101 97.8653 17.93 97.7099 17.3501C97.5463 16.7784 97.2764 16.321 96.8838 15.9861C96.4749 15.6431 95.9759 15.3899 95.4034 15.2429C94.8227 15.0958 93.833 15.0223 92.4262 15.0223H92.4098Z" fill="#02070C"/>
<path d="M104.392 33.0484V13.1929H107.787L118.567 30.9166V13.1929H120.759V33.0484H117.364L106.584 15.3001V33.0484H104.392Z" fill="#02070C"/>
<path d="M125.584 33.0484V13.1929H128.979L139.759 30.9166V13.1929H141.951V33.0484H138.556L127.776 15.3001V33.0484H125.584Z" fill="#02070C"/>
<path d="M146.785 33.0484V13.1929H160.73V15.3001H148.977V21.7934H160.395V23.8189H148.977V30.9656H160.73V33.0484H146.785Z" fill="#02070C"/>
<path d="M163.634 19.7514C163.634 17.2113 164.124 15.4389 165.098 14.4424C166.071 13.446 167.797 12.9478 170.259 12.9478H172.582C175.027 12.9478 176.745 13.3806 177.734 14.2382C178.724 15.0958 179.215 16.5497 179.215 18.6079V19.4737H176.941V18.9265C176.941 17.4236 176.63 16.3945 176.017 15.8473C175.403 15.3 174.201 15.0223 172.41 15.0223H170.872C169.67 15.0223 168.795 15.0958 168.247 15.2429C167.699 15.3899 167.241 15.6349 166.881 15.9861C166.513 16.321 166.259 16.7702 166.112 17.3093C165.965 17.8483 165.891 18.8529 165.891 20.3068V25.9588C165.891 27.3963 165.965 28.3927 166.112 28.94C166.259 29.4872 166.513 29.9282 166.881 30.2631C167.249 30.6062 167.691 30.8594 168.206 31.0064C168.721 31.1534 169.613 31.2269 170.872 31.2269H172.41C174.242 31.2269 175.461 30.941 176.066 30.3611C176.671 29.7812 176.974 28.6786 176.974 27.0369C176.974 26.7919 176.974 26.5959 176.974 26.4652C176.974 26.3345 176.966 26.2038 176.957 26.0895H179.215V27.3963C179.215 29.6015 178.732 31.1371 177.775 31.9947C176.818 32.8604 175.084 33.2851 172.573 33.2851H170.251C167.78 33.2851 166.063 32.7869 165.09 31.7905C164.116 30.794 163.625 29.0216 163.625 26.4815V19.7432L163.634 19.7514Z" fill="#02070C"/>
<path d="M180.237 15.3001V13.1929H195.131V15.3001H188.776V33.0484H186.576V15.3001H180.245H180.237Z" fill="#02070C"/>
<path d="M197.225 33.0484V13.1929H199.442V33.0484H197.225Z" fill="#02070C"/>
<path d="M203.621 19.7514C203.621 17.2194 204.145 15.447 205.2 14.4506C206.247 13.4541 208.112 12.9478 210.794 12.9478H213.305C216.013 12.9478 217.886 13.4378 218.925 14.4261C219.963 15.4144 220.479 17.1868 220.479 19.7514V26.4897C220.479 29.0298 219.955 30.8022 218.9 31.7986C217.845 32.7951 215.98 33.2933 213.314 33.2933H210.803C208.12 33.2933 206.255 32.7951 205.208 31.7986C204.161 30.8022 203.63 29.0298 203.63 26.4897V19.7514H203.621ZM212.651 15.0223H211.424C210.026 15.0223 209.036 15.0958 208.463 15.251C207.883 15.4062 207.384 15.6594 206.967 16.0106C206.574 16.3455 206.296 16.8029 206.141 17.3746C205.977 17.9463 205.903 18.9346 205.903 20.3313V25.9588C205.903 27.3473 205.985 28.3192 206.141 28.8828C206.304 29.4464 206.574 29.8956 206.967 30.2386C207.384 30.598 207.883 30.8512 208.463 30.9982C209.044 31.1534 210.034 31.2269 211.424 31.2269H212.651C214.05 31.2269 215.039 31.1534 215.628 30.9982C216.217 30.843 216.716 30.5898 217.141 30.2386C217.526 29.9119 217.796 29.4709 217.951 28.9155C218.107 28.3682 218.188 27.3799 218.188 25.9588V20.3068C218.188 18.9101 218.107 17.93 217.951 17.3501C217.788 16.7784 217.518 16.321 217.125 15.9861C216.716 15.6431 216.217 15.3899 215.645 15.2429C215.064 15.0958 214.074 15.0223 212.668 15.0223H212.651Z" fill="#02070C"/>
<path d="M224.634 33.0484V13.1929H228.028L238.808 30.9166V13.1929H241V33.0484H237.606L226.826 15.3001V33.0484H224.634Z" fill="#02070C"/>
<path d="M65.0425 38.9536H65.8277L67.3981 44.8833L68.9766 38.9536H70.0563L71.643 44.8833L73.2134 38.9536H74.0068L72.1338 45.8063H71.1605L69.5165 39.7704L67.9052 45.8063H66.8991L65.0588 38.9536H65.0425Z" fill="#02070C"/>
<path d="M75.0128 45.8063V38.9536H75.6999V41.6244C75.8144 41.3794 76.0025 41.1915 76.2642 41.0772C76.526 40.9629 76.8613 40.8975 77.2866 40.8975C77.9246 40.8975 78.3663 41.0282 78.6198 41.2814C78.8734 41.5346 79.0042 41.992 79.0042 42.629V45.8063H78.2845V42.7842C78.2845 42.2778 78.2109 41.943 78.0636 41.7878C77.9164 41.6244 77.622 41.5509 77.1966 41.5509C76.6895 41.5509 76.3215 41.6653 76.0843 41.894C75.8471 42.1227 75.7326 42.4902 75.7326 42.9966V45.8144H75.021L75.0128 45.8063Z" fill="#02070C"/>
<path d="M82.2105 45.8714C81.4825 45.8714 80.9754 45.7326 80.6892 45.4467C80.4029 45.1608 80.2557 44.6708 80.2557 43.9602V42.8086C80.2557 42.098 80.4029 41.5997 80.6892 41.3139C80.9754 41.028 81.4825 40.8892 82.2023 40.8892H82.5376C83.2656 40.8892 83.7727 41.028 84.059 41.3139C84.3452 41.5997 84.4925 42.0898 84.4925 42.8086V43.5436H81C81 43.6008 81 43.6498 81 43.7152C81 43.7723 81 43.8622 81 43.9684C81 44.4666 81.0818 44.8015 81.2372 44.973C81.4008 45.1445 81.7197 45.2262 82.2023 45.2262H82.5376C82.9711 45.2262 83.2738 45.1608 83.4455 45.0383C83.6173 44.9158 83.7154 44.6953 83.74 44.3849H84.4843C84.4434 44.9076 84.2798 45.2915 83.9772 45.5202C83.6745 45.7571 83.2002 45.8714 82.5458 45.8714H82.2105ZM81 42.9147H83.7482V42.7269C83.7482 42.2695 83.6664 41.9673 83.5028 41.8039C83.3392 41.6406 83.0202 41.5589 82.5376 41.5589H82.2023C81.7197 41.5589 81.4008 41.6406 81.2453 41.8039C81.0818 41.9673 81.0082 42.2777 81.0082 42.7269V42.9147H81Z" fill="#02070C"/>
<path d="M85.7766 45.8061V40.9545H86.4718V41.6161C86.5699 41.3629 86.7335 41.1832 86.9462 41.0607C87.1588 40.9463 87.4451 40.8892 87.805 40.8892C88.3366 40.8892 88.7047 41.0198 88.9173 41.273C89.13 41.5262 89.2363 41.9755 89.2363 42.6289V42.6697H88.5166V42.5309C88.5166 42.147 88.4511 41.8856 88.3284 41.7468C88.2057 41.6161 87.9767 41.5426 87.6332 41.5426C87.2324 41.5426 86.9462 41.6569 86.7662 41.8774C86.5863 42.1061 86.4963 42.4737 86.4963 42.9882V45.8061H85.7766Z" fill="#02070C"/>
<path d="M91.9599 45.8714C91.232 45.8714 90.7249 45.7326 90.4386 45.4467C90.1524 45.1608 90.0051 44.6708 90.0051 43.9602V42.8086C90.0051 42.098 90.1524 41.5997 90.4386 41.3139C90.7249 41.028 91.232 40.8892 91.9518 40.8892H92.2871C93.015 40.8892 93.5222 41.028 93.8084 41.3139C94.0947 41.5997 94.2419 42.0898 94.2419 42.8086V43.5436H90.7494C90.7494 43.6008 90.7494 43.6498 90.7494 43.7152C90.7494 43.7723 90.7494 43.8622 90.7494 43.9684C90.7494 44.4666 90.8312 44.8015 90.9866 44.973C91.1502 45.1445 91.4692 45.2262 91.9518 45.2262H92.2871C92.7206 45.2262 93.0232 45.1608 93.195 45.0383C93.3667 44.9158 93.4649 44.6953 93.4894 44.3849H94.2337C94.1928 44.9076 94.0293 45.2915 93.7266 45.5202C93.424 45.7571 92.9496 45.8714 92.2953 45.8714H91.9599ZM90.7494 42.9147H93.4976V42.7269C93.4976 42.2695 93.4158 41.9673 93.2522 41.8039C93.0887 41.6406 92.7697 41.5589 92.2871 41.5589H91.9518C91.4692 41.5589 91.1502 41.6406 90.9948 41.8039C90.8312 41.9673 90.7576 42.2777 90.7576 42.7269V42.9147H90.7494Z" fill="#02070C"/>
<path d="M98.2415 41.5757V40.9631H98.8386V39.8687H99.5584V40.9631H101.938V41.5757H99.5584V44.2465C99.5584 44.6304 99.6238 44.8836 99.7465 45.0224C99.8692 45.1613 100.106 45.2266 100.458 45.2266C100.81 45.2266 101.039 45.1613 101.161 45.0306C101.284 44.8999 101.341 44.6385 101.341 44.2465V44.1076H102.069V44.1485C102.069 44.8264 101.955 45.292 101.734 45.5288C101.505 45.7657 101.039 45.88 100.327 45.88C99.771 45.88 99.3866 45.7575 99.1658 45.5043C98.9531 45.2511 98.8386 44.8019 98.8386 44.1485V41.5757H98.2415Z" fill="#02070C"/>
<path d="M103.386 45.8063V38.9536H104.073V41.6244C104.188 41.3794 104.376 41.1915 104.638 41.0772C104.899 40.9629 105.235 40.8975 105.66 40.8975C106.298 40.8975 106.74 41.0282 106.993 41.2814C107.247 41.5346 107.378 41.992 107.378 42.629V45.8063H106.658V42.7842C106.658 42.2778 106.584 41.943 106.437 41.7878C106.29 41.6244 105.995 41.5509 105.57 41.5509C105.063 41.5509 104.695 41.6653 104.458 41.894C104.221 42.1227 104.106 42.4902 104.106 42.9966V45.8144H103.394L103.386 45.8063Z" fill="#02070C"/>
<path d="M110.584 45.8714C109.856 45.8714 109.349 45.7326 109.063 45.4467C108.776 45.1608 108.629 44.6708 108.629 43.9602V42.8086C108.629 42.098 108.776 41.5997 109.063 41.3139C109.349 41.028 109.856 40.8892 110.576 40.8892H110.911C111.639 40.8892 112.146 41.028 112.432 41.3139C112.719 41.5997 112.866 42.0898 112.866 42.8086V43.5436H109.373C109.373 43.6008 109.373 43.6498 109.373 43.7152C109.373 43.7723 109.373 43.8622 109.373 43.9684C109.373 44.4666 109.455 44.8015 109.611 44.973C109.774 45.1445 110.093 45.2262 110.576 45.2262H110.911C111.344 45.2262 111.647 45.1608 111.819 45.0383C111.991 44.9158 112.089 44.6953 112.113 44.3849H112.858C112.817 44.9076 112.653 45.2915 112.351 45.5202C112.048 45.7571 111.574 45.8714 110.919 45.8714H110.584ZM109.373 42.9147H112.122V42.7269C112.122 42.2695 112.04 41.9673 111.876 41.8039C111.713 41.6406 111.394 41.5589 110.911 41.5589H110.576C110.093 41.5589 109.774 41.6406 109.619 41.8039C109.455 41.9673 109.382 42.2777 109.382 42.7269V42.9147H109.373Z" fill="#02070C"/>
<path d="M116.882 38.9536H117.667L119.237 44.8833L120.816 38.9536H121.896L123.482 44.8833L125.053 38.9536H125.846L123.973 45.8063H123L121.356 39.7704L119.744 45.8063H118.738L116.898 38.9536H116.882Z" fill="#02070C"/>
<path d="M128.275 45.8714C127.547 45.8714 127.04 45.7326 126.754 45.4467C126.468 45.1608 126.32 44.6708 126.32 43.9602V42.8086C126.32 42.098 126.468 41.5997 126.754 41.3139C127.04 41.028 127.547 40.8892 128.267 40.8892H128.602C129.33 40.8892 129.837 41.028 130.124 41.3139C130.41 41.5997 130.557 42.0898 130.557 42.8086V43.9602C130.557 44.6708 130.41 45.169 130.124 45.4467C129.837 45.7244 129.33 45.8714 128.611 45.8714H128.275ZM129.813 43.7968V42.9719C129.813 42.3593 129.731 41.9755 129.584 41.8039C129.429 41.6406 129.101 41.5507 128.602 41.5507H128.267C127.768 41.5507 127.449 41.6324 127.294 41.7958C127.138 41.9591 127.065 42.3512 127.065 42.9637V43.7887C127.065 44.4094 127.138 44.7933 127.294 44.9648C127.449 45.1282 127.768 45.2098 128.259 45.2098H128.594C129.093 45.2098 129.412 45.1282 129.576 44.9566C129.739 44.7851 129.813 44.4012 129.813 43.7887V43.7968Z" fill="#02070C"/>
<path d="M131.841 45.8061V40.9545H132.537V41.6161C132.635 41.3629 132.798 41.1832 133.011 41.0607C133.224 40.9463 133.51 40.8892 133.87 40.8892C134.401 40.8892 134.77 41.0198 134.982 41.273C135.195 41.5262 135.301 41.9755 135.301 42.6289V42.6697H134.581V42.5309C134.581 42.147 134.516 41.8856 134.393 41.7468C134.271 41.6161 134.042 41.5426 133.698 41.5426C133.297 41.5426 133.011 41.6569 132.831 41.8774C132.651 42.1061 132.561 42.4737 132.561 42.9882V45.8061H131.841Z" fill="#02070C"/>
<path d="M136.274 45.8063V38.9536H136.986V45.8063H136.274Z" fill="#02070C"/>
<path d="M141.705 45.0636C141.591 45.3495 141.411 45.5537 141.166 45.6844C140.92 45.815 140.593 45.8804 140.176 45.8804C139.481 45.8804 138.998 45.7334 138.712 45.4475C138.426 45.1616 138.287 44.6634 138.287 43.9692V42.8175C138.287 42.1151 138.426 41.6169 138.712 41.331C138.998 41.0451 139.489 40.8981 140.176 40.8981C140.577 40.8981 140.896 40.9553 141.125 41.0778C141.354 41.2003 141.542 41.3882 141.681 41.6577V38.9624H142.401V45.815H141.705V45.0718V45.0636ZM141.681 43.7813V42.989C141.681 42.4826 141.566 42.1151 141.329 41.8864C141.092 41.6577 140.716 41.5434 140.2 41.5434C139.726 41.5434 139.415 41.625 139.26 41.7966C139.104 41.9681 139.031 42.3601 139.031 42.9727V43.7976C139.031 44.4102 139.104 44.8022 139.26 44.9656C139.415 45.129 139.726 45.2188 140.2 45.2188C140.716 45.2188 141.092 45.1045 141.329 44.8758C141.566 44.6471 141.681 44.2795 141.681 43.7813Z" fill="#02070C"/>
<path d="M146.956 41.2162C146.956 40.3422 147.128 39.7297 147.464 39.3866C147.799 39.0436 148.396 38.8721 149.247 38.8721H150.048C150.891 38.8721 151.488 39.0191 151.831 39.3131C152.175 39.6072 152.346 40.1135 152.346 40.8241V41.1263H151.561V40.9385C151.561 40.4239 151.455 40.0645 151.242 39.8767C151.03 39.6888 150.613 39.5908 149.999 39.5908H149.467C149.05 39.5908 148.748 39.6153 148.56 39.6643C148.371 39.7133 148.216 39.8032 148.085 39.9175C147.962 40.0319 147.872 40.1871 147.823 40.3749C147.774 40.5628 147.75 40.9058 147.75 41.4122V43.3643C147.75 43.8625 147.774 44.2055 147.823 44.3934C147.872 44.5812 147.962 44.7364 148.085 44.8508C148.208 44.9733 148.363 45.055 148.543 45.104C148.723 45.153 149.026 45.1775 149.459 45.1775H149.991C150.621 45.1775 151.046 45.0795 151.25 44.8753C151.455 44.6711 151.561 44.2954 151.561 43.7318C151.561 43.642 151.561 43.5766 151.561 43.5358C151.561 43.4868 151.561 43.4459 151.561 43.4051H152.338V43.8543C152.338 44.6139 152.175 45.1448 151.839 45.4388C151.512 45.7329 150.907 45.8881 150.04 45.8881H149.238C148.388 45.8881 147.791 45.7165 147.455 45.3735C147.12 45.0305 146.948 44.4179 146.948 43.5439V41.2162H146.956Z" fill="#02070C"/>
<path d="M155.299 45.8714C154.571 45.8714 154.064 45.7326 153.778 45.4467C153.492 45.1608 153.344 44.6708 153.344 43.9602V42.8086C153.344 42.098 153.492 41.5997 153.778 41.3139C154.064 41.028 154.571 40.8892 155.291 40.8892H155.626C156.354 40.8892 156.861 41.028 157.148 41.3139C157.434 41.5997 157.581 42.0898 157.581 42.8086V43.9602C157.581 44.6708 157.434 45.169 157.148 45.4467C156.861 45.7244 156.354 45.8714 155.635 45.8714H155.299ZM156.837 43.7968V42.9719C156.837 42.3593 156.755 41.9755 156.608 41.8039C156.452 41.6406 156.125 41.5507 155.626 41.5507H155.291C154.792 41.5507 154.473 41.6324 154.318 41.7958C154.162 41.9591 154.089 42.3512 154.089 42.9637V43.7887C154.089 44.4094 154.162 44.7933 154.318 44.9648C154.473 45.1282 154.792 45.2098 155.283 45.2098H155.618C156.117 45.2098 156.436 45.1282 156.6 44.9566C156.763 44.7851 156.837 44.4012 156.837 43.7887V43.7968Z" fill="#02070C"/>
<path d="M158.98 45.8061V40.9545H159.683V41.6161C159.781 41.3711 159.953 41.1832 160.19 41.0688C160.427 40.9545 160.746 40.8892 161.131 40.8892C161.54 40.8892 161.867 40.9545 162.096 41.077C162.325 41.1995 162.505 41.4037 162.611 41.6896C162.75 41.4037 162.938 41.1995 163.167 41.077C163.396 40.9545 163.699 40.8892 164.075 40.8892C164.713 40.8892 165.155 41.0117 165.4 41.2649C165.646 41.5181 165.768 41.9673 165.768 42.6207V45.7979H165.049V42.8494C165.049 42.3103 164.975 41.9591 164.836 41.7876C164.697 41.6242 164.427 41.5344 164.018 41.5344C163.568 41.5344 163.241 41.6488 163.037 41.8774C162.832 42.1061 162.734 42.4737 162.734 42.9801V45.7979H162.039V42.5145C162.039 42.1306 161.965 41.8693 161.826 41.7386C161.687 41.5997 161.417 41.5344 161.024 41.5344C160.566 41.5344 160.223 41.6488 160.01 41.8856C159.798 42.1225 159.683 42.4819 159.683 42.9801V45.7979H158.963L158.98 45.8061Z" fill="#02070C"/>
<path d="M168.975 45.8714C168.247 45.8714 167.74 45.7326 167.453 45.4467C167.167 45.1608 167.02 44.6708 167.02 43.9602V42.8086C167.02 42.098 167.167 41.5997 167.453 41.3139C167.74 41.028 168.247 40.8892 168.966 40.8892H169.302C170.03 40.8892 170.537 41.028 170.823 41.3139C171.109 41.5997 171.257 42.0898 171.257 42.8086V43.5436H167.764C167.764 43.6008 167.764 43.6498 167.764 43.7152C167.764 43.7723 167.764 43.8622 167.764 43.9684C167.764 44.4666 167.846 44.8015 168.001 44.973C168.165 45.1445 168.484 45.2262 168.966 45.2262H169.302C169.735 45.2262 170.038 45.1608 170.21 45.0383C170.381 44.9158 170.48 44.6953 170.504 44.3849H171.248C171.208 44.9076 171.044 45.2915 170.741 45.5202C170.439 45.7571 169.964 45.8714 169.31 45.8714H168.975ZM167.772 42.9147H170.521V42.7269C170.521 42.2695 170.439 41.9673 170.275 41.8039C170.112 41.6406 169.793 41.5589 169.31 41.5589H168.975C168.492 41.5589 168.173 41.6406 168.018 41.8039C167.854 41.9673 167.78 42.2777 167.78 42.7269V42.9147H167.772Z" fill="#02070C"/>
<path d="M172.377 44.3687H173.105V44.483C173.105 44.7771 173.195 44.9894 173.383 45.0956C173.571 45.21 173.939 45.2671 174.495 45.2671C175.117 45.2671 175.502 45.21 175.649 45.0956C175.796 44.9813 175.861 44.7607 175.861 44.434C175.861 44.1073 175.804 43.9031 175.681 43.797C175.567 43.6908 175.264 43.6254 174.798 43.6009C174.626 43.5928 174.389 43.5846 174.087 43.5764C173.432 43.5601 173.048 43.5111 172.925 43.4458C172.737 43.3478 172.606 43.2089 172.532 43.0292C172.451 42.8577 172.418 42.6045 172.418 42.2778C172.418 41.7387 172.557 41.3793 172.827 41.1833C173.097 40.9955 173.702 40.8975 174.635 40.8975C175.354 40.8975 175.845 40.9873 176.107 41.167C176.36 41.3467 176.491 41.6652 176.491 42.1226H175.771V42.0736C175.771 41.8612 175.681 41.7142 175.493 41.6325C175.305 41.5509 174.937 41.51 174.381 41.51C173.825 41.51 173.506 41.559 173.359 41.6571C173.211 41.7551 173.138 41.9593 173.138 42.2778C173.138 42.4656 173.154 42.6045 173.179 42.678C173.203 42.7515 173.252 42.8169 173.326 42.8495C173.473 42.923 173.792 42.972 174.283 42.9802C174.405 42.9802 174.504 42.9802 174.577 42.9884C174.986 43.0047 175.297 43.021 175.534 43.0537C175.763 43.0782 175.927 43.1191 176.025 43.1599C176.238 43.2579 176.393 43.3968 176.483 43.5846C176.573 43.7725 176.622 44.0338 176.622 44.385C176.622 44.7362 176.581 45.0139 176.491 45.1936C176.401 45.3815 176.246 45.5367 176.009 45.6837C175.902 45.749 175.731 45.798 175.493 45.8307C175.256 45.8634 174.929 45.8715 174.504 45.8715C173.645 45.8715 173.072 45.7735 172.794 45.5775C172.516 45.3815 172.377 45.0221 172.377 44.4994V44.3687Z" fill="#02070C"/>
<path d="M180.401 39.6805V38.9536H185.546V39.6805H183.354V45.8063H182.593V39.6805H180.409H180.401Z" fill="#02070C"/>
<path d="M186.592 45.8714C185.865 45.8714 185.357 45.7326 185.071 45.4467C184.785 45.1608 184.638 44.6708 184.638 43.9602V42.8086C184.638 42.098 184.785 41.5997 185.071 41.3139C185.357 41.028 185.865 40.8892 186.584 40.8892H186.92C187.648 40.8892 188.155 41.028 188.441 41.3139C188.727 41.5997 188.874 42.0898 188.874 42.8086V43.9602C188.874 44.6708 188.727 45.169 188.441 45.4467C188.155 45.7244 187.648 45.8714 186.928 45.8714H186.592ZM188.13 43.7968V42.9719C188.13 42.3593 188.048 41.9755 187.901 41.8039C187.746 41.6406 187.419 41.5507 186.92 41.5507H186.584C186.085 41.5507 185.766 41.6324 185.611 41.7958C185.456 41.9591 185.382 42.3512 185.382 42.9637V43.7887C185.382 44.4094 185.456 44.7933 185.611 44.9648C185.766 45.1282 186.085 45.2098 186.576 45.2098H186.911C187.41 45.2098 187.729 45.1282 187.893 44.9566C188.057 44.7851 188.13 44.4012 188.13 43.7887V43.7968Z" fill="#02070C"/>
<path d="M194.224 40.9629V45.7573C194.224 46.4679 194.085 46.9661 193.806 47.2438C193.528 47.5215 193.038 47.6686 192.334 47.6686H191.999C191.369 47.6686 190.903 47.5542 190.608 47.3255C190.314 47.0968 190.15 46.7129 190.109 46.182H190.846C190.878 46.4924 190.976 46.7048 191.132 46.8273C191.295 46.9498 191.582 47.007 192.007 47.007H192.326C192.751 47.007 193.054 46.9416 193.234 46.8028C193.414 46.6639 193.504 46.4352 193.504 46.1249V45.1203C193.365 45.3898 193.185 45.5776 192.948 45.7002C192.71 45.8145 192.391 45.8798 191.991 45.8798C191.295 45.8798 190.813 45.741 190.527 45.4551C190.24 45.1693 190.101 44.6792 190.101 43.9686V42.817C190.101 42.1146 190.24 41.6163 190.527 41.3305C190.813 41.0446 191.295 40.9058 191.991 40.9058C192.408 40.9058 192.735 40.9711 192.98 41.1018C193.226 41.2325 193.414 41.4448 193.528 41.7225V40.9711H194.215L194.224 40.9629ZM193.512 43.7808V42.9885C193.512 42.4821 193.397 42.1146 193.16 41.8859C192.923 41.6572 192.547 41.5428 192.032 41.5428C191.565 41.5428 191.246 41.6245 191.091 41.796C190.936 41.9676 190.854 42.3596 190.854 42.964V43.7889C190.854 44.3933 190.936 44.7854 191.091 44.9569C191.246 45.1284 191.565 45.2101 192.032 45.2101C192.555 45.2101 192.931 45.0958 193.16 44.8671C193.397 44.6384 193.512 44.2708 193.512 43.7726V43.7808Z" fill="#02070C"/>
<path d="M197.471 45.8714C196.743 45.8714 196.236 45.7326 195.949 45.4467C195.663 45.1608 195.516 44.6708 195.516 43.9602V42.8086C195.516 42.098 195.663 41.5997 195.949 41.3139C196.236 41.028 196.743 40.8892 197.463 40.8892H197.798C198.526 40.8892 199.033 41.028 199.319 41.3139C199.605 41.5997 199.753 42.0898 199.753 42.8086V43.5436H196.26C196.26 43.6008 196.26 43.6498 196.26 43.7152C196.26 43.7723 196.26 43.8622 196.26 43.9684C196.26 44.4666 196.342 44.8015 196.497 44.973C196.661 45.1445 196.98 45.2262 197.463 45.2262H197.798C198.231 45.2262 198.534 45.1608 198.706 45.0383C198.878 44.9158 198.976 44.6953 199 44.3849H199.745C199.704 44.9076 199.54 45.2915 199.237 45.5202C198.935 45.7571 198.46 45.8714 197.806 45.8714H197.471ZM196.268 42.9147H199.017V42.7269C199.017 42.2695 198.935 41.9673 198.771 41.8039C198.608 41.6406 198.289 41.5589 197.806 41.5589H197.471C196.988 41.5589 196.669 41.6406 196.514 41.8039C196.35 41.9673 196.277 42.2777 196.277 42.7269V42.9147H196.268Z" fill="#02070C"/>
<path d="M200.571 41.5757V40.9631H201.168V39.8687H201.887V40.9631H204.268V41.5757H201.887V44.2465C201.887 44.6304 201.953 44.8836 202.076 45.0224C202.198 45.1613 202.435 45.2266 202.787 45.2266C203.139 45.2266 203.368 45.1613 203.491 45.0306C203.613 44.8999 203.671 44.6385 203.671 44.2465V44.1076H204.398V44.1485C204.398 44.8264 204.284 45.292 204.063 45.5288C203.834 45.7657 203.368 45.88 202.656 45.88C202.1 45.88 201.716 45.7575 201.495 45.5043C201.282 45.2511 201.168 44.8019 201.168 44.1485V41.5757H200.571Z" fill="#02070C"/>
<path d="M205.707 45.8063V38.9536H206.394V41.6244C206.509 41.3794 206.697 41.1915 206.958 41.0772C207.22 40.9629 207.556 40.8975 207.981 40.8975C208.619 40.8975 209.06 41.0282 209.314 41.2814C209.568 41.5346 209.698 41.992 209.698 42.629V45.8063H208.979V42.7842C208.979 42.2778 208.905 41.943 208.758 41.7878C208.611 41.6244 208.316 41.5509 207.891 41.5509C207.384 41.5509 207.016 41.6653 206.778 41.894C206.541 42.1227 206.427 42.4902 206.427 42.9966V45.8144H205.715L205.707 45.8063Z" fill="#02070C"/>
<path d="M212.905 45.8714C212.177 45.8714 211.67 45.7326 211.383 45.4467C211.097 45.1608 210.95 44.6708 210.95 43.9602V42.8086C210.95 42.098 211.097 41.5997 211.383 41.3139C211.67 41.028 212.177 40.8892 212.897 40.8892H213.232C213.96 40.8892 214.467 41.028 214.753 41.3139C215.04 41.5997 215.187 42.0898 215.187 42.8086V43.5436H211.694C211.694 43.6008 211.694 43.6498 211.694 43.7152C211.694 43.7723 211.694 43.8622 211.694 43.9684C211.694 44.4666 211.776 44.8015 211.931 44.973C212.095 45.1445 212.414 45.2262 212.897 45.2262H213.232C213.665 45.2262 213.968 45.1608 214.14 45.0383C214.312 44.9158 214.41 44.6953 214.434 44.3849H215.179C215.138 44.9076 214.974 45.2915 214.671 45.5202C214.369 45.7571 213.894 45.8714 213.24 45.8714H212.905ZM211.694 42.9147H214.442V42.7269C214.442 42.2695 214.361 41.9673 214.197 41.8039C214.033 41.6406 213.715 41.5589 213.232 41.5589H212.897C212.414 41.5589 212.095 41.6406 211.94 41.8039C211.776 41.9673 211.702 42.2777 211.702 42.7269V42.9147H211.694Z" fill="#02070C"/>
<path d="M216.471 45.8061V40.9545H217.166V41.6161C217.264 41.3629 217.428 41.1832 217.64 41.0607C217.853 40.9463 218.139 40.8892 218.499 40.8892C219.031 40.8892 219.399 41.0198 219.612 41.273C219.824 41.5262 219.931 41.9755 219.931 42.6289V42.6697H219.211V42.5309C219.211 42.147 219.145 41.8856 219.023 41.7468C218.9 41.6161 218.671 41.5426 218.328 41.5426C217.927 41.5426 217.64 41.6569 217.461 41.8774C217.281 42.1061 217.191 42.4737 217.191 42.9882V45.8061H216.471Z" fill="#02070C"/>
<path fill-rule="evenodd" clip-rule="evenodd" d="M45.7479 4.63339C43.9158 2.80384 40.9222 2.80384 39.0819 4.63339C35.8511 7.8596 32.6204 11.0858 29.3978 14.3039C26.1752 11.0858 27.6229 12.5315 24.4004 9.31344C22.5682 7.48389 19.5665 7.48389 17.7344 9.31344C15.9023 11.143 15.9023 14.1323 17.7344 15.9701C20.8425 19.0738 19.2884 17.5219 22.3965 20.6256C26.2489 24.4726 32.5386 24.4726 36.3991 20.6256C39.5154 17.5137 42.6316 14.4019 45.7479 11.29C47.58 9.46046 47.58 6.46294 45.7479 4.63339Z" fill="#4376BA"/>
<path fill-rule="evenodd" clip-rule="evenodd" d="M29.3979 14.3039C32.6286 11.0776 35.8594 7.85144 39.082 4.63339C40.9141 2.80384 43.9158 2.80384 45.7479 4.63339C47.5801 6.46294 47.5801 9.46046 45.7479 11.29C44.1857 12.85 42.6235 14.41 41.0613 15.9701C39.5073 17.5219 37.9532 19.0738 36.3992 20.6256C32.5468 24.4726 26.2571 24.4726 22.3965 20.6256C20.8425 19.0738 19.2885 17.5219 17.7344 15.9701C20.6626 18.8941 26.3062 17.3912 29.3979 14.3039Z" fill="#479FD7"/>
<path fill-rule="evenodd" clip-rule="evenodd" d="M25.8154 1.48855C27.8029 -0.496183 31.0173 -0.496183 33.0048 1.48855C34.9923 3.47328 34.9923 6.68316 33.0048 8.66789C31.0173 10.6526 27.8029 10.6526 25.8154 8.66789C23.8278 6.68316 23.8278 3.47328 25.8154 1.48855Z" fill="#4376BA"/>
<path fill-rule="evenodd" clip-rule="evenodd" d="M54.1887 45.6842C56.0209 43.8546 56.0209 40.8571 54.1887 39.0275C50.958 35.8013 47.7272 32.5751 44.5046 29.3571C47.7272 26.139 46.2795 27.5847 49.5021 24.3667C51.3342 22.5371 51.3342 19.5396 49.5021 17.7101C47.67 15.8805 44.6682 15.8805 42.8361 17.7101C39.728 20.8137 41.2821 19.2619 38.174 22.3656C34.3216 26.2125 34.3216 32.4934 38.174 36.3486C41.2903 39.4604 44.4065 42.5723 47.5227 45.6842C49.3549 47.5137 52.3566 47.5137 54.1887 45.6842Z" fill="#C73427"/>
<path fill-rule="evenodd" clip-rule="evenodd" d="M44.4965 29.357C47.7272 32.5832 50.958 35.8094 54.1806 39.0275C56.0127 40.857 56.0127 43.8545 54.1806 45.6841C52.3484 47.5136 49.3467 47.5136 47.5146 45.6841C45.9524 44.1241 44.3901 42.564 42.8279 41.004C41.2739 39.4522 39.7199 37.9003 38.1658 36.3485C34.3135 32.5015 34.3135 26.2206 38.1658 22.3655C39.7199 20.8137 41.2739 19.2618 42.8279 17.71C39.8998 20.634 41.4048 26.2696 44.4965 29.357Z" fill="#EF4923"/>
<path fill-rule="evenodd" clip-rule="evenodd" d="M57.3295 25.7874C59.317 27.7721 59.317 30.982 57.3295 32.9667C55.342 34.9515 52.1276 34.9515 50.1401 32.9667C48.1525 30.982 48.1525 27.7721 50.1401 25.7874C52.1276 23.8026 55.342 23.8026 57.3295 25.7874Z" fill="#C73427"/>
<path fill-rule="evenodd" clip-rule="evenodd" d="M13.0723 54.1128C14.9044 55.9423 17.9061 55.9423 19.7383 54.1128C22.969 50.8866 26.1998 47.6603 29.4223 44.4423C32.6449 47.6603 31.1972 46.2147 34.4198 49.4327C36.2519 51.2623 39.2537 51.2623 41.0858 49.4327C42.9179 47.6032 42.9179 44.6057 41.0858 42.7761C37.9777 39.6724 39.5317 41.2243 36.4237 38.1206C32.5713 34.2736 26.2816 34.2736 22.421 38.1206C19.3048 41.2324 16.1885 44.3443 13.0723 47.4562C11.2402 49.2857 11.2402 52.2832 13.0723 54.1128Z" fill="#F48020"/>
<path fill-rule="evenodd" clip-rule="evenodd" d="M29.4223 44.4423C26.1916 47.6685 22.9608 50.8947 19.7383 54.1128C17.9061 55.9423 14.9044 55.9423 13.0723 54.1128C11.2402 52.2832 11.2402 49.2857 13.0723 47.4562C14.6345 45.8961 16.1967 44.3361 17.7589 42.7761C19.3129 41.2243 20.867 39.6724 22.421 38.1206C26.2734 34.2736 32.5631 34.2736 36.4237 38.1206C37.9777 39.6724 39.5317 41.2243 41.0858 42.7761C38.1577 39.8521 32.5141 41.3549 29.4223 44.4423Z" fill="#FACF1E"/>
<path fill-rule="evenodd" clip-rule="evenodd" d="M33.0048 57.2577C31.0173 59.2425 27.8029 59.2425 25.8154 57.2577C23.8278 55.273 23.8278 52.0631 25.8154 50.0784C27.8029 48.0937 31.0173 48.0937 33.0048 50.0784C34.9923 52.0631 34.9923 55.273 33.0048 57.2577Z" fill="#F48020"/>
<path fill-rule="evenodd" clip-rule="evenodd" d="M4.6396 13.0626C2.80747 14.8921 2.80747 17.8897 4.6396 19.7192C7.87035 22.9454 11.1011 26.1716 14.3237 29.3897C11.1011 32.6077 12.5488 31.162 9.32624 34.3801C7.49411 36.2096 7.49411 39.2071 9.32624 41.0367C11.1584 42.8662 14.1601 42.8662 15.9922 41.0367C19.1003 37.933 17.5463 39.4848 20.6543 36.3812C24.5067 32.5342 24.5067 26.2533 20.6543 22.3982C17.5381 19.2863 14.4218 16.1745 11.3056 13.0626C9.47346 11.233 6.47172 11.233 4.6396 13.0626Z" fill="#008560"/>
<path fill-rule="evenodd" clip-rule="evenodd" d="M14.3237 29.3897C11.0929 26.1635 7.86217 22.9372 4.6396 19.7192C2.80747 17.8897 2.80747 14.8921 4.6396 13.0626C6.47172 11.233 9.47346 11.233 11.3056 13.0626C12.8678 14.6226 14.43 16.1826 15.9922 17.7426C17.5463 19.2945 19.1003 20.8463 20.6543 22.3982C24.5067 26.2451 24.5067 32.526 20.6543 36.3812C19.1003 37.933 17.5463 39.4848 15.9922 41.0367C18.9204 38.1127 17.4154 32.477 14.3237 29.3897Z" fill="#06B079"/>
<path fill-rule="evenodd" clip-rule="evenodd" d="M1.49065 32.9584C-0.496882 30.9737 -0.496882 27.7638 1.49065 25.7791C3.47817 23.7943 6.69257 23.7943 8.6801 25.7791C10.6676 27.7638 10.6676 30.9737 8.6801 32.9584C6.69257 34.9432 3.47817 34.9432 1.49065 32.9584Z" fill="#008560"/>
<path d="M26.4697 40.8644C26.2079 40.7991 25.9462 40.9053 25.799 41.1176C24.0077 40.5459 22.3719 39.5495 21.0224 38.21C18.7813 35.972 17.5544 32.999 17.5544 29.8218C17.5544 27.8698 18.0288 25.9504 18.9367 24.2515C19.4847 23.2224 20.1881 22.2668 21.0305 21.4337C22.2165 20.2494 23.5906 19.3591 25.1201 18.7629C25.2755 18.9589 25.5454 19.0487 25.8071 18.9752C26.1425 18.869 26.3306 18.5178 26.2325 18.1748C26.1261 17.8399 25.7744 17.6521 25.4309 17.7501C25.1528 17.8317 24.9811 18.0849 24.9811 18.3626C23.3861 18.9752 21.963 19.9063 20.7279 21.1315C19.8609 21.9972 19.133 22.9773 18.5604 24.0473C17.628 25.8033 17.1291 27.7962 17.1291 29.8137C17.1291 33.097 18.405 36.1844 20.7279 38.504C22.1265 39.9007 23.8278 40.9298 25.6926 41.5179C25.709 41.7874 25.8971 42.0324 26.1752 42.0978C26.5187 42.1794 26.8623 41.9752 26.9522 41.6322C27.034 41.2892 26.8295 40.9461 26.486 40.8563L26.4697 40.8644Z" fill="white"/>
<path d="M41.3394 31.7663C40.9959 31.701 40.6524 31.9215 40.5869 32.2646C40.5297 32.5341 40.6524 32.7873 40.8732 32.9261C40.3334 34.9109 39.2864 36.7323 37.8142 38.2024C35.8757 40.1382 33.3484 41.3306 30.6411 41.6083C30.543 41.3796 30.3058 41.2244 30.0359 41.2244C29.6842 41.2326 29.4061 41.5267 29.4142 41.8779C29.4224 42.2291 29.7169 42.5068 30.0686 42.4986C30.3548 42.4986 30.592 42.2944 30.6656 42.0249C33.4793 41.739 36.1048 40.5057 38.1087 38.4965C39.6381 36.9691 40.726 35.0824 41.2822 33.016C41.5521 32.9833 41.7811 32.7873 41.8383 32.5096C41.9119 32.1666 41.6829 31.8235 41.3394 31.7582V31.7663Z" fill="white"/>
<path d="M30.0359 18.4119C30.3058 18.4119 30.5348 18.2649 30.6411 18.028C33.3484 18.3057 35.8757 19.4982 37.8142 21.4339C39.2537 22.8714 40.2843 24.6274 40.8323 26.555C40.6196 26.6939 40.497 26.9552 40.5542 27.2248C40.6278 27.5678 40.9713 27.7883 41.3149 27.7148C41.6584 27.6413 41.8792 27.2983 41.8056 26.9552C41.7484 26.6775 41.5112 26.4815 41.2413 26.457C40.6769 24.4559 39.6054 22.6264 38.1087 21.1317C36.0966 19.1225 33.4793 17.8892 30.6656 17.6033C30.592 17.3419 30.3548 17.1377 30.0686 17.1296C29.7169 17.1214 29.4224 17.3991 29.4142 17.7503C29.4061 18.1015 29.6842 18.3956 30.0359 18.4037V18.4119Z" fill="white"/>
<path d="M19.313 27.0617C19.0676 27.952 18.9449 28.8831 18.9449 29.8224C18.9449 30.3043 18.9776 30.7943 19.0431 31.2762C18.7977 31.4069 18.6586 31.6928 18.7241 31.9786C18.8059 32.3217 19.1494 32.534 19.4929 32.4605C19.8364 32.3788 20.0491 32.0358 19.9755 31.6928C19.9182 31.4396 19.7056 31.2517 19.4684 31.2109C19.4029 30.7535 19.3702 30.2961 19.3702 29.8305C19.3702 28.9321 19.4847 28.0418 19.7219 27.1842C20.8997 22.839 24.8911 19.8007 29.4142 19.8007C33.4138 19.8007 36.939 22.0876 38.5666 25.6732C38.3785 25.8447 38.2967 26.1143 38.3867 26.3675C38.5094 26.7023 38.8693 26.8739 39.2046 26.7513C39.54 26.6288 39.7117 26.2695 39.589 25.9346C39.4909 25.665 39.2291 25.5017 38.9592 25.518C38.1904 23.811 36.9799 22.349 35.4259 21.2627C33.6592 20.0294 31.5817 19.376 29.4142 19.376C24.6948 19.376 20.5398 22.545 19.3048 27.078L19.313 27.0617Z" fill="white"/>
<path d="M21.2678 34.9434C21.0878 34.6412 20.6952 34.535 20.3926 34.7147C20.09 34.8944 19.9837 35.2864 20.1636 35.5886C20.3108 35.8418 20.6053 35.948 20.867 35.8827C22.83 38.6433 25.979 40.2768 29.406 40.2768C29.8395 40.2768 30.273 40.2442 30.6983 40.1952C30.8292 40.4402 31.1073 40.579 31.3935 40.5219C31.7371 40.4484 31.9579 40.1053 31.8843 39.7623C31.8107 39.4192 31.4671 39.1987 31.1236 39.2722C30.8619 39.3294 30.6738 39.5336 30.6329 39.7786C30.2239 39.8276 29.815 39.8521 29.406 39.8521C26.118 39.8521 23.0999 38.2921 21.2187 35.6458C21.3659 35.4498 21.3905 35.1639 21.2596 34.9352L21.2678 34.9434Z" fill="white"/>
<path d="M36.9553 37.6795C37.2089 37.4345 37.2089 37.0261 36.9553 36.7729C36.71 36.5197 36.301 36.5197 36.0475 36.7729C35.8593 36.9608 35.8103 37.2466 35.9084 37.4753C35.6549 37.6958 35.385 37.9 35.1069 38.0879C34.9106 37.9327 34.6243 37.9 34.3871 38.0307C34.0845 38.2104 33.9781 38.5943 34.1499 38.9047C34.3298 39.2069 34.7143 39.313 35.0251 39.1415C35.2704 39.0027 35.385 38.7168 35.3277 38.4473C35.6303 38.2431 35.9166 38.0225 36.1947 37.7857C36.4319 37.9082 36.7427 37.8755 36.939 37.6795H36.9553Z" fill="white"/>
<path d="M40.2597 28.7607C40.2188 28.4095 39.8998 28.1563 39.5481 28.2053C39.1964 28.2461 38.9429 28.5647 38.9919 28.9159C39.0247 29.1854 39.2128 29.3896 39.4582 29.4549C39.4582 29.5775 39.4663 29.7 39.4663 29.8307C39.4663 31.2518 39.1801 32.624 38.6075 33.8981C38.3622 33.8736 38.1086 33.988 37.9777 34.2248C37.806 34.5352 37.9205 34.9191 38.2313 35.0906C38.5421 35.2621 38.9265 35.1478 39.0983 34.8374C39.2373 34.5842 39.1882 34.2738 38.9919 34.0778C39.5808 32.7465 39.8917 31.2927 39.8917 29.8225C39.8917 29.6918 39.8917 29.553 39.8835 29.4141C40.137 29.3079 40.3006 29.0466 40.2679 28.7525L40.2597 28.7607Z" fill="white"/>
<path d="M38.1985 30.4844C38.2149 30.1332 37.9368 29.831 37.5851 29.8228C37.2334 29.8064 36.9307 30.0841 36.9226 30.4354C36.9144 30.6967 37.0616 30.9336 37.2824 31.0398C36.7099 35.0174 33.4137 37.9496 29.3814 37.9496C24.9892 37.9496 21.4231 34.3068 21.4231 29.831C21.4231 25.8043 24.3431 22.3984 28.1709 21.8022C28.2772 22.0227 28.5144 22.1697 28.7762 22.1616C29.1279 22.1452 29.4059 21.8512 29.3896 21.5C29.3732 21.1488 29.0788 20.8711 28.7271 20.8874C28.4326 20.9037 28.1954 21.1079 28.13 21.3856C26.2488 21.6715 24.5312 22.5863 23.2389 24.0156C21.7994 25.6001 21.006 27.6665 21.006 29.831C21.006 32.1097 21.8648 34.2496 23.4352 35.8587C25.0138 37.484 27.1321 38.3743 29.3896 38.3743C31.647 38.3743 33.61 37.5494 35.164 36.0628C36.5463 34.7397 37.4378 32.9918 37.7078 31.0888C37.9777 31.0234 38.1903 30.7866 38.1985 30.4925V30.4844Z" fill="white"/>
<path d="M237.9 11.3959C239.608 11.3959 240.992 10.0137 240.992 8.30855C240.992 6.60345 239.608 5.22119 237.9 5.22119C236.193 5.22119 234.808 6.60345 234.808 8.30855C234.808 10.0137 236.193 11.3959 237.9 11.3959Z" stroke="white" stroke-width="0.51" stroke-miterlimit="10"/>
<path d="M239.479 10.0566H238.775L238.309 9.12554C238.219 8.94585 238.096 8.807 237.794 8.807H237.311V10.0566H236.673V6.55273H237.998C238.808 6.55273 239.323 6.90394 239.323 7.63903C239.323 8.14542 239.045 8.48029 238.677 8.65181C238.8 8.71715 238.873 8.8315 238.939 8.96218L239.487 10.0485L239.479 10.0566ZM237.974 8.25977C238.391 8.25977 238.677 8.09642 238.677 7.6717C238.677 7.27965 238.399 7.1163 237.974 7.1163H237.303V8.25977H237.974Z" fill="white"/>
</svg>
