<svg width="64" height="64" viewBox="0 0 64 64" fill="none" xmlns="http://www.w3.org/2000/svg">
<circle opacity="0.5" cx="32" cy="32" r="32" fill="white" fill-opacity="0.32"/>
<path d="M43 23H39.535L37.8312 20.445C37.74 20.3082 37.6164 20.196 37.4714 20.1184C37.3264 20.0408 37.1645 20.0001 37 20H29C28.8355 20.0001 28.6736 20.0408 28.5286 20.1184C28.3836 20.196 28.26 20.3082 28.1687 20.445L26.4638 23H23C22.2044 23 21.4413 23.3161 20.8787 23.8787C20.3161 24.4413 20 25.2044 20 26V40C20 40.7957 20.3161 41.5587 20.8787 42.1213C21.4413 42.6839 22.2044 43 23 43H43C43.7957 43 44.5587 42.6839 45.1213 42.1213C45.6839 41.5587 46 40.7957 46 40V26C46 25.2044 45.6839 24.4413 45.1213 23.8787C44.5587 23.3161 43.7957 23 43 23ZM44 40C44 40.2652 43.8946 40.5196 43.7071 40.7071C43.5196 40.8946 43.2652 41 43 41H23C22.7348 41 22.4804 40.8946 22.2929 40.7071C22.1054 40.5196 22 40.2652 22 40V26C22 25.7348 22.1054 25.4804 22.2929 25.2929C22.4804 25.1054 22.7348 25 23 25H27C27.1647 25.0001 27.3268 24.9595 27.4721 24.8819C27.6173 24.8043 27.7411 24.692 27.8325 24.555L29.535 22H36.4638L38.1675 24.555C38.2589 24.692 38.3827 24.8043 38.5279 24.8819C38.6732 24.9595 38.8353 25.0001 39 25H43C43.2652 25 43.5196 25.1054 43.7071 25.2929C43.8946 25.4804 44 25.7348 44 26V40ZM33 27C31.9122 27 30.8488 27.3226 29.9444 27.9269C29.0399 28.5313 28.3349 29.3902 27.9187 30.3952C27.5024 31.4002 27.3935 32.5061 27.6057 33.573C27.8179 34.6399 28.3417 35.6199 29.1109 36.3891C29.8801 37.1583 30.8601 37.6821 31.927 37.8943C32.9939 38.1065 34.0998 37.9976 35.1048 37.5813C36.1098 37.1651 36.9687 36.4601 37.5731 35.5556C38.1774 34.6512 38.5 33.5878 38.5 32.5C38.4983 31.0418 37.9184 29.6438 36.8873 28.6127C35.8562 27.5816 34.4582 27.0017 33 27ZM33 36C32.3078 36 31.6311 35.7947 31.0555 35.4101C30.4799 35.0256 30.0313 34.4789 29.7664 33.8394C29.5015 33.1999 29.4322 32.4961 29.5673 31.8172C29.7023 31.1383 30.0356 30.5146 30.5251 30.0251C31.0146 29.5356 31.6383 29.2023 32.3172 29.0673C32.9961 28.9322 33.6999 29.0015 34.3394 29.2664C34.9789 29.5313 35.5256 29.9799 35.9101 30.5555C36.2947 31.1311 36.5 31.8078 36.5 32.5C36.5 33.4283 36.1313 34.3185 35.4749 34.9749C34.8185 35.6313 33.9283 36 33 36Z" fill="white"/>
</svg>
