<svg width="65" height="64" viewBox="0 0 65 64" fill="none" xmlns="http://www.w3.org/2000/svg">
<circle opacity="0.5" cx="32.4492" cy="32" r="32" fill="white" fill-opacity="0.32"/>
<path d="M35 32C35 32.2652 34.8946 32.5196 34.7071 32.7071C34.5196 32.8946 34.2652 33 34 33H31.5V35.5C31.5 35.7652 31.3946 36.0196 31.2071 36.2071C31.0196 36.3946 30.7652 36.5 30.5 36.5C30.2348 36.5 29.9804 36.3946 29.7929 36.2071C29.6054 36.0196 29.5 35.7652 29.5 35.5V33H27C26.7348 33 26.4804 32.8946 26.2929 32.7071C26.1054 32.5196 26 32.2652 26 32C26 31.7348 26.1054 31.4804 26.2929 31.2929C26.4804 31.1054 26.7348 31 27 31H29.5V28.5C29.5 28.2348 29.6054 27.9804 29.7929 27.7929C29.9804 27.6054 30.2348 27.5 30.5 27.5C30.7652 27.5 31.0196 27.6054 31.2071 27.7929C31.3946 27.9804 31.5 28.2348 31.5 28.5V31H34C34.2652 31 34.5196 31.1054 34.7071 31.2929C34.8946 31.4804 35 31.7348 35 32ZM44 26V38C44 38.7956 43.6839 39.5587 43.1213 40.1213C42.5587 40.6839 41.7957 41 41 41H20C19.2044 41 18.4413 40.6839 17.8787 40.1213C17.3161 39.5587 17 38.7956 17 38V26C17 25.2044 17.3161 24.4413 17.8787 23.8787C18.4413 23.3161 19.2044 23 20 23H41C41.7957 23 42.5587 23.3161 43.1213 23.8787C43.6839 24.4413 44 25.2044 44 26ZM42 26C42 25.7348 41.8946 25.4804 41.7071 25.2929C41.5196 25.1054 41.2652 25 41 25H20C19.7348 25 19.4804 25.1054 19.2929 25.2929C19.1054 25.4804 19 25.7348 19 26V38C19 38.2652 19.1054 38.5196 19.2929 38.7071C19.4804 38.8946 19.7348 39 20 39H41C41.2652 39 41.5196 38.8946 41.7071 38.7071C41.8946 38.5196 42 38.2652 42 38V26ZM47 27C46.7348 27 46.4804 27.1054 46.2929 27.2929C46.1054 27.4804 46 27.7348 46 28V36C46 36.2652 46.1054 36.5196 46.2929 36.7071C46.4804 36.8946 46.7348 37 47 37C47.2652 37 47.5196 36.8946 47.7071 36.7071C47.8946 36.5196 48 36.2652 48 36V28C48 27.7348 47.8946 27.4804 47.7071 27.2929C47.5196 27.1054 47.2652 27 47 27Z" fill="white"/>
</svg>
