<svg width="65" height="64" viewBox="0 0 65 64" fill="none" xmlns="http://www.w3.org/2000/svg">
<circle opacity="0.5" cx="32.4492" cy="32" r="32" fill="white" fill-opacity="0.32"/>
<path d="M44 22H20C19.4696 22 18.9609 22.2107 18.5858 22.5858C18.2107 22.9609 18 23.4696 18 24V27C18 27.5304 18.2107 28.0391 18.5858 28.4142C18.9609 28.7893 19.4696 29 20 29V40C20 40.5304 20.2107 41.0391 20.5858 41.4142C20.9609 41.7893 21.4696 42 22 42H42C42.5304 42 43.0391 41.7893 43.4142 41.4142C43.7893 41.0391 44 40.5304 44 40V29C44.5304 29 45.0391 28.7893 45.4142 28.4142C45.7893 28.0391 46 27.5304 46 27V24C46 23.4696 45.7893 22.9609 45.4142 22.5858C45.0391 22.2107 44.5304 22 44 22ZM42 40H22V29H42V40ZM44 27H20V24H44V27ZM28 33C28 32.7348 28.1054 32.4804 28.2929 32.2929C28.4804 32.1054 28.7348 32 29 32H35C35.2652 32 35.5196 32.1054 35.7071 32.2929C35.8946 32.4804 36 32.7348 36 33C36 33.2652 35.8946 33.5196 35.7071 33.7071C35.5196 33.8946 35.2652 34 35 34H29C28.7348 34 28.4804 33.8946 28.2929 33.7071C28.1054 33.5196 28 33.2652 28 33Z" fill="white"/>
</svg>
