<svg width="65" height="64" viewBox="0 0 65 64" fill="none" xmlns="http://www.w3.org/2000/svg">
<circle opacity="0.5" cx="32.4414" cy="32" r="32" fill="white" fill-opacity="0.32"/>
<path d="M31.9976 19C29.7532 18.9995 27.5469 19.5801 25.5934 20.6853C23.6399 21.7905 22.0059 23.3826 20.8503 25.3066C19.6947 27.2307 19.0569 29.4212 18.9991 31.6648C18.9412 33.9085 19.4652 36.1289 20.5201 38.11L19.1013 42.3662C18.9838 42.7186 18.9668 43.0968 19.0521 43.4583C19.1374 43.8199 19.3217 44.1505 19.5844 44.4132C19.8471 44.6759 20.1777 44.8602 20.5392 44.9455C20.9008 45.0308 21.2789 45.0138 21.6313 44.8963L25.8876 43.4775C27.6311 44.4048 29.5629 44.9228 31.5364 44.992C33.5099 45.0613 35.4733 44.68 37.2774 43.8772C39.0816 43.0743 40.6792 41.871 41.9489 40.3586C43.2185 38.8462 44.127 37.0644 44.6052 35.1484C45.0835 33.2325 45.119 31.2328 44.709 29.301C44.299 27.3693 43.4544 25.5564 42.2391 23.9999C41.0239 22.4434 39.47 21.1842 37.6955 20.3178C35.9209 19.4515 33.9723 19.0008 31.9976 19ZM31.9976 43C30.0638 43.0013 28.164 42.4921 26.4901 41.5238C26.3675 41.4527 26.2313 41.4085 26.0903 41.394C25.9494 41.3796 25.807 41.3953 25.6726 41.44L20.9976 43L22.5563 38.325C22.6013 38.1907 22.6172 38.0483 22.6029 37.9074C22.5887 37.7665 22.5447 37.6301 22.4738 37.5075C21.2613 35.4111 20.7745 32.9732 21.0889 30.572C21.4033 28.1707 22.5013 25.9403 24.2127 24.2267C25.9241 22.5132 28.1531 21.4123 30.554 21.0949C32.9548 20.7775 35.3934 21.2612 37.4913 22.4711C39.5891 23.681 41.2291 25.5494 42.1568 27.7864C43.0844 30.0235 43.2479 32.5042 42.6219 34.8436C41.9958 37.1831 40.6152 39.2505 38.6943 40.7253C36.7733 42.2 34.4194 42.9996 31.9976 43Z" fill="white"/>
</svg>
