<svg width="23" height="23" viewBox="0 0 23 23" fill="none" xmlns="http://www.w3.org/2000/svg">
<path d="M22.132 9.50051L12.7501 9.50006C12.3358 9.50006 12 9.83581 12 10.2501V13.247C12 13.6612 12.3358 13.9971 12.75 13.9971H18.0334C17.4548 15.4984 16.375 16.7557 14.9974 17.5546L17.2502 21.4542C20.864 19.3643 23.0005 15.6974 23.0005 11.5925C23.0005 11.008 22.9574 10.5902 22.8712 10.1198C22.8057 9.76231 22.4954 9.50051 22.132 9.50051Z" fill="#167EE6"/>
<path d="M11.4996 18.5C8.91401 18.5 6.65685 17.0874 5.44458 14.997L1.54492 17.2446C3.52943 20.6839 7.24706 23 11.4996 23C13.5857 23 15.5541 22.4383 17.2498 21.4595V21.4542L14.997 17.5545C13.9665 18.1521 12.7741 18.5 11.4996 18.5Z" fill="#12B347"/>
<path d="M17.2503 21.4595V21.4542L14.9975 17.5545C13.967 18.1521 12.7746 18.5 11.5 18.5V23C13.5861 23 15.5546 22.4383 17.2503 21.4595Z" fill="#0F993E"/>
<path d="M4.5002 11.5001C4.5002 10.2257 4.848 9.03343 5.44553 8.00305L1.54587 5.75543C0.561638 7.44571 0 9.4087 0 11.5001C0 13.5915 0.561638 15.5545 1.54587 17.2447L5.44553 14.9971C4.848 13.9667 4.5002 12.7745 4.5002 11.5001Z" fill="#FFD500"/>
<path d="M11.4996 4.5C13.1856 4.5 14.7343 5.09908 15.944 6.09558C16.2424 6.3414 16.6761 6.32365 16.9495 6.0503L19.073 3.92685C19.3832 3.61671 19.3611 3.10904 19.0298 2.82163C17.003 1.06344 14.366 0 11.4996 0C7.24706 0 3.52943 2.31604 1.54492 5.75535L5.44458 8.00297C6.65685 5.91262 8.91401 4.5 11.4996 4.5Z" fill="#FF4B26"/>
<path d="M15.9444 6.09558C16.2428 6.3414 16.6766 6.32365 16.9499 6.0503L19.0735 3.92685C19.3836 3.61671 19.3615 3.10904 19.0302 2.82163C17.0035 1.06339 14.3665 0 11.5 0V4.5C13.186 4.5 14.7347 5.09908 15.9444 6.09558Z" fill="#D93F21"/>
</svg>
