<svg width="55" height="54" viewBox="0 0 55 54" fill="none" xmlns="http://www.w3.org/2000/svg">
<path fill-rule="evenodd" clip-rule="evenodd" d="M42.0524 4.25875C40.3683 2.577 37.6166 2.577 35.9249 4.25875C32.9552 7.22434 29.9854 10.1899 27.0231 13.148C24.0609 10.1899 25.3916 11.5188 22.4294 8.56073C20.7453 6.87898 17.986 6.87898 16.3019 8.56073C14.6178 10.2425 14.6178 12.9903 16.3019 14.6796C19.1589 17.5326 17.7304 16.1061 20.5874 18.9591C24.1286 22.4953 29.9102 22.4953 33.4589 18.9591C36.3234 16.0986 39.1879 13.2381 42.0524 10.3776C43.7365 8.69588 43.7365 5.9405 42.0524 4.25875Z" fill="#4376BA"/>
<path fill-rule="evenodd" clip-rule="evenodd" d="M27.0232 13.148C29.993 10.1824 32.9628 7.21683 35.925 4.25875C37.6091 2.577 40.3684 2.577 42.0525 4.25875C43.7366 5.9405 43.7366 8.69588 42.0525 10.3776C40.6165 11.8116 39.1805 13.2456 37.7445 14.6796C36.316 16.1061 34.8875 17.5326 33.459 18.9591C29.9178 22.4953 24.1362 22.4953 20.5875 18.9591C19.159 17.5326 17.7305 16.1061 16.302 14.6796C18.9936 17.3674 24.1813 15.986 27.0232 13.148Z" fill="#479FD7"/>
<path fill-rule="evenodd" clip-rule="evenodd" d="M23.7296 1.3683C25.5566 -0.4561 28.5113 -0.4561 30.3383 1.3683C32.1652 3.1927 32.1652 6.14328 30.3383 7.96768C28.5113 9.79208 25.5566 9.79208 23.7296 7.96768C21.9026 6.14328 21.9026 3.1927 23.7296 1.3683Z" fill="#4376BA"/>
<path fill-rule="evenodd" clip-rule="evenodd" d="M49.8115 41.9929C51.4956 40.3112 51.4956 37.5558 49.8115 35.8741C46.8417 32.9085 43.8719 29.9429 40.9097 26.9848C43.8719 24.0267 42.5412 25.3556 45.5034 22.3975C47.1875 20.7158 47.1875 17.9604 45.5034 16.2786C43.8193 14.5969 41.0601 14.5969 39.3759 16.2786C36.5189 19.1316 37.9474 17.7051 35.0904 20.5581C31.5493 24.0943 31.5493 29.8678 35.0904 33.4115C37.955 36.272 40.8195 39.1325 43.684 41.9929C45.3681 43.6747 48.1273 43.6747 49.8115 41.9929Z" fill="#C73427"/>
<path fill-rule="evenodd" clip-rule="evenodd" d="M40.9019 26.9851C43.8716 29.9507 46.8414 32.9163 49.8036 35.8743C51.4878 37.5561 51.4878 40.3115 49.8036 41.9932C48.1195 43.675 45.3603 43.675 43.6762 41.9932C42.2401 40.5592 40.8041 39.1252 39.3681 37.6912C37.9396 36.2647 36.5111 34.8383 35.0826 33.4118C31.5415 29.8756 31.5415 24.1021 35.0826 20.5584C36.5111 19.1319 37.9396 17.7054 39.3681 16.2789C36.6765 18.9667 38.0599 24.1471 40.9019 26.9851Z" fill="#EF4923"/>
<path fill-rule="evenodd" clip-rule="evenodd" d="M52.6986 23.7039C54.5256 25.5283 54.5256 28.4788 52.6986 30.3032C50.8716 32.1276 47.9169 32.1276 46.09 30.3032C44.263 28.4788 44.263 25.5283 46.09 23.7039C47.9169 21.8795 50.8716 21.8795 52.6986 23.7039Z" fill="#C73427"/>
<path fill-rule="evenodd" clip-rule="evenodd" d="M12.0165 49.7414C13.7006 51.4231 16.4599 51.4231 18.144 49.7414C21.1138 46.7758 24.0835 43.8102 27.0458 40.8521C30.008 43.8102 28.6773 42.4813 31.6395 45.4394C33.3236 47.1211 36.0829 47.1211 37.767 45.4394C39.4511 43.7576 39.4511 41.0023 37.767 39.3205C34.91 36.4675 36.3385 37.894 33.4815 35.0411C29.9404 31.5049 24.1587 31.5049 20.61 35.0411C17.7455 37.9015 14.881 40.762 12.0165 43.6225C10.3324 45.3042 10.3324 48.0596 12.0165 49.7414Z" fill="#F48020"/>
<path fill-rule="evenodd" clip-rule="evenodd" d="M27.0458 40.8521C24.076 43.8177 21.1062 46.7833 18.144 49.7414C16.4599 51.4231 13.7006 51.4231 12.0165 49.7414C10.3324 48.0596 10.3324 45.3042 12.0165 43.6225C13.4525 42.1885 14.8885 40.7545 16.3245 39.3205C17.753 37.894 19.1815 36.4675 20.61 35.0411C24.1512 31.5049 29.9328 31.5049 33.4815 35.0411C34.91 36.4675 36.3385 37.894 37.767 39.3205C35.0754 36.6327 29.8877 38.0142 27.0458 40.8521Z" fill="#FACF1E"/>
<path fill-rule="evenodd" clip-rule="evenodd" d="M30.3383 52.6319C28.5113 54.4563 25.5566 54.4563 23.7296 52.6319C21.9026 50.8075 21.9026 47.8569 23.7296 46.0325C25.5566 44.2081 28.5113 44.2081 30.3383 46.0325C32.1652 47.8569 32.1652 50.8075 30.3383 52.6319Z" fill="#F48020"/>
<path fill-rule="evenodd" clip-rule="evenodd" d="M4.26504 12.0069C2.58092 13.6887 2.58092 16.444 4.26504 18.1258C7.23481 21.0914 10.2046 24.057 13.1668 27.0151C10.2046 29.9731 11.5353 28.6443 8.57308 31.6023C6.88896 33.2841 6.88896 36.0395 8.57308 37.7212C10.2572 39.403 13.0165 39.403 14.7006 37.7212C17.5576 34.8682 16.1291 36.2947 18.9861 33.4418C22.5272 29.9056 22.5272 24.1321 18.9861 20.5884C16.1216 17.7279 13.257 14.8674 10.3925 12.0069C8.70842 10.3252 5.94916 10.3252 4.26504 12.0069Z" fill="#008560"/>
<path fill-rule="evenodd" clip-rule="evenodd" d="M13.1668 27.0151C10.1971 24.0495 7.22729 21.0839 4.26504 18.1258C2.58092 16.444 2.58092 13.6887 4.26504 12.0069C5.94916 10.3252 8.70842 10.3252 10.3925 12.0069C11.8285 13.4409 13.2646 14.8749 14.7006 16.3089C16.1291 17.7354 17.5576 19.1619 18.9861 20.5884C22.5272 24.1245 22.5272 29.8981 18.9861 33.4418C17.5576 34.8682 16.1291 36.2947 14.7006 37.7212C17.3922 35.0334 16.0088 29.853 13.1668 27.0151Z" fill="#06B079"/>
<path fill-rule="evenodd" clip-rule="evenodd" d="M1.37023 30.2959C-0.456743 28.4715 -0.456743 25.5209 1.37023 23.6965C3.1972 21.8721 6.15193 21.8721 7.9789 23.6965C9.80587 25.5209 9.80587 28.4715 7.9789 30.2959C6.15193 32.1203 3.1972 32.1203 1.37023 30.2959Z" fill="#008560"/>
<path d="M24.3314 37.5635C24.0908 37.5034 23.8502 37.601 23.7149 37.7962C22.0683 37.2707 20.5647 36.3547 19.3241 35.1234C17.2641 33.0663 16.1363 30.3334 16.1363 27.4129C16.1363 25.6185 16.5724 23.8542 17.4069 22.2926C17.9107 21.3466 18.5572 20.4682 19.3316 19.7024C20.4218 18.6137 21.6849 17.7954 23.0908 17.2473C23.2337 17.4275 23.4818 17.5101 23.7224 17.4425C24.0306 17.3449 24.2036 17.0221 24.1133 16.7067C24.0156 16.3989 23.6923 16.2262 23.3765 16.3163C23.1209 16.3914 22.963 16.6242 22.963 16.8794C21.4969 17.4425 20.1887 18.2984 19.0535 19.4246C18.2565 20.2204 17.5874 21.1213 17.0611 22.1049C16.204 23.719 15.7454 25.551 15.7454 27.4054C15.7454 30.4235 16.9182 33.2615 19.0535 35.3937C20.3391 36.6775 21.9029 37.6235 23.6171 38.1641C23.6322 38.4119 23.8051 38.6371 24.0607 38.6971C24.3765 38.7722 24.6923 38.5845 24.775 38.2692C24.8501 37.9539 24.6622 37.6385 24.3464 37.556L24.3314 37.5635Z" fill="white"/>
<path d="M37.9996 29.2C37.6838 29.1399 37.368 29.3426 37.3079 29.658C37.2553 29.9057 37.368 30.1385 37.571 30.2661C37.0748 32.0905 36.1125 33.7647 34.7592 35.1161C32.9773 36.8955 30.6541 37.9916 28.1655 38.2469C28.0753 38.0367 27.8573 37.894 27.6092 37.894C27.2859 37.9015 27.0302 38.1718 27.0378 38.4947C27.0453 38.8175 27.3159 39.0728 27.6392 39.0653C27.9024 39.0653 28.1204 38.8776 28.1881 38.6298C30.7744 38.367 33.1878 37.2334 35.0298 35.3864C36.4358 33.9825 37.4357 32.2482 37.947 30.3487C38.1951 30.3186 38.4056 30.1385 38.4582 29.8832C38.5259 29.5679 38.3154 29.2525 37.9996 29.1925V29.2Z" fill="white"/>
<path d="M27.6092 16.9244C27.8573 16.9244 28.0678 16.7892 28.1655 16.5715C30.6541 16.8268 32.9773 17.9229 34.7592 19.7023C36.0824 21.0236 37.0297 22.6378 37.5334 24.4097C37.338 24.5373 37.2252 24.7776 37.2778 25.0253C37.3455 25.3406 37.6613 25.5434 37.977 25.4758C38.2928 25.4082 38.4958 25.0929 38.4281 24.7776C38.3755 24.5223 38.1575 24.3421 37.9094 24.3196C37.3906 22.4802 36.4057 20.7984 35.0298 19.4245C33.1803 17.5776 30.7744 16.4439 28.1881 16.1811C28.1204 15.9408 27.9024 15.7532 27.6392 15.7456C27.3159 15.7381 27.0453 15.9934 27.0378 16.3162C27.0302 16.6391 27.2859 16.9094 27.6092 16.9169V16.9244Z" fill="white"/>
<path d="M17.7529 24.8753C17.5274 25.6936 17.4146 26.5495 17.4146 27.4129C17.4146 27.8559 17.4447 28.3064 17.5048 28.7493C17.2793 28.8694 17.1515 29.1322 17.2116 29.395C17.2868 29.7103 17.6026 29.9055 17.9183 29.838C18.2341 29.7629 18.4296 29.4476 18.3619 29.1322C18.3093 28.8995 18.1138 28.7268 17.8958 28.6893C17.8356 28.2688 17.8056 27.8484 17.8056 27.4204C17.8056 26.5946 17.9108 25.7762 18.1289 24.9879C19.2115 20.9937 22.8805 18.2008 27.0381 18.2008C30.7146 18.2008 33.9551 20.303 35.4512 23.599C35.2783 23.7566 35.2031 24.0044 35.2858 24.2371C35.3986 24.5449 35.7294 24.7026 36.0377 24.59C36.3459 24.4774 36.5038 24.147 36.391 23.8392C36.3008 23.5914 36.0602 23.4413 35.8121 23.4563C35.1054 21.8872 33.9927 20.5433 32.5642 19.5447C30.9402 18.4111 29.0305 17.8104 27.0381 17.8104C22.7 17.8104 18.8807 20.7235 17.7454 24.8903L17.7529 24.8753Z" fill="white"/>
<path d="M19.5498 32.1203C19.3844 31.8425 19.0236 31.7449 18.7454 31.9101C18.4672 32.0753 18.3695 32.4357 18.5349 32.7134C18.6702 32.9462 18.9408 33.0438 19.1814 32.9837C20.9859 35.5214 23.8804 37.0229 27.0306 37.0229C27.4291 37.0229 27.8276 36.9929 28.2185 36.9479C28.3388 37.1731 28.5945 37.3007 28.8576 37.2482C29.1734 37.1806 29.3764 36.8653 29.3087 36.5499C29.241 36.2346 28.9253 36.0319 28.6095 36.0995C28.3689 36.152 28.196 36.3397 28.1584 36.565C27.7825 36.61 27.4066 36.6325 27.0306 36.6325C24.0082 36.6325 21.234 35.1985 19.5047 32.766C19.6401 32.5858 19.6626 32.323 19.5423 32.1128L19.5498 32.1203Z" fill="white"/>
<path d="M33.97 34.6354C34.2031 34.4101 34.2031 34.0347 33.97 33.802C33.7445 33.5693 33.3685 33.5693 33.1355 33.802C32.9625 33.9747 32.9174 34.2374 33.0076 34.4477C32.7746 34.6504 32.5265 34.8381 32.2708 35.0108C32.0904 34.8681 31.8273 34.8381 31.6092 34.9582C31.331 35.1234 31.2333 35.4762 31.3912 35.7615C31.5566 36.0393 31.91 36.1369 32.1957 35.9793C32.4212 35.8516 32.5265 35.5889 32.4738 35.3411C32.752 35.1534 33.0152 34.9507 33.2708 34.733C33.4888 34.8456 33.7745 34.8156 33.955 34.6354H33.97Z" fill="white"/>
<path d="M37.007 26.437C36.9694 26.1142 36.6762 25.8814 36.3529 25.9265C36.0296 25.964 35.7966 26.2568 35.8417 26.5797C35.8717 26.8274 36.0447 27.0151 36.2702 27.0752C36.2702 27.1878 36.2777 27.3004 36.2777 27.4205C36.2777 28.7269 36.0146 29.9882 35.4883 31.1594C35.2628 31.1369 35.0297 31.242 34.9094 31.4597C34.7515 31.745 34.8568 32.0979 35.1425 32.2556C35.4282 32.4132 35.7815 32.3081 35.9394 32.0228C36.0672 31.7901 36.0221 31.5048 35.8417 31.3246C36.383 30.1008 36.6687 28.7644 36.6687 27.413C36.6687 27.2929 36.6687 27.1653 36.6612 27.0376C36.8942 26.94 37.0446 26.6998 37.0145 26.4295L37.007 26.437Z" fill="white"/>
<path d="M35.113 28.0211C35.128 27.6982 34.8724 27.4204 34.5491 27.4129C34.2258 27.3979 33.9476 27.6532 33.9401 27.976C33.9326 28.2163 34.0679 28.434 34.2709 28.5316C33.7446 32.1879 30.7147 34.8832 27.0082 34.8832C22.9708 34.8832 19.6928 31.5347 19.6928 27.4204C19.6928 23.7191 22.3768 20.5883 25.8954 20.0402C25.9932 20.2429 26.2112 20.3781 26.4518 20.3706C26.7751 20.3556 27.0307 20.0853 27.0157 19.7624C27.0006 19.4396 26.73 19.1843 26.4067 19.1994C26.136 19.2144 25.918 19.4021 25.8578 19.6573C24.1286 19.9201 22.5498 20.761 21.3618 22.0749C20.0386 23.5314 19.3093 25.4309 19.3093 27.4204C19.3093 29.5151 20.0988 31.4822 21.5423 32.9612C22.9933 34.4553 24.9406 35.2736 27.0157 35.2736C29.0908 35.2736 30.8952 34.5153 32.3237 33.1489C33.5943 31.9326 34.4138 30.326 34.6619 28.5766C34.91 28.5166 35.1055 28.2988 35.113 28.0286V28.0211Z" fill="white"/>
</svg>
