<svg width="172" height="171" viewBox="0 0 172 171" fill="none" xmlns="http://www.w3.org/2000/svg">
<path d="M76.2692 87.9721L83.6123 95.3287L95.8507 78.1634M86.06 55.1586C78.6704 62.1889 68.8291 66.0449 58.6394 65.9024C57.3432 69.8585 56.6844 73.9963 56.6878 78.1601C56.6878 96.4436 69.1677 111.804 86.06 116.162C102.952 111.807 115.432 96.4469 115.432 78.1634C115.432 73.8802 114.747 69.7573 113.481 65.8992H112.985C102.554 65.8992 93.0767 61.8187 86.06 55.1586Z" stroke="white" stroke-width="2.71128" stroke-linecap="round" stroke-linejoin="round"/>
<path d="M168.762 85.2862C168.762 130.624 131.599 167.426 85.6964 167.426C39.7941 167.426 2.63112 130.624 2.63112 85.2862C2.63112 39.9482 39.7941 3.14668 85.6964 3.14668C131.599 3.14668 168.762 39.9482 168.762 85.2862Z" stroke="#17F95B" stroke-width="5.17618"/>
<path d="M10.1704 51.0933C14.9501 40.7698 21.843 31.5369 30.4153 23.9785C38.9877 16.4202 49.0531 10.7009 59.9765 7.18341C70.8999 3.66595 82.4428 2.4272 93.8756 3.54586C105.308 4.66451 116.381 8.11609 126.395 13.6815C136.409 19.2468 145.145 26.8045 152.052 35.8758C158.96 44.9471 163.89 55.335 166.532 66.3833C169.174 77.4315 169.472 88.9012 167.406 100.069C165.339 111.236 160.954 121.86 154.526 131.269" stroke="#097B16" stroke-width="5.17618"/>
</svg>
