<svg width="182" height="104" viewBox="0 0 182 104" fill="none" xmlns="http://www.w3.org/2000/svg">
<path d="M2.25847 101.868V95.0983H2.69218V101.868H2.25847ZM3.40887 97.333C3.38771 97.1196 3.29691 96.9539 3.13647 96.8358C2.97604 96.7177 2.7583 96.6586 2.48326 96.6586C2.29638 96.6586 2.13858 96.685 2.00988 96.7379C1.88118 96.7891 1.78245 96.8605 1.71369 96.9521C1.64669 97.0438 1.61319 97.1478 1.61319 97.2642C1.60967 97.3612 1.62994 97.4458 1.67402 97.5181C1.71986 97.5904 1.78245 97.653 1.86179 97.7058C1.94112 97.757 2.0328 97.8019 2.13682 97.8407C2.24084 97.8777 2.35191 97.9095 2.47004 97.9359L2.95664 98.0523C3.19289 98.1052 3.40975 98.1757 3.60721 98.2639C3.80467 98.352 3.97569 98.4604 4.12026 98.5891C4.26483 98.7178 4.37678 98.8695 4.45612 99.044C4.53722 99.2185 4.57865 99.4187 4.58042 99.6443C4.57865 99.9758 4.49403 100.263 4.32654 100.506C4.16081 100.748 3.92103 100.936 3.60721 101.07C3.29515 101.202 2.91874 101.268 2.47797 101.268C2.04074 101.268 1.65992 101.201 1.33551 101.067C1.01287 100.933 0.760758 100.735 0.579163 100.472C0.399332 100.208 0.305008 99.8806 0.296193 99.4909H1.40427C1.41661 99.6725 1.46862 99.8242 1.5603 99.9458C1.65375 100.066 1.77804 100.156 1.93319 100.218C2.0901 100.278 2.26729 100.308 2.46475 100.308C2.65869 100.308 2.82706 100.28 2.96987 100.223C3.11444 100.167 3.22639 100.089 3.30573 99.9881C3.38506 99.8876 3.42473 99.7721 3.42473 99.6417C3.42473 99.52 3.38859 99.4178 3.31631 99.3349C3.24578 99.252 3.14176 99.1815 3.00424 99.1233C2.86849 99.0652 2.70188 99.0123 2.50442 98.9647L1.91468 98.8166C1.45805 98.7055 1.0975 98.5318 0.833043 98.2956C0.568585 98.0593 0.437237 97.7411 0.439001 97.3409C0.437237 97.013 0.524509 96.7265 0.700814 96.4814C0.878883 96.2363 1.12307 96.0451 1.43336 95.9075C1.74366 95.77 2.09627 95.7013 2.4912 95.7013C2.89317 95.7013 3.24402 95.77 3.54374 95.9075C3.84522 96.0451 4.07971 96.2363 4.2472 96.4814C4.41469 96.7265 4.50108 97.0103 4.50637 97.333H3.40887ZM7.67524 95.7753V101.191H6.53013V96.8622H6.4984L5.25809 97.6397V96.6242L6.59889 95.7753H7.67524ZM11.0861 101.31C10.6312 101.309 10.2398 101.197 9.91189 100.975C9.58573 100.752 9.33449 100.431 9.15819 100.009C8.98364 99.5879 8.89725 99.081 8.89902 98.4886C8.89902 97.898 8.98629 97.3947 9.16083 96.9786C9.33714 96.5625 9.58837 96.246 9.91454 96.0292C10.2425 95.8106 10.633 95.7013 11.0861 95.7013C11.5392 95.7013 11.9288 95.8106 12.255 96.0292C12.5829 96.2478 12.835 96.5652 13.0113 96.9812C13.1876 97.3956 13.2749 97.898 13.2732 98.4886C13.2732 99.0828 13.185 99.5906 13.0087 100.012C12.8342 100.433 12.5838 100.755 12.2576 100.977C11.9315 101.199 11.541 101.31 11.0861 101.31ZM11.0861 100.361C11.3964 100.361 11.6441 100.205 11.8292 99.8929C12.0143 99.5809 12.106 99.1128 12.1043 98.4886C12.1043 98.0779 12.0619 97.7358 11.9773 97.4625C11.8944 97.1893 11.7763 96.9839 11.6229 96.8464C11.4713 96.7088 11.2924 96.6401 11.0861 96.6401C10.7776 96.6401 10.5307 96.7943 10.3456 97.1029C10.1605 97.4114 10.067 97.8733 10.0653 98.4886C10.0653 98.9047 10.1067 99.252 10.1896 99.5306C10.2742 99.8074 10.3932 100.015 10.5466 100.155C10.7 100.292 10.8798 100.361 11.0861 100.361Z" fill="#767676"/>
<path d="M2.25847 55.0505V48.2804H2.69218V55.0505H2.25847ZM3.40887 50.5151C3.38771 50.3018 3.29691 50.136 3.13647 50.0179C2.97604 49.8998 2.7583 49.8407 2.48326 49.8407C2.29638 49.8407 2.13858 49.8672 2.00988 49.9201C1.88118 49.9712 1.78245 50.0426 1.71369 50.1343C1.64669 50.2259 1.61319 50.33 1.61319 50.4463C1.60967 50.5433 1.62994 50.6279 1.67402 50.7002C1.71986 50.7725 1.78245 50.8351 1.86179 50.888C1.94112 50.9391 2.0328 50.9841 2.13682 51.0229C2.24084 51.0599 2.35191 51.0916 2.47004 51.1181L2.95664 51.2344C3.19289 51.2873 3.40975 51.3578 3.60721 51.446C3.80467 51.5341 3.97569 51.6426 4.12026 51.7713C4.26483 51.9 4.37678 52.0516 4.45612 52.2261C4.53722 52.4007 4.57865 52.6008 4.58042 52.8265C4.57865 53.1579 4.49403 53.4453 4.32654 53.6886C4.16081 53.9301 3.92103 54.1179 3.60721 54.2519C3.29515 54.3841 2.91874 54.4502 2.47797 54.4502C2.04074 54.4502 1.65992 54.3832 1.33551 54.2492C1.01287 54.1152 0.760758 53.9169 0.579163 53.6542C0.399332 53.3898 0.305008 53.0627 0.296193 52.6731H1.40427C1.41661 52.8547 1.46862 53.0063 1.5603 53.1279C1.65375 53.2478 1.77804 53.3386 1.93319 53.4003C2.0901 53.4603 2.26729 53.4902 2.46475 53.4902C2.65869 53.4902 2.82706 53.462 2.96987 53.4056C3.11444 53.3492 3.22639 53.2707 3.30573 53.1703C3.38506 53.0698 3.42473 52.9543 3.42473 52.8238C3.42473 52.7022 3.38859 52.5999 3.31631 52.517C3.24578 52.4342 3.14176 52.3637 3.00424 52.3055C2.86849 52.2473 2.70188 52.1944 2.50442 52.1468L1.91468 51.9987C1.45805 51.8876 1.0975 51.714 0.833043 51.4777C0.568585 51.2415 0.437237 50.9232 0.439001 50.523C0.437237 50.1951 0.524509 49.9086 0.700814 49.6635C0.878883 49.4185 1.12307 49.2272 1.43336 49.0897C1.74366 48.9521 2.09627 48.8834 2.4912 48.8834C2.89317 48.8834 3.24402 48.9521 3.54374 49.0897C3.84522 49.2272 4.07971 49.4185 4.2472 49.6635C4.41469 49.9086 4.50108 50.1925 4.50637 50.5151H3.40887ZM7.32086 54.4476C6.92594 54.4476 6.57421 54.3797 6.26568 54.244C5.9589 54.1064 5.71648 53.9178 5.53842 53.678C5.36211 53.4365 5.27131 53.1579 5.26602 52.8423H6.41906C6.42611 52.9746 6.46931 53.0909 6.54865 53.1914C6.62975 53.2901 6.73729 53.3668 6.87128 53.4215C7.00528 53.4761 7.15602 53.5035 7.32351 53.5035C7.49805 53.5035 7.65232 53.4726 7.78631 53.4109C7.9203 53.3492 8.0252 53.2637 8.10101 53.1544C8.17683 53.0451 8.21473 52.919 8.21473 52.7762C8.21473 52.6316 8.17418 52.5038 8.09308 52.3927C8.01374 52.2799 7.89914 52.1918 7.74929 52.1283C7.60119 52.0648 7.42488 52.0331 7.22037 52.0331H6.71525V51.1921H7.22037C7.39315 51.1921 7.54565 51.1621 7.67788 51.1022C7.81187 51.0422 7.91589 50.9594 7.98994 50.8536C8.06399 50.7461 8.10101 50.6209 8.10101 50.4781C8.10101 50.3423 8.0684 50.2233 8.00317 50.121C7.9397 50.017 7.84978 49.9359 7.73342 49.8777C7.61882 49.8196 7.48483 49.7905 7.33144 49.7905C7.17629 49.7905 7.03437 49.8187 6.90566 49.8751C6.77696 49.9298 6.67382 50.0082 6.59625 50.1105C6.51867 50.2127 6.47724 50.3326 6.47195 50.4701H5.37445C5.37974 50.1581 5.46877 49.883 5.64155 49.645C5.81433 49.407 6.04706 49.221 6.33972 49.087C6.63415 48.9513 6.96649 48.8834 7.33673 48.8834C7.7105 48.8834 8.03754 48.9513 8.31787 49.087C8.5982 49.2228 8.81593 49.4061 8.97108 49.6371C9.12799 49.8663 9.20557 50.1237 9.20381 50.4093C9.20557 50.7126 9.11124 50.9656 8.92083 51.1683C8.73219 51.3711 8.48624 51.4998 8.183 51.5544V51.5967C8.58145 51.6479 8.88469 51.7863 9.09273 52.0119C9.30254 52.2358 9.40656 52.5162 9.40479 52.8529C9.40656 53.1614 9.31752 53.4356 9.13769 53.6754C8.95962 53.9151 8.71368 54.1038 8.39985 54.2413C8.08603 54.3788 7.72637 54.4476 7.32086 54.4476ZM12.3515 54.4925C11.8967 54.4908 11.5053 54.3788 11.1773 54.1567C10.8512 53.9345 10.5999 53.6128 10.4236 53.1914C10.2491 52.77 10.1627 52.2632 10.1645 51.6708C10.1645 51.0801 10.2517 50.5768 10.4263 50.1607C10.6026 49.7446 10.8538 49.4282 11.18 49.2113C11.5079 48.9927 11.8984 48.8834 12.3515 48.8834C12.8046 48.8834 13.1943 48.9927 13.5204 49.2113C13.8484 49.4299 14.1005 49.7473 14.2768 50.1634C14.4531 50.5777 14.5404 51.0801 14.5386 51.6708C14.5386 52.2649 14.4504 52.7727 14.2741 53.1941C14.0996 53.6154 13.8492 53.9372 13.5231 54.1593C13.1969 54.3815 12.8064 54.4925 12.3515 54.4925ZM12.3515 53.5431C12.6618 53.5431 12.9095 53.3871 13.0946 53.075C13.2798 52.763 13.3714 52.2949 13.3697 51.6708C13.3697 51.26 13.3274 50.9179 13.2427 50.6447C13.1599 50.3714 13.0418 50.166 12.8884 50.0285C12.7367 49.891 12.5578 49.8222 12.3515 49.8222C12.043 49.8222 11.7962 49.9765 11.611 50.285C11.4259 50.5935 11.3325 51.0555 11.3307 51.6708C11.3307 52.0869 11.3721 52.4342 11.455 52.7127C11.5396 52.9895 11.6586 53.1976 11.812 53.3369C11.9654 53.4744 12.1452 53.5431 12.3515 53.5431Z" fill="#767676"/>
<path d="M2.25847 8.23268V1.46255H2.69218V8.23268H2.25847ZM3.40887 3.69722C3.38771 3.48389 3.29691 3.31816 3.13647 3.20004C2.97604 3.08191 2.7583 3.02285 2.48326 3.02285C2.29638 3.02285 2.13858 3.0493 2.00988 3.10219C1.88118 3.15332 1.78245 3.22472 1.71369 3.3164C1.64669 3.40808 1.61319 3.5121 1.61319 3.62846C1.60967 3.72543 1.62994 3.81006 1.67402 3.88234C1.71986 3.95463 1.78245 4.01721 1.86179 4.07011C1.94112 4.12123 2.0328 4.16619 2.13682 4.20498C2.24084 4.242 2.35191 4.27374 2.47004 4.30018L2.95664 4.41655C3.19289 4.46944 3.40975 4.53996 3.60721 4.62811C3.80467 4.71626 3.97569 4.82469 4.12026 4.9534C4.26483 5.0821 4.37678 5.23372 4.45612 5.40826C4.53722 5.58281 4.57865 5.78291 4.58042 6.00858C4.57865 6.34004 4.49403 6.62742 4.32654 6.87072C4.16081 7.11226 3.92103 7.30002 3.60721 7.43401C3.29515 7.56624 2.91874 7.63236 2.47797 7.63236C2.04074 7.63236 1.65992 7.56536 1.33551 7.43137C1.01287 7.29738 0.760758 7.09903 0.579163 6.83634C0.399332 6.57188 0.305008 6.24483 0.296193 5.8552H1.40427C1.41661 6.03679 1.46862 6.18842 1.5603 6.31007C1.65375 6.42995 1.77804 6.52075 1.93319 6.58246C2.0901 6.6424 2.26729 6.67237 2.46475 6.67237C2.65869 6.67237 2.82706 6.64416 2.96987 6.58775C3.11444 6.53133 3.22639 6.45287 3.30573 6.35238C3.38506 6.25189 3.42473 6.13641 3.42473 6.00594C3.42473 5.88429 3.38859 5.78203 3.31631 5.69917C3.24578 5.6163 3.14176 5.54578 3.00424 5.4876C2.86849 5.42942 2.70188 5.37653 2.50442 5.32893L1.91468 5.18083C1.45805 5.06976 1.0975 4.8961 0.833043 4.65985C0.568585 4.4236 0.437237 4.10537 0.439001 3.70515C0.437237 3.37722 0.524509 3.09073 0.700814 2.84566C0.878883 2.6006 1.12307 2.40931 1.43336 2.27179C1.74366 2.13427 2.09627 2.06551 2.4912 2.06551C2.89317 2.06551 3.24402 2.13427 3.54374 2.27179C3.84522 2.40931 4.07971 2.6006 4.2472 2.84566C4.41469 3.09073 4.50108 3.37458 4.50637 3.69722H3.40887ZM7.29706 7.62971C6.92329 7.62971 6.59008 7.56095 6.29741 7.42343C6.00651 7.28592 5.77555 7.09639 5.60453 6.85485C5.43351 6.61331 5.34448 6.33651 5.33743 6.02445H6.44815C6.46049 6.23425 6.54865 6.40439 6.71261 6.53486C6.87657 6.66532 7.07139 6.73055 7.29706 6.73055C7.47689 6.73055 7.63557 6.69089 7.77309 6.61155C7.91237 6.53045 8.0208 6.41849 8.09837 6.27569C8.17771 6.13112 8.21738 5.96539 8.21738 5.77851C8.21738 5.5881 8.17683 5.42061 8.09573 5.27603C8.01639 5.13146 7.9062 5.01863 7.76515 4.93753C7.62411 4.85643 7.46279 4.815 7.28119 4.81323C7.12252 4.81323 6.96825 4.84585 6.81839 4.91108C6.6703 4.97632 6.55482 5.06535 6.47195 5.17819L5.45379 4.99571L5.71031 2.13956H9.02133V3.07574H6.65443L6.51427 4.43241H6.546C6.64121 4.29842 6.78489 4.18735 6.97707 4.0992C7.16924 4.01104 7.38433 3.96697 7.62235 3.96697C7.94851 3.96697 8.23941 4.04366 8.49506 4.19705C8.7507 4.35043 8.95257 4.56112 9.10067 4.8291C9.24876 5.09532 9.32193 5.40209 9.32017 5.74941C9.32193 6.11437 9.2373 6.43877 9.06629 6.72262C8.89703 7.00471 8.6599 7.22685 8.35489 7.38906C8.05165 7.54949 7.69904 7.62971 7.29706 7.62971ZM12.2424 7.67467C11.7876 7.67291 11.3962 7.56095 11.0682 7.33881C10.7421 7.11666 10.4908 6.79491 10.3145 6.37354C10.14 5.95217 10.0536 5.44529 10.0554 4.8529C10.0554 4.26228 10.1426 3.75893 10.3172 3.34285C10.4935 2.92676 10.7447 2.6103 11.0709 2.39344C11.3988 2.17482 11.7893 2.06551 12.2424 2.06551C12.6955 2.06551 13.0852 2.17482 13.4113 2.39344C13.7393 2.61206 13.9914 2.92941 14.1677 3.34549C14.344 3.75981 14.4313 4.26228 14.4295 4.8529C14.4295 5.44705 14.3413 5.95481 14.165 6.37618C13.9905 6.79755 13.7401 7.11931 13.414 7.34145C13.0878 7.5636 12.6973 7.67467 12.2424 7.67467ZM12.2424 6.72527C12.5527 6.72527 12.8004 6.56924 12.9856 6.25717C13.1707 5.94511 13.2624 5.47702 13.2606 4.8529C13.2606 4.44211 13.2183 4.10008 13.1337 3.8268C13.0508 3.55353 12.9327 3.34813 12.7793 3.21062C12.6277 3.0731 12.4487 3.00434 12.2424 3.00434C11.9339 3.00434 11.6871 3.15861 11.5019 3.46714C11.3168 3.77568 11.2234 4.2376 11.2216 4.8529C11.2216 5.26898 11.2631 5.6163 11.3459 5.89487C11.4305 6.17167 11.5495 6.37971 11.7029 6.51899C11.8563 6.65651 12.0362 6.72527 12.2424 6.72527Z" fill="#767676"/>
<line opacity="0.5" x1="18.6797" y1="4.71226" x2="181.512" y2="4.71226" stroke="#B1B1B1" stroke-width="0.372357"/>
<line opacity="0.5" x1="18.6797" y1="51.8695" x2="181.512" y2="51.8695" stroke="#B1B1B1" stroke-width="0.372357"/>
<line opacity="0.5" x1="18.6797" y1="99.0265" x2="181.512" y2="99.0265" stroke="#B1B1B1" stroke-width="0.372357"/>
<rect x="27.459" y="52.0557" width="10.426" height="46.7271" rx="2.05492" fill="#E9ECF1"/>
<rect x="112.628" y="33.8892" width="10.426" height="64.8934" rx="2.05492" fill="#344BFD"/>
<rect x="55.8486" y="14.9697" width="10.426" height="83.8131" rx="2.05492" fill="#E9ECF1"/>
<rect x="141.019" y="23.8564" width="10.426" height="74.926" rx="2.05492" fill="#E9ECF1"/>
<rect x="84.2383" y="45.6306" width="10.426" height="53.1521" rx="2.05492" fill="#E9ECF1"/>
<rect x="169.408" y="65.6406" width="10.426" height="33.1421" rx="2.05492" fill="#E9ECF1"/>
</svg>
