<svg width="200" height="133" viewBox="0 0 200 133" fill="none" xmlns="http://www.w3.org/2000/svg">
<path d="M5.71724 90.7397L1.73086 104.692C1.5777 105.228 1.5 105.783 1.5 106.34V127C1.5 130.314 4.18629 133 7.5 133H192C195.314 133 198 130.314 198 127V45.3624C198 43.5519 197.182 41.8382 195.775 40.699L193.751 39.06C190.632 36.5353 185.962 37.7243 184.43 41.433L183.302 44.1646C181.294 49.0247 174.45 49.1351 172.287 44.3423L158.481 13.7529C156.279 8.87366 149.274 9.10204 147.395 14.1144L126.202 70.6285C124.309 75.6765 117.236 75.8606 115.083 70.9181L103.529 44.3958C101.605 39.9789 95.522 39.5168 92.9526 43.5924L84.9846 56.2313C84.6634 56.7409 84.4207 57.2959 84.2647 57.8777L75.962 88.8532C74.49 94.3452 66.9162 94.9 64.6595 89.6813L53.7652 64.4883C51.5752 59.4239 44.2864 59.7515 42.5595 64.9918L34.9512 88.079C33.8859 91.3118 30.3477 93.0119 27.158 91.8236L13.581 86.7655C10.3024 85.544 6.67842 87.3755 5.71724 90.7397Z" fill="url(#paint0_linear_127_1576)"/>
<path d="M1.5 105.5L5.71724 90.7397C6.67842 87.3755 10.3024 85.544 13.581 86.7655L27.158 91.8236C30.3477 93.0119 33.8859 91.3118 34.9512 88.079L42.5595 64.9918C44.2864 59.7515 51.5752 59.4239 53.7652 64.4883L64.6595 89.6813C66.9162 94.9 74.49 94.3452 75.962 88.8532L84.2647 57.8777C84.4207 57.2959 84.6634 56.7409 84.9846 56.2313L92.9526 43.5924C95.522 39.5168 101.605 39.9789 103.529 44.3958L115.083 70.9181C117.236 75.8606 124.309 75.6764 126.202 70.6285L147.395 14.1144C149.274 9.10204 156.279 8.87366 158.481 13.7529L172.287 44.3423C174.45 49.1351 181.294 49.0247 183.302 44.1646L184.43 41.433C185.962 37.7243 190.632 36.5353 193.751 39.06L198 42.5" stroke="#00C27A" stroke-width="3" stroke-linecap="round" stroke-linejoin="round"/>
<defs>
<linearGradient id="paint0_linear_127_1576" x1="99.75" y1="0.5" x2="99.75" y2="133" gradientUnits="userSpaceOnUse">
<stop stop-color="#D4EFE6"/>
<stop offset="1" stop-color="white"/>
</linearGradient>
</defs>
</svg>
