<svg width="132" height="132" viewBox="0 0 132 132" fill="none" xmlns="http://www.w3.org/2000/svg">
<path d="M9.31315 92.9272C5.13163 83.3583 3.37453 72.9058 4.1975 62.4957C5.02047 52.0855 8.3981 42.039 14.0312 33.246C19.6643 24.453 27.379 17.1849 36.492 12.0856C45.6049 6.98633 55.8348 4.21318 66.2755 4.01181C76.7162 3.81044 87.0454 6.18707 96.3482 10.9312C105.651 15.6753 113.64 22.6405 119.608 31.2097C125.576 39.779 129.339 49.6878 130.562 60.0585C131.786 70.4292 130.433 80.9416 126.624 90.6646" stroke="#E5E5E5" stroke-width="2"/>
<path d="M8.78923 94.2076C4.19255 84.1028 2.2817 72.9827 3.24156 61.9231C4.20141 50.8635 7.99948 40.2388 14.2683 31.077C20.5371 21.9152 29.0644 14.5265 39.0252 9.62567C48.9861 4.72484 60.0432 2.47783 71.1268 3.10205" stroke="url(#paint0_linear_127_1573)" stroke-width="6" stroke-linecap="round" stroke-linejoin="round"/>
<path d="M46.6453 72.288C45.7173 72.288 44.8453 72.128 44.0293 71.808C43.2133 71.472 42.5013 71 41.8933 70.392C41.3013 69.768 40.8693 69.04 40.5973 68.208L42.5173 67.392C42.8533 68.272 43.3973 68.96 44.1493 69.456C44.9173 69.936 45.7493 70.176 46.6453 70.176C47.3813 70.176 48.0293 70.016 48.5893 69.696C49.1653 69.36 49.6133 68.904 49.9333 68.328C50.2533 67.736 50.4133 67.08 50.4133 66.36C50.4133 65.608 50.2453 64.944 49.9093 64.368C49.5893 63.792 49.1493 63.344 48.5893 63.024C48.0293 62.688 47.3893 62.52 46.6693 62.52C45.9333 62.52 45.2613 62.688 44.6533 63.024C44.0453 63.36 43.6053 63.784 43.3333 64.296L41.4373 63.888L42.8053 54.12H52.0693V56.16H43.6933L44.6053 55.248L43.5493 62.832L42.7333 62.352C43.2613 61.68 43.8773 61.2 44.5813 60.912C45.3013 60.608 46.0773 60.456 46.9093 60.456C48.0773 60.456 49.1013 60.72 49.9813 61.248C50.8613 61.776 51.5493 62.48 52.0453 63.36C52.5413 64.24 52.7893 65.24 52.7893 66.36C52.7893 67.48 52.5173 68.488 51.9733 69.384C51.4453 70.28 50.7173 70.992 49.7893 71.52C48.8773 72.032 47.8293 72.288 46.6453 72.288ZM62.9464 72.288C61.5224 72.288 60.2744 71.904 59.2024 71.136C58.1464 70.352 57.3224 69.272 56.7304 67.896C56.1384 66.504 55.8424 64.888 55.8424 63.048C55.8424 61.208 56.1384 59.6 56.7304 58.224C57.3224 56.832 58.1464 55.752 59.2024 54.984C60.2584 54.216 61.4984 53.832 62.9224 53.832C64.3464 53.832 65.5864 54.216 66.6424 54.984C67.6984 55.752 68.5224 56.832 69.1144 58.224C69.7224 59.6 70.0264 61.208 70.0264 63.048C70.0264 64.888 69.7304 66.504 69.1384 67.896C68.5464 69.288 67.7144 70.368 66.6424 71.136C65.5864 71.904 64.3544 72.288 62.9464 72.288ZM62.9464 70.104C63.9064 70.104 64.7384 69.816 65.4424 69.24C66.1464 68.648 66.6904 67.824 67.0744 66.768C67.4744 65.712 67.6744 64.472 67.6744 63.048C67.6744 61.624 67.4744 60.384 67.0744 59.328C66.6904 58.272 66.1384 57.456 65.4184 56.88C64.7144 56.304 63.8824 56.016 62.9224 56.016C61.9624 56.016 61.1304 56.304 60.4264 56.88C59.7224 57.456 59.1704 58.272 58.7704 59.328C58.3864 60.384 58.1944 61.624 58.1944 63.048C58.1944 64.456 58.3864 65.688 58.7704 66.744C59.1704 67.8 59.7224 68.624 60.4264 69.216C61.1464 69.808 61.9864 70.104 62.9464 70.104ZM75.0336 72L89.6256 54.12H92.2896L77.6976 72H75.0336ZM77.7216 63.192C76.8416 63.192 76.0496 62.984 75.3456 62.568C74.6416 62.136 74.0736 61.568 73.6416 60.864C73.2256 60.16 73.0176 59.376 73.0176 58.512C73.0176 57.648 73.2256 56.864 73.6416 56.16C74.0736 55.44 74.6416 54.872 75.3456 54.456C76.0496 54.04 76.8416 53.832 77.7216 53.832C78.5856 53.832 79.3696 54.04 80.0736 54.456C80.7776 54.872 81.3376 55.44 81.7536 56.16C82.1696 56.864 82.3776 57.648 82.3776 58.512C82.3776 59.376 82.1696 60.16 81.7536 60.864C81.3376 61.568 80.7776 62.136 80.0736 62.568C79.3696 62.984 78.5856 63.192 77.7216 63.192ZM77.6976 61.224C78.2416 61.224 78.7056 61.096 79.0896 60.84C79.4736 60.584 79.7776 60.248 80.0016 59.832C80.2256 59.416 80.3376 58.976 80.3376 58.512C80.3376 58.032 80.2256 57.592 80.0016 57.192C79.7776 56.776 79.4736 56.44 79.0896 56.184C78.7056 55.912 78.2416 55.776 77.6976 55.776C77.1856 55.776 76.7296 55.912 76.3296 56.184C75.9296 56.44 75.6176 56.776 75.3936 57.192C75.1696 57.608 75.0576 58.048 75.0576 58.512C75.0576 58.96 75.1696 59.4 75.3936 59.832C75.6176 60.248 75.9296 60.584 76.3296 60.84C76.7296 61.096 77.1856 61.224 77.6976 61.224ZM89.4576 72.288C88.5776 72.288 87.7856 72.08 87.0816 71.664C86.3776 71.232 85.8096 70.664 85.3776 69.96C84.9616 69.256 84.7536 68.472 84.7536 67.608C84.7536 66.744 84.9616 65.96 85.3776 65.256C85.8096 64.536 86.3776 63.968 87.0816 63.552C87.7856 63.136 88.5776 62.928 89.4576 62.928C90.3216 62.928 91.1056 63.136 91.8096 63.552C92.5136 63.968 93.0736 64.536 93.4896 65.256C93.9056 65.96 94.1136 66.744 94.1136 67.608C94.1136 68.472 93.9056 69.256 93.4896 69.96C93.0736 70.664 92.5136 71.232 91.8096 71.664C91.1056 72.08 90.3216 72.288 89.4576 72.288ZM89.4576 70.32C89.9856 70.32 90.4416 70.192 90.8256 69.936C91.2256 69.68 91.5296 69.344 91.7376 68.928C91.9616 68.512 92.0736 68.072 92.0736 67.608C92.0736 67.128 91.9616 66.688 91.7376 66.288C91.5296 65.872 91.2256 65.536 90.8256 65.28C90.4416 65.008 89.9856 64.872 89.4576 64.872C88.9456 64.872 88.4816 65.008 88.0656 65.28C87.6656 65.536 87.3536 65.872 87.1296 66.288C86.9056 66.704 86.7936 67.144 86.7936 67.608C86.7936 68.056 86.9056 68.496 87.1296 68.928C87.3536 69.344 87.6656 69.68 88.0656 69.936C88.4816 70.192 88.9456 70.32 89.4576 70.32Z" fill="black"/>
<defs>
<linearGradient id="paint0_linear_127_1573" x1="14" y1="28" x2="86" y2="13" gradientUnits="userSpaceOnUse">
<stop stop-color="#FFCF0E"/>
<stop offset="1" stop-color="#EE0879"/>
</linearGradient>
</defs>
</svg>
