<svg width="165" height="40" viewBox="0 0 165 40" fill="none" xmlns="http://www.w3.org/2000/svg">
<path d="M44.4646 13.4486C44.4646 11.7191 44.7987 10.5123 45.4614 9.83377C46.1242 9.15528 47.2993 8.81604 48.9756 8.81604H50.5572C52.2224 8.81604 53.392 9.11079 54.0658 9.69473C54.7397 10.2787 55.0738 11.2686 55.0738 12.6701V13.2596H53.5256V12.8869C53.5256 11.8637 53.314 11.1629 52.8963 10.7903C52.4786 10.4177 51.6599 10.2286 50.4403 10.2286H49.3933C48.5746 10.2286 47.9787 10.2787 47.6056 10.3788C47.2324 10.4789 46.9206 10.6457 46.6755 10.8849C46.4249 11.1129 46.2523 11.4188 46.152 11.7858C46.0518 12.1529 46.0017 12.8369 46.0017 13.8268V17.6753C46.0017 18.6541 46.0518 19.3326 46.152 19.7052C46.2523 20.0778 46.4249 20.3781 46.6755 20.6061C46.9261 20.8397 47.2269 21.0121 47.5777 21.1122C47.9286 21.2123 48.5356 21.2623 49.3933 21.2623H50.4403C51.6878 21.2623 52.5176 21.0677 52.9297 20.6728C53.3418 20.278 53.5479 19.5272 53.5479 18.4094C53.5479 18.2425 53.5479 18.1091 53.5479 18.0201C53.5479 17.9311 53.5423 17.8421 53.5368 17.7643H55.0738V18.6541C55.0738 20.1556 54.7453 21.2012 54.0937 21.7851C53.4421 22.3746 52.2614 22.6638 50.5517 22.6638H48.97C47.2881 22.6638 46.1186 22.3246 45.4559 21.6461C44.7931 20.9676 44.459 19.7608 44.459 18.0312V13.4431L44.4646 13.4486Z" fill="#02070C"/>
<path d="M57.1904 13.4486C57.1904 11.7246 57.5469 10.5178 58.2653 9.83933C58.9781 9.16084 60.2479 8.81604 62.0746 8.81604H63.7843C65.6277 8.81604 66.9031 9.14972 67.6104 9.82265C68.3177 10.4956 68.6685 11.7024 68.6685 13.4486V18.0368C68.6685 19.7663 68.3121 20.9732 67.5937 21.6516C66.8752 22.3301 65.6055 22.6694 63.7899 22.6694H62.0802C60.2535 22.6694 58.9837 22.3301 58.2709 21.6516C57.558 20.9732 57.196 19.7663 57.196 18.0368V13.4486H57.1904ZM63.3332 10.2286H62.4979C61.5455 10.2286 60.8717 10.2787 60.4818 10.3843C60.0864 10.49 59.7467 10.6624 59.4627 10.9015C59.1953 11.1296 59.006 11.441 58.9002 11.8303C58.7888 12.2196 58.7387 12.8925 58.7387 13.8435V17.6753C58.7387 18.6207 58.7944 19.2825 58.9002 19.6662C59.0116 20.05 59.1953 20.3558 59.4627 20.5894C59.7467 20.8341 60.0864 21.0065 60.4818 21.1066C60.8772 21.2123 61.5511 21.2623 62.4979 21.2623H63.3332C64.2856 21.2623 64.9594 21.2123 65.3604 21.1066C65.7614 21.001 66.1011 20.8286 66.3907 20.5894C66.6525 20.367 66.8363 20.0667 66.9421 19.6885C67.0479 19.3159 67.1036 18.6429 67.1036 17.6753V13.8268C67.1036 12.8758 67.0479 12.2085 66.9421 11.8136C66.8307 11.4243 66.6469 11.1129 66.3796 10.8849C66.1011 10.6513 65.7614 10.4789 65.3716 10.3788C64.9762 10.2787 64.3023 10.2286 63.3444 10.2286H63.3332Z" fill="#02070C"/>
<path d="M71.4922 22.5026V8.98291H73.8034L81.1436 21.051V8.98291H82.6361V22.5026H80.3249L72.9847 10.4177V22.5026H71.4922Z" fill="#02070C"/>
<path d="M85.9219 22.5026V8.98291H88.2331L95.5733 21.051V8.98291H97.0658V22.5026H94.7546L87.4144 10.4177V22.5026H85.9219Z" fill="#02070C"/>
<path d="M100.356 22.5026V8.98291H109.852V10.4177H101.849V14.839H109.624V16.2182H101.849V21.0844H109.852V22.5026H100.356Z" fill="#02070C"/>
<path d="M111.83 13.4486C111.83 11.7191 112.164 10.5123 112.827 9.83377C113.489 9.15528 114.665 8.81604 116.341 8.81604H117.922C119.588 8.81604 120.757 9.11079 121.431 9.69473C122.105 10.2787 122.439 11.2686 122.439 12.6701V13.2596H120.891V12.8869C120.891 11.8637 120.679 11.1629 120.262 10.7903C119.844 10.4177 119.025 10.2286 117.806 10.2286H116.759C115.94 10.2286 115.344 10.2787 114.971 10.3788C114.598 10.4789 114.286 10.6457 114.041 10.8849C113.79 11.1129 113.618 11.4188 113.517 11.7858C113.417 12.1529 113.367 12.8369 113.367 13.8268V17.6753C113.367 18.6541 113.417 19.3326 113.517 19.7052C113.618 20.0778 113.79 20.3781 114.041 20.6061C114.291 20.8397 114.592 21.0121 114.943 21.1122C115.294 21.2123 115.901 21.2623 116.759 21.2623H117.806C119.053 21.2623 119.883 21.0677 120.295 20.6728C120.707 20.278 120.913 19.5272 120.913 18.4094C120.913 18.2425 120.913 18.1091 120.913 18.0201C120.913 17.9311 120.908 17.8421 120.902 17.7643H122.439V18.6541C122.439 20.1556 122.11 21.2012 121.459 21.7851C120.807 22.3746 119.627 22.6638 117.917 22.6638H116.335C114.653 22.6638 113.484 22.3246 112.821 21.6461C112.158 20.9676 111.824 19.7608 111.824 18.0312V13.4431L111.83 13.4486Z" fill="#02070C"/>
<path d="M123.135 10.4177V8.98291H133.276V10.4177H128.949V22.5026H127.451V10.4177H123.14H123.135Z" fill="#02070C"/>
<path d="M134.702 22.5026V8.98291H136.211V22.5026H134.702Z" fill="#02070C"/>
<path d="M139.057 13.4486C139.057 11.7246 139.413 10.5178 140.131 9.83933C140.844 9.16084 142.114 8.81604 143.941 8.81604H145.651C147.494 8.81604 148.769 9.14972 149.477 9.82265C150.184 10.4956 150.535 11.7024 150.535 13.4486V18.0368C150.535 19.7663 150.178 20.9732 149.46 21.6516C148.741 22.3301 147.472 22.6694 145.656 22.6694H143.946C142.12 22.6694 140.85 22.3301 140.137 21.6516C139.424 20.9732 139.062 19.7663 139.062 18.0368V13.4486H139.057ZM145.205 10.2286H144.37C143.417 10.2286 142.743 10.2787 142.354 10.3843C141.958 10.49 141.618 10.6624 141.334 10.9015C141.067 11.1296 140.878 11.441 140.772 11.8303C140.661 12.2196 140.61 12.8925 140.61 13.8435V17.6753C140.61 18.6207 140.666 19.2825 140.772 19.6662C140.883 20.05 141.067 20.3558 141.334 20.5894C141.618 20.8341 141.958 21.0065 142.354 21.1066C142.749 21.2123 143.423 21.2623 144.37 21.2623H145.205C146.157 21.2623 146.831 21.2123 147.232 21.1066C147.633 21.001 147.973 20.8286 148.262 20.5894C148.524 20.367 148.708 20.0667 148.814 19.6885C148.92 19.3159 148.975 18.6429 148.975 17.6753V13.8268C148.975 12.8758 148.92 12.2085 148.814 11.8136C148.702 11.4243 148.519 11.1129 148.251 10.8849C147.973 10.6513 147.633 10.4789 147.243 10.3788C146.848 10.2787 146.174 10.2286 145.216 10.2286H145.205Z" fill="#02070C"/>
<path d="M153.364 22.5026V8.98291H155.675L163.016 21.051V8.98291H164.508V22.5026H162.197L154.857 10.4177V22.5026H153.364Z" fill="#02070C"/>
<path d="M44.6982 26.5236H45.2329L46.3022 30.5611L47.377 26.5236H48.1122L49.1926 30.5611L50.2619 26.5236H50.8021L49.5267 31.1895H48.864L47.7446 27.0797L46.6475 31.1895H45.9624L44.7094 26.5236H44.6982Z" fill="#02070C"/>
<path d="M51.4873 31.1895V26.5236H51.9551V28.3421C52.0331 28.1753 52.1612 28.0474 52.3394 27.9695C52.5176 27.8917 52.7459 27.8472 53.0355 27.8472C53.4699 27.8472 53.7707 27.9361 53.9433 28.1085C54.116 28.2809 54.2051 28.5924 54.2051 29.0262V31.1895H53.715V29.1318C53.715 28.787 53.6649 28.559 53.5646 28.4533C53.4644 28.3421 53.2639 28.2921 52.9743 28.2921C52.629 28.2921 52.3784 28.3699 52.2169 28.5256C52.0554 28.6814 51.9774 28.9316 51.9774 29.2764V31.1951H51.4929L51.4873 31.1895Z" fill="#02070C"/>
<path d="M56.3877 31.234C55.892 31.234 55.5467 31.1394 55.3518 30.9448C55.1569 30.7501 55.0566 30.4165 55.0566 29.9326V29.1485C55.0566 28.6646 55.1569 28.3254 55.3518 28.1307C55.5467 27.9361 55.892 27.8416 56.3821 27.8416H56.6104C57.1061 27.8416 57.4514 27.9361 57.6463 28.1307C57.8412 28.3254 57.9415 28.6591 57.9415 29.1485V29.649H55.5634C55.5634 29.6879 55.5634 29.7213 55.5634 29.7658C55.5634 29.8047 55.5634 29.8659 55.5634 29.9382C55.5634 30.2774 55.6191 30.5054 55.7249 30.6222C55.8363 30.739 56.0535 30.7946 56.3821 30.7946H56.6104C56.9056 30.7946 57.1117 30.7501 57.2286 30.6667C57.3456 30.5833 57.4124 30.4331 57.4291 30.2218H57.9359C57.9081 30.5777 57.7967 30.8391 57.5906 30.9948C57.3846 31.1561 57.0615 31.234 56.616 31.234H56.3877ZM55.5634 29.2208H57.4347V29.0929C57.4347 28.7814 57.379 28.5757 57.2676 28.4644C57.1562 28.3532 56.939 28.2976 56.6104 28.2976H56.3821C56.0535 28.2976 55.8363 28.3532 55.7305 28.4644C55.6191 28.5757 55.569 28.787 55.569 29.0929V29.2208H55.5634Z" fill="#02070C"/>
<path d="M58.8164 31.1895V27.886H59.2898V28.3365C59.3566 28.1641 59.468 28.0418 59.6128 27.9583C59.7576 27.8805 59.9525 27.8416 60.1976 27.8416C60.5596 27.8416 60.8102 27.9305 60.955 28.1029C61.0998 28.2753 61.1722 28.5812 61.1722 29.0261V29.0539H60.6821V28.9594C60.6821 28.698 60.6375 28.52 60.554 28.4255C60.4705 28.3365 60.3145 28.2865 60.0806 28.2865C59.8077 28.2865 59.6128 28.3643 59.4903 28.5145C59.3678 28.6702 59.3065 28.9205 59.3065 29.2708V31.1895H58.8164Z" fill="#02070C"/>
<path d="M63.0263 31.234C62.5307 31.234 62.1854 31.1394 61.9905 30.9448C61.7956 30.7501 61.6953 30.4165 61.6953 29.9326V29.1485C61.6953 28.6646 61.7956 28.3254 61.9905 28.1307C62.1854 27.9361 62.5307 27.8416 63.0208 27.8416H63.2491C63.7448 27.8416 64.0901 27.9361 64.285 28.1307C64.4799 28.3254 64.5801 28.6591 64.5801 29.1485V29.649H62.2021C62.2021 29.6879 62.2021 29.7213 62.2021 29.7658C62.2021 29.8047 62.2021 29.8659 62.2021 29.9382C62.2021 30.2774 62.2578 30.5054 62.3636 30.6222C62.475 30.739 62.6922 30.7946 63.0208 30.7946H63.2491C63.5443 30.7946 63.7503 30.7501 63.8673 30.6667C63.9842 30.5833 64.0511 30.4331 64.0678 30.2218H64.5746C64.5467 30.5777 64.4353 30.8391 64.2293 30.9948C64.0232 31.1561 63.7002 31.234 63.2547 31.234H63.0263ZM62.2021 29.2208H64.0734V29.0929C64.0734 28.7814 64.0177 28.5757 63.9063 28.4644C63.7949 28.3532 63.5777 28.2976 63.2491 28.2976H63.0208C62.6922 28.2976 62.475 28.3532 62.3692 28.4644C62.2578 28.5757 62.2077 28.787 62.2077 29.0929V29.2208H62.2021Z" fill="#02070C"/>
<path d="M67.3027 28.3087V27.8916H67.7093V27.1464H68.1994V27.8916H69.82V28.3087H68.1994V30.1272C68.1994 30.3886 68.2439 30.561 68.3275 30.6556C68.411 30.7501 68.5725 30.7946 68.812 30.7946C69.0515 30.7946 69.2074 30.7501 69.2909 30.6611C69.3745 30.5722 69.4135 30.3942 69.4135 30.1272V30.0327H69.9091V30.0605C69.9091 30.5221 69.8311 30.8391 69.6808 31.0004C69.5248 31.1617 69.2074 31.2395 68.7229 31.2395C68.3442 31.2395 68.0824 31.1561 67.9321 30.9837C67.7873 30.8113 67.7093 30.5054 67.7093 30.0605V28.3087H67.3027Z" fill="#02070C"/>
<path d="M70.8066 31.1895V26.5236H71.2744V28.3421C71.3524 28.1753 71.4805 28.0474 71.6587 27.9695C71.8369 27.8917 72.0653 27.8472 72.3549 27.8472C72.7893 27.8472 73.09 27.9361 73.2627 28.1085C73.4353 28.2809 73.5244 28.5924 73.5244 29.0262V31.1895H73.0343V29.1318C73.0343 28.787 72.9842 28.559 72.8839 28.4533C72.7837 28.3421 72.5832 28.2921 72.2936 28.2921C71.9483 28.2921 71.6977 28.3699 71.5362 28.5256C71.3747 28.6814 71.2967 28.9316 71.2967 29.2764V31.1951H70.8122L70.8066 31.1895Z" fill="#02070C"/>
<path d="M75.707 31.234C75.2114 31.234 74.8661 31.1394 74.6711 30.9448C74.4762 30.7501 74.376 30.4165 74.376 29.9326V29.1485C74.376 28.6646 74.4762 28.3254 74.6711 28.1307C74.8661 27.9361 75.2113 27.8416 75.7014 27.8416H75.9298C76.4254 27.8416 76.7707 27.9361 76.9656 28.1307C77.1606 28.3254 77.2608 28.6591 77.2608 29.1485V29.649H74.8828C74.8828 29.6879 74.8828 29.7213 74.8828 29.7658C74.8828 29.8047 74.8828 29.8659 74.8828 29.9382C74.8828 30.2774 74.9385 30.5054 75.0443 30.6222C75.1557 30.739 75.3729 30.7946 75.7014 30.7946H75.9298C76.2249 30.7946 76.431 30.7501 76.548 30.6667C76.6649 30.5833 76.7317 30.4331 76.7484 30.2218H77.2552C77.2274 30.5777 77.116 30.8391 76.9099 30.9948C76.7039 31.1561 76.3809 31.234 75.9353 31.234H75.707ZM74.8828 29.2208H76.754V29.0929C76.754 28.7814 76.6983 28.5757 76.5869 28.4644C76.4756 28.3532 76.2584 28.2976 75.9298 28.2976H75.7014C75.3729 28.2976 75.1557 28.3532 75.0498 28.4644C74.9385 28.5757 74.8883 28.787 74.8883 29.0929V29.2208H74.8828Z" fill="#02070C"/>
<path d="M79.9951 26.5236H80.5298L81.599 30.5611L82.6739 26.5236H83.409L84.4894 30.5611L85.5587 26.5236H86.0989L84.8236 31.1895H84.1609L83.0415 27.0797L81.9443 31.1895H81.2593L80.0063 26.5236H79.9951Z" fill="#02070C"/>
<path d="M87.7529 31.234C87.2573 31.234 86.912 31.1394 86.717 30.9448C86.5221 30.7501 86.4219 30.4165 86.4219 29.9326V29.1485C86.4219 28.6646 86.5221 28.3254 86.717 28.1307C86.912 27.9361 87.2573 27.8416 87.7473 27.8416H87.9757C88.4713 27.8416 88.8166 27.9361 89.0115 28.1307C89.2065 28.3254 89.3067 28.6591 89.3067 29.1485V29.9326C89.3067 30.4165 89.2065 30.7557 89.0115 30.9448C88.8166 31.1339 88.4713 31.234 87.9812 31.234H87.7529ZM88.7999 29.8214V29.2597C88.7999 28.8426 88.7442 28.5812 88.644 28.4644C88.5382 28.3532 88.3154 28.292 87.9757 28.292H87.7473C87.4076 28.292 87.1904 28.3476 87.0846 28.4589C86.9788 28.5701 86.9287 28.837 86.9287 29.2541V29.8158C86.9287 30.2385 86.9788 30.4999 87.0846 30.6167C87.1904 30.7279 87.4076 30.7835 87.7418 30.7835H87.9701C88.3098 30.7835 88.527 30.7279 88.6384 30.6111C88.7498 30.4943 88.7999 30.2329 88.7999 29.8158V29.8214Z" fill="#02070C"/>
<path d="M90.1816 31.1895V27.886H90.655V28.3365C90.7219 28.1641 90.8332 28.0418 90.978 27.9583C91.1228 27.8805 91.3178 27.8416 91.5628 27.8416C91.9248 27.8416 92.1754 27.9305 92.3202 28.1029C92.465 28.2753 92.5374 28.5812 92.5374 29.0261V29.0539H92.0473V28.9594C92.0473 28.698 92.0028 28.52 91.9192 28.4255C91.8357 28.3365 91.6798 28.2865 91.4458 28.2865C91.173 28.2865 90.978 28.3643 90.8555 28.5145C90.733 28.6702 90.6717 28.9205 90.6717 29.2708V31.1895H90.1816Z" fill="#02070C"/>
<path d="M93.2002 31.1895V26.5236H93.6847V31.1895H93.2002Z" fill="#02070C"/>
<path d="M96.8982 30.6834C96.8203 30.878 96.6977 31.0171 96.5307 31.106C96.3636 31.195 96.1408 31.2395 95.8568 31.2395C95.3834 31.2395 95.0548 31.1394 94.8599 30.9448C94.665 30.7501 94.5703 30.4109 94.5703 29.9382V29.154C94.5703 28.6757 94.665 28.3365 94.8599 28.1418C95.0548 27.9472 95.389 27.8471 95.8568 27.8471C96.1297 27.8471 96.3469 27.886 96.5028 27.9694C96.6588 28.0529 96.7868 28.1808 96.8815 28.3643V26.5291H97.3716V31.195H96.8982V30.6889V30.6834ZM96.8815 29.8102V29.2708C96.8815 28.926 96.8036 28.6757 96.642 28.52C96.4805 28.3643 96.2244 28.2864 95.8735 28.2864C95.5505 28.2864 95.3389 28.3421 95.233 28.4588C95.1272 28.5756 95.0771 28.8426 95.0771 29.2597V29.8214C95.0771 30.2385 95.1272 30.5054 95.233 30.6166C95.3389 30.7279 95.5505 30.789 95.8735 30.789C96.2244 30.789 96.4805 30.7112 96.642 30.5555C96.8036 30.3998 96.8815 30.1495 96.8815 29.8102Z" fill="#02070C"/>
<path d="M100.473 28.064C100.473 27.4689 100.59 27.0518 100.819 26.8183C101.047 26.5847 101.454 26.4679 102.033 26.4679H102.578C103.152 26.4679 103.559 26.568 103.793 26.7682C104.026 26.9684 104.143 27.3132 104.143 27.7971V28.0028H103.609V27.8749C103.609 27.5246 103.536 27.2799 103.392 27.1519C103.247 27.024 102.963 26.9573 102.545 26.9573H102.183C101.899 26.9573 101.693 26.974 101.565 27.0073C101.437 27.0407 101.331 27.1019 101.242 27.1797C101.158 27.2576 101.097 27.3633 101.064 27.4912C101.03 27.6191 101.014 27.8527 101.014 28.1975V29.5266C101.014 29.8659 101.03 30.0995 101.064 30.2274C101.097 30.3553 101.158 30.4609 101.242 30.5388C101.325 30.6222 101.431 30.6778 101.554 30.7112C101.676 30.7446 101.882 30.7613 102.178 30.7613H102.54C102.968 30.7613 103.258 30.6945 103.397 30.5555C103.536 30.4165 103.609 30.1606 103.609 29.7769C103.609 29.7157 103.609 29.6712 103.609 29.6434C103.609 29.6101 103.609 29.5823 103.609 29.5544H104.138V29.8603C104.138 30.3775 104.026 30.739 103.798 30.9392C103.575 31.1394 103.163 31.2451 102.573 31.2451H102.027C101.448 31.2451 101.041 31.1283 100.813 30.8947C100.585 30.6612 100.468 30.2441 100.468 29.649V28.064H100.473Z" fill="#02070C"/>
<path d="M106.153 31.234C105.658 31.234 105.312 31.1394 105.117 30.9448C104.923 30.7501 104.822 30.4165 104.822 29.9326V29.1485C104.822 28.6646 104.923 28.3254 105.117 28.1307C105.312 27.9361 105.658 27.8416 106.148 27.8416H106.376C106.872 27.8416 107.217 27.9361 107.412 28.1307C107.607 28.3254 107.707 28.6591 107.707 29.1485V29.9326C107.707 30.4165 107.607 30.7557 107.412 30.9448C107.217 31.1339 106.872 31.234 106.382 31.234H106.153ZM107.2 29.8214V29.2597C107.2 28.8426 107.145 28.5812 107.044 28.4644C106.939 28.3532 106.716 28.292 106.376 28.292H106.148C105.808 28.292 105.591 28.3476 105.485 28.4589C105.379 28.5701 105.329 28.837 105.329 29.2541V29.8158C105.329 30.2385 105.379 30.4999 105.485 30.6167C105.591 30.7279 105.808 30.7835 106.142 30.7835H106.37C106.71 30.7835 106.927 30.7279 107.039 30.6111C107.15 30.4943 107.2 30.2329 107.2 29.8158V29.8214Z" fill="#02070C"/>
<path d="M108.66 31.1895V27.886H109.139V28.3365C109.205 28.1697 109.322 28.0418 109.484 27.9639C109.645 27.886 109.863 27.8416 110.124 27.8416C110.403 27.8416 110.625 27.886 110.781 27.9695C110.937 28.0529 111.06 28.1919 111.132 28.3866C111.227 28.1919 111.355 28.0529 111.511 27.9695C111.667 27.886 111.873 27.8416 112.129 27.8416C112.564 27.8416 112.864 27.925 113.031 28.0974C113.198 28.2698 113.282 28.5757 113.282 29.0206V31.1839H112.792V29.1763C112.792 28.8092 112.742 28.5701 112.647 28.4533C112.552 28.3421 112.369 28.2809 112.09 28.2809C111.784 28.2809 111.561 28.3588 111.422 28.5145C111.283 28.6702 111.216 28.9205 111.216 29.2653V31.1839H110.742V28.9483C110.742 28.6869 110.692 28.5089 110.598 28.4199C110.503 28.3254 110.319 28.2809 110.052 28.2809C109.74 28.2809 109.506 28.3588 109.361 28.52C109.216 28.6813 109.139 28.926 109.139 29.2653V31.1839H108.648L108.66 31.1895Z" fill="#02070C"/>
<path d="M115.465 31.234C114.969 31.234 114.624 31.1394 114.429 30.9448C114.234 30.7501 114.134 30.4165 114.134 29.9326V29.1485C114.134 28.6646 114.234 28.3254 114.429 28.1307C114.624 27.9361 114.969 27.8416 115.459 27.8416H115.688C116.183 27.8416 116.529 27.9361 116.723 28.1307C116.918 28.3254 117.019 28.6591 117.019 29.1485V29.649H114.641C114.641 29.6879 114.641 29.7213 114.641 29.7658C114.641 29.8047 114.641 29.8659 114.641 29.9382C114.641 30.2774 114.696 30.5054 114.802 30.6222C114.913 30.739 115.131 30.7946 115.459 30.7946H115.688C115.983 30.7946 116.189 30.7501 116.306 30.6667C116.423 30.5833 116.49 30.4331 116.506 30.2218H117.013C116.985 30.5777 116.874 30.8391 116.668 30.9948C116.462 31.1561 116.139 31.234 115.693 31.234H115.465ZM114.646 29.2208H116.517V29.0929C116.517 28.7814 116.462 28.5757 116.35 28.4644C116.239 28.3532 116.022 28.2976 115.693 28.2976H115.465C115.136 28.2976 114.919 28.3532 114.813 28.4644C114.702 28.5757 114.652 28.787 114.652 29.0929V29.2208H114.646Z" fill="#02070C"/>
<path d="M117.782 30.2107H118.278V30.2886C118.278 30.4888 118.339 30.6334 118.467 30.7057C118.595 30.7836 118.846 30.8225 119.225 30.8225C119.648 30.8225 119.91 30.7836 120.01 30.7057C120.11 30.6278 120.155 30.4777 120.155 30.2552C120.155 30.0328 120.116 29.8937 120.032 29.8214C119.954 29.7492 119.748 29.7047 119.431 29.688C119.314 29.6824 119.152 29.6769 118.946 29.6713C118.501 29.6602 118.239 29.6268 118.155 29.5823C118.027 29.5156 117.938 29.421 117.888 29.2987C117.832 29.1819 117.81 29.0095 117.81 28.787C117.81 28.42 117.905 28.1753 118.089 28.0418C118.272 27.9139 118.684 27.8472 119.319 27.8472C119.809 27.8472 120.144 27.9083 120.322 28.0307C120.494 28.153 120.584 28.3699 120.584 28.6814H120.093V28.648C120.093 28.5034 120.032 28.4033 119.904 28.3477C119.776 28.2921 119.525 28.2643 119.147 28.2643C118.768 28.2643 118.551 28.2976 118.451 28.3644C118.35 28.4311 118.3 28.5701 118.3 28.787C118.3 28.9149 118.311 29.0095 118.328 29.0595C118.345 29.1096 118.378 29.1541 118.428 29.1763C118.528 29.2264 118.746 29.2598 119.08 29.2653C119.163 29.2653 119.23 29.2653 119.28 29.2709C119.559 29.282 119.77 29.2931 119.932 29.3154C120.088 29.332 120.199 29.3599 120.266 29.3877C120.411 29.4544 120.517 29.5489 120.578 29.6769C120.639 29.8048 120.673 29.9827 120.673 30.2219C120.673 30.461 120.645 30.6501 120.584 30.7724C120.522 30.9003 120.416 31.006 120.255 31.1061C120.183 31.1506 120.066 31.184 119.904 31.2062C119.743 31.2285 119.52 31.234 119.23 31.234C118.645 31.234 118.256 31.1673 118.066 31.0338C117.877 30.9003 117.782 30.6556 117.782 30.2997V30.2107Z" fill="#02070C"/>
<path d="M123.246 27.0185V26.5236H126.749V27.0185H125.257V31.1895H124.739V27.0185H123.252H123.246Z" fill="#02070C"/>
<path d="M127.462 31.234C126.966 31.234 126.621 31.1394 126.426 30.9448C126.231 30.7501 126.131 30.4165 126.131 29.9326V29.1485C126.131 28.6646 126.231 28.3254 126.426 28.1307C126.621 27.9361 126.966 27.8416 127.456 27.8416H127.685C128.18 27.8416 128.526 27.9361 128.721 28.1307C128.915 28.3254 129.016 28.6591 129.016 29.1485V29.9326C129.016 30.4165 128.915 30.7557 128.721 30.9448C128.526 31.1339 128.18 31.234 127.69 31.234H127.462ZM128.509 29.8214V29.2597C128.509 28.8426 128.453 28.5812 128.353 28.4644C128.247 28.3532 128.024 28.292 127.685 28.292H127.456C127.117 28.292 126.899 28.3476 126.794 28.4589C126.688 28.5701 126.638 28.837 126.638 29.2541V29.8158C126.638 30.2385 126.688 30.4999 126.794 30.6167C126.899 30.7279 127.117 30.7835 127.451 30.7835H127.679C128.019 30.7835 128.236 30.7279 128.347 30.6111C128.459 30.4943 128.509 30.2329 128.509 29.8158V29.8214Z" fill="#02070C"/>
<path d="M132.657 27.8916V31.1561C132.657 31.6399 132.563 31.9792 132.373 32.1683C132.184 32.3574 131.85 32.4575 131.371 32.4575H131.143C130.714 32.4575 130.396 32.3796 130.196 32.2239C129.995 32.0682 129.884 31.8068 129.856 31.4453H130.357C130.38 31.6566 130.446 31.8012 130.552 31.8846C130.664 31.9681 130.859 32.007 131.148 32.007H131.365C131.655 32.007 131.861 31.9625 131.984 31.868C132.106 31.7734 132.167 31.6177 132.167 31.4064V30.7223C132.073 30.9058 131.95 31.0338 131.789 31.1172C131.627 31.195 131.41 31.2395 131.137 31.2395C130.664 31.2395 130.335 31.145 130.14 30.9503C129.945 30.7557 129.851 30.422 129.851 29.9382V29.154C129.851 28.6757 129.945 28.3365 130.14 28.1419C130.335 27.9472 130.664 27.8527 131.137 27.8527C131.421 27.8527 131.644 27.8972 131.811 27.9861C131.978 28.0751 132.106 28.2197 132.184 28.4088V27.8972H132.652L132.657 27.8916ZM132.173 29.8103V29.2708C132.173 28.926 132.095 28.6757 131.933 28.52C131.772 28.3643 131.516 28.2864 131.165 28.2864C130.847 28.2864 130.63 28.3421 130.524 28.4588C130.419 28.5756 130.363 28.8426 130.363 29.2541V29.8158C130.363 30.2274 130.419 30.4943 130.524 30.6111C130.63 30.7279 130.847 30.7835 131.165 30.7835C131.521 30.7835 131.778 30.7056 131.933 30.5499C132.095 30.3942 132.173 30.1439 132.173 29.8047V29.8103Z" fill="#02070C"/>
<path d="M134.869 31.234C134.373 31.234 134.028 31.1394 133.833 30.9448C133.638 30.7501 133.538 30.4165 133.538 29.9326V29.1485C133.538 28.6646 133.638 28.3254 133.833 28.1307C134.028 27.9361 134.373 27.8416 134.864 27.8416H135.092C135.588 27.8416 135.933 27.9361 136.128 28.1307C136.323 28.3254 136.423 28.6591 136.423 29.1485V29.649H134.045C134.045 29.6879 134.045 29.7213 134.045 29.7658C134.045 29.8047 134.045 29.8659 134.045 29.9382C134.045 30.2774 134.101 30.5054 134.206 30.6222C134.318 30.739 134.535 30.7946 134.864 30.7946H135.092C135.387 30.7946 135.593 30.7501 135.71 30.6667C135.827 30.5833 135.894 30.4331 135.911 30.2218H136.417C136.39 30.5777 136.278 30.8391 136.072 30.9948C135.866 31.1561 135.543 31.234 135.097 31.234H134.869ZM134.05 29.2208H135.922V29.0929C135.922 28.7814 135.866 28.5757 135.755 28.4644C135.643 28.3532 135.426 28.2976 135.097 28.2976H134.869C134.541 28.2976 134.323 28.3532 134.218 28.4644C134.106 28.5757 134.056 28.787 134.056 29.0929V29.2208H134.05Z" fill="#02070C"/>
<path d="M136.979 28.3087V27.8916H137.386V27.1464H137.876V27.8916H139.497V28.3087H137.876V30.1272C137.876 30.3886 137.921 30.561 138.004 30.6556C138.088 30.7501 138.249 30.7946 138.489 30.7946C138.728 30.7946 138.884 30.7501 138.968 30.6611C139.051 30.5722 139.09 30.3942 139.09 30.1272V30.0327H139.586V30.0605C139.586 30.5221 139.508 30.8391 139.358 31.0004C139.202 31.1617 138.884 31.2395 138.4 31.2395C138.021 31.2395 137.759 31.1561 137.609 30.9837C137.464 30.8113 137.386 30.5054 137.386 30.0605V28.3087H136.979Z" fill="#02070C"/>
<path d="M140.477 31.1895V26.5236H140.944V28.3421C141.022 28.1753 141.15 28.0474 141.329 27.9695C141.507 27.8917 141.735 27.8472 142.025 27.8472C142.459 27.8472 142.76 27.9361 142.933 28.1085C143.105 28.2809 143.194 28.5924 143.194 29.0262V31.1895H142.704V29.1318C142.704 28.787 142.654 28.559 142.554 28.4533C142.454 28.3421 142.253 28.2921 141.964 28.2921C141.618 28.2921 141.368 28.3699 141.206 28.5256C141.045 28.6814 140.967 28.9316 140.967 29.2764V31.1951H140.482L140.477 31.1895Z" fill="#02070C"/>
<path d="M145.378 31.234C144.882 31.234 144.537 31.1394 144.342 30.9448C144.147 30.7501 144.047 30.4165 144.047 29.9326V29.1485C144.047 28.6646 144.147 28.3254 144.342 28.1307C144.537 27.9361 144.882 27.8416 145.372 27.8416H145.601C146.096 27.8416 146.442 27.9361 146.637 28.1307C146.831 28.3254 146.932 28.6591 146.932 29.1485V29.649H144.554C144.554 29.6879 144.554 29.7213 144.554 29.7658C144.554 29.8047 144.554 29.8659 144.554 29.9382C144.554 30.2774 144.609 30.5054 144.715 30.6222C144.827 30.739 145.044 30.7946 145.372 30.7946H145.601C145.896 30.7946 146.102 30.7501 146.219 30.6667C146.336 30.5833 146.403 30.4331 146.419 30.2218H146.926C146.898 30.5777 146.787 30.8391 146.581 30.9948C146.375 31.1561 146.052 31.234 145.606 31.234H145.378ZM144.554 29.2208H146.425V29.0929C146.425 28.7814 146.369 28.5757 146.258 28.4644C146.146 28.3532 145.929 28.2976 145.601 28.2976H145.372C145.044 28.2976 144.827 28.3532 144.721 28.4644C144.609 28.5757 144.559 28.787 144.559 29.0929V29.2208H144.554Z" fill="#02070C"/>
<path d="M147.806 31.1895V27.886H148.279V28.3365C148.346 28.1641 148.457 28.0418 148.602 27.9583C148.747 27.8805 148.942 27.8416 149.187 27.8416C149.549 27.8416 149.799 27.9305 149.944 28.1029C150.089 28.2753 150.161 28.5812 150.161 29.0261V29.0539H149.671V28.9594C149.671 28.698 149.627 28.52 149.543 28.4255C149.46 28.3365 149.304 28.2865 149.07 28.2865C148.797 28.2865 148.602 28.3643 148.48 28.5145C148.357 28.6702 148.296 28.9205 148.296 29.2708V31.1895H147.806Z" fill="#02070C"/>
<path fill-rule="evenodd" clip-rule="evenodd" d="M31.5599 3.15464C30.3124 1.9089 28.2741 1.9089 27.021 3.15464C24.8212 5.35138 22.6213 7.54811 20.4271 9.73928C18.2328 7.54811 19.2186 8.53247 17.0243 6.3413C15.7768 5.09556 13.7329 5.09556 12.4854 6.3413C11.2379 7.58704 11.2379 9.62249 12.4854 10.8738C14.6017 12.9871 13.5436 11.9305 15.6599 14.0438C18.2829 16.6632 22.5656 16.6632 25.1943 14.0438C27.3162 11.9249 29.438 9.80602 31.5599 7.68714C32.8074 6.4414 32.8074 4.40039 31.5599 3.15464Z" fill="#4376BA"/>
<path fill-rule="evenodd" clip-rule="evenodd" d="M20.428 9.73928C22.6278 7.54255 24.8276 5.34582 27.0219 3.15464C28.2694 1.9089 30.3133 1.9089 31.5608 3.15464C32.8083 4.40039 32.8083 6.4414 31.5608 7.68714C30.4971 8.74936 29.4333 9.81158 28.3696 10.8738C27.3115 11.9305 26.2533 12.9871 25.1952 14.0438C22.5721 16.6632 18.2894 16.6632 15.6608 14.0438C14.6026 12.9871 13.5445 11.9305 12.4863 10.8738C14.4801 12.8648 18.3228 11.8415 20.428 9.73928Z" fill="#479FD7"/>
<path fill-rule="evenodd" clip-rule="evenodd" d="M17.9886 1.01356C19.3419 -0.337852 21.5306 -0.337852 22.8839 1.01356C24.2372 2.36496 24.2372 4.55057 22.8839 5.90198C21.5306 7.25339 19.3419 7.25339 17.9886 5.90198C16.6353 4.55057 16.6353 2.36496 17.9886 1.01356Z" fill="#4376BA"/>
<path fill-rule="evenodd" clip-rule="evenodd" d="M37.3073 31.1061C38.5548 29.8603 38.5548 27.8193 37.3073 26.5736C35.1075 24.3768 32.9077 22.1801 30.7134 19.9889C32.9077 17.7978 31.9219 18.7821 34.1162 16.5909C35.3637 15.3452 35.3637 13.3042 34.1162 12.0585C32.8687 10.8127 30.8248 10.8127 29.5773 12.0585C27.461 14.1718 28.5192 13.1151 26.4029 15.2284C23.7798 17.8478 23.7798 22.1245 26.4029 24.7494C28.5247 26.8683 30.6466 28.9872 32.7684 31.1061C34.0159 32.3518 36.0598 32.3518 37.3073 31.1061Z" fill="#C73427"/>
<path fill-rule="evenodd" clip-rule="evenodd" d="M30.7085 19.9888C32.9084 22.1856 35.1082 24.3823 37.3024 26.5735C38.5499 27.8192 38.5499 29.8602 37.3024 31.106C36.0549 32.3517 34.011 32.3517 32.7636 31.106C31.6998 30.0437 30.6361 28.9815 29.5724 27.9193C28.5143 26.8627 27.4561 25.806 26.398 24.7493C23.7749 22.13 23.7749 17.8533 26.398 15.2283C27.4561 14.1717 28.5143 13.115 29.5724 12.0583C27.5786 14.0493 28.6034 17.8866 30.7085 19.9888Z" fill="#EF4923"/>
<path fill-rule="evenodd" clip-rule="evenodd" d="M39.4464 17.5586C40.7997 18.91 40.7997 21.0956 39.4464 22.447C38.0931 23.7984 35.9044 23.7984 34.5511 22.447C33.1978 21.0956 33.1978 18.91 34.5511 17.5586C35.9044 16.2072 38.0931 16.2072 39.4464 17.5586Z" fill="#C73427"/>
<path fill-rule="evenodd" clip-rule="evenodd" d="M9.3116 36.8454C10.5591 38.0911 12.603 38.0911 13.8505 36.8454C16.0503 34.6486 18.2501 32.4519 20.4444 30.2607C22.6387 32.4519 21.6529 31.4675 23.8472 33.6587C25.0947 34.9045 27.1385 34.9045 28.386 33.6587C29.6335 32.413 29.6335 30.372 28.386 29.1262C26.2698 27.0129 27.3279 28.0696 25.2116 25.9562C22.5885 23.3369 18.3058 23.3369 15.6772 25.9562C13.5553 28.0751 11.4335 30.194 9.3116 32.3129C8.0641 33.5586 8.0641 35.5996 9.3116 36.8454Z" fill="#F48020"/>
<path fill-rule="evenodd" clip-rule="evenodd" d="M20.4444 30.2607C18.2446 32.4575 16.0447 34.6542 13.8505 36.8454C12.603 38.0911 10.5591 38.0911 9.3116 36.8454C8.0641 35.5996 8.0641 33.5586 9.3116 32.3129C10.3753 31.2507 11.439 30.1884 12.5027 29.1262C13.5609 28.0696 14.619 27.0129 15.6772 25.9562C18.3003 23.3369 22.583 23.3369 25.2116 25.9562C26.2698 27.0129 27.3279 28.0696 28.386 29.1262C26.3923 27.1353 22.5495 28.1585 20.4444 30.2607Z" fill="#FACF1E"/>
<path fill-rule="evenodd" clip-rule="evenodd" d="M22.8839 38.9865C21.5306 40.3379 19.3419 40.3379 17.9886 38.9865C16.6353 37.635 16.6353 35.4494 17.9886 34.098C19.3419 32.7466 21.5306 32.7466 22.8839 34.098C24.2372 35.4494 24.2372 37.635 22.8839 38.9865Z" fill="#F48020"/>
<path fill-rule="evenodd" clip-rule="evenodd" d="M3.56941 8.8939C2.32191 10.1396 2.32191 12.1807 3.56941 13.4264C5.76924 15.6231 7.96907 17.8199 10.1633 20.011C7.96907 22.2022 8.95481 21.2179 6.76055 23.409C5.51306 24.6548 5.51306 26.6958 6.76055 27.9415C8.00805 29.1873 10.0519 29.1873 11.2994 27.9415C13.4157 25.8282 12.3576 26.8849 14.4739 24.7716C17.097 22.1522 17.097 17.8755 14.4739 15.2505C12.352 13.1316 10.2302 11.0128 8.10829 8.8939C6.8608 7.64816 4.81691 7.64816 3.56941 8.8939Z" fill="#008560"/>
<path fill-rule="evenodd" clip-rule="evenodd" d="M10.1633 20.011C7.9635 17.8143 5.76367 15.6176 3.56941 13.4264C2.32191 12.1807 2.32191 10.1396 3.56941 8.8939C4.81691 7.64816 6.8608 7.64816 8.10829 8.8939C9.17201 9.95612 10.2357 11.0183 11.2994 12.0806C12.3576 13.1372 13.4157 14.1939 14.4739 15.2505C17.097 17.8699 17.097 22.1466 14.4739 24.7716C13.4157 25.8282 12.3576 26.8849 11.2994 27.9415C13.2932 25.9506 12.2685 22.1132 10.1633 20.011Z" fill="#06B079"/>
<path fill-rule="evenodd" clip-rule="evenodd" d="M1.42514 22.4414C0.0718284 21.09 0.0718284 18.9044 1.42514 17.553C2.77845 16.2016 4.96714 16.2016 6.32045 17.553C7.67376 18.9044 7.67376 21.09 6.32045 22.4414C4.96714 23.7928 2.77845 23.7928 1.42514 22.4414Z" fill="#008560"/>
<path d="M18.4332 27.8248C18.255 27.7803 18.0768 27.8526 17.9766 27.9972C16.7569 27.6079 15.6431 26.9294 14.7242 26.0173C13.1982 24.4935 12.3628 22.4692 12.3628 20.3058C12.3628 18.9767 12.6859 17.6697 13.304 16.513C13.6772 15.8123 14.1561 15.1616 14.7297 14.5943C15.5373 13.7879 16.4729 13.1817 17.5143 12.7758C17.6201 12.9092 17.8039 12.9704 17.9821 12.9204C18.2105 12.8481 18.3386 12.6089 18.2717 12.3753C18.1993 12.1473 17.9599 12.0194 17.726 12.0862C17.5366 12.1418 17.4197 12.3142 17.4197 12.5033C16.3337 12.9204 15.3646 13.5543 14.5237 14.3885C13.9333 14.9781 13.4377 15.6454 13.0478 16.374C12.413 17.5696 12.0732 18.9266 12.0732 20.3003C12.0732 22.5359 12.942 24.6381 14.5237 26.2175C15.476 27.1685 16.6344 27.8693 17.9042 28.2697C17.9153 28.4532 18.0434 28.62 18.2328 28.6645C18.4667 28.7201 18.7006 28.5811 18.7618 28.3475C18.8175 28.114 18.6783 27.8804 18.4444 27.8192L18.4332 27.8248Z" fill="white"/>
<path d="M28.5585 21.6295C28.3246 21.585 28.0907 21.7352 28.0461 21.9687C28.0071 22.1523 28.0907 22.3247 28.241 22.4192C27.8735 23.7706 27.1606 25.0108 26.1581 26.0118C24.8383 27.3299 23.1174 28.1418 21.274 28.3309C21.2071 28.1752 21.0456 28.0695 20.8619 28.0695C20.6224 28.0751 20.433 28.2753 20.4386 28.5145C20.4442 28.7536 20.6447 28.9427 20.8841 28.9371C21.0791 28.9371 21.2406 28.7981 21.2907 28.6146C23.2065 28.4199 24.9942 27.5801 26.3586 26.2121C27.4001 25.1721 28.1408 23.8874 28.5195 22.4804C28.7033 22.4581 28.8592 22.3247 28.8982 22.1356C28.9483 21.902 28.7924 21.6684 28.5585 21.6239V21.6295Z" fill="white"/>
<path d="M20.8619 12.5367C21.0456 12.5367 21.2016 12.4366 21.274 12.2753C23.1174 12.4644 24.8383 13.2764 26.1581 14.5944C27.1383 15.5732 27.84 16.7689 28.2132 18.0814C28.0684 18.1759 27.9848 18.3539 28.0238 18.5374C28.0739 18.771 28.3079 18.9211 28.5418 18.8711C28.7757 18.821 28.926 18.5875 28.8759 18.3539C28.8369 18.1648 28.6754 18.0313 28.4916 18.0146C28.1074 16.6521 27.3778 15.4064 26.3586 14.3886C24.9886 13.0205 23.2065 12.1808 21.2907 11.9861C21.2406 11.8082 21.0791 11.6691 20.8841 11.6636C20.6447 11.658 20.4442 11.8471 20.4386 12.0862C20.433 12.3254 20.6224 12.5256 20.8619 12.5311V12.5367Z" fill="white"/>
<path d="M13.5604 18.4261C13.3933 19.0323 13.3098 19.6663 13.3098 20.3058C13.3098 20.634 13.3321 20.9676 13.3766 21.2958C13.2095 21.3847 13.1149 21.5794 13.1594 21.774C13.2151 22.0076 13.449 22.1522 13.6829 22.1022C13.9168 22.0465 14.0616 21.813 14.0115 21.5794C13.9725 21.407 13.8277 21.2791 13.6662 21.2513C13.6217 20.9398 13.5994 20.6284 13.5994 20.3114C13.5994 19.6997 13.6774 19.0935 13.8389 18.5095C14.6408 15.5509 17.3586 13.4821 20.4383 13.4821C23.1617 13.4821 25.562 15.0392 26.6703 17.4807C26.5422 17.5975 26.4865 17.781 26.5477 17.9534C26.6313 18.1814 26.8763 18.2982 27.1047 18.2148C27.333 18.1314 27.4499 17.8867 27.3664 17.6586C27.2996 17.4751 27.1214 17.3639 26.9376 17.375C26.4141 16.2127 25.5898 15.2172 24.5317 14.4775C23.3287 13.6378 21.9142 13.1929 20.4383 13.1929C17.2249 13.1929 14.3958 15.3507 13.5548 18.4372L13.5604 18.4261Z" fill="white"/>
<path d="M14.8917 23.7928C14.7692 23.5871 14.5019 23.5148 14.2958 23.6371C14.0898 23.7595 14.0174 24.0264 14.1399 24.2322C14.2401 24.4046 14.4406 24.4769 14.6188 24.4324C15.9554 26.3121 18.0996 27.4244 20.4331 27.4244C20.7282 27.4244 21.0234 27.4022 21.313 27.3688C21.4021 27.5356 21.5915 27.6302 21.7864 27.5912C22.0203 27.5412 22.1707 27.3076 22.1205 27.074C22.0704 26.8405 21.8365 26.6903 21.6026 26.7404C21.4244 26.7793 21.2963 26.9183 21.2684 27.0852C20.99 27.1185 20.7115 27.1352 20.4331 27.1352C18.1943 27.1352 16.1392 26.073 14.8583 24.2711C14.9586 24.1376 14.9753 23.943 14.8862 23.7873L14.8917 23.7928Z" fill="white"/>
<path d="M25.5736 25.6559C25.7462 25.4891 25.7462 25.211 25.5736 25.0386C25.4065 24.8662 25.1281 24.8662 24.9554 25.0386C24.8273 25.1665 24.7939 25.3612 24.8607 25.5169C24.6881 25.667 24.5043 25.8061 24.315 25.934C24.1813 25.8283 23.9864 25.8061 23.8249 25.895C23.6188 26.0174 23.5464 26.2788 23.6634 26.4901C23.7859 26.6959 24.0476 26.7682 24.2593 26.6514C24.4263 26.5569 24.5043 26.3622 24.4653 26.1787C24.6714 26.0396 24.8663 25.8895 25.0557 25.7282C25.2172 25.8116 25.4288 25.7894 25.5625 25.6559H25.5736Z" fill="white"/>
<path d="M27.8231 19.5829C27.7952 19.3437 27.578 19.1713 27.3385 19.2047C27.0991 19.2325 26.9264 19.4494 26.9598 19.6885C26.9821 19.8721 27.1102 20.0111 27.2773 20.0556C27.2773 20.139 27.2828 20.2224 27.2828 20.3114C27.2828 21.2791 27.0879 22.2134 26.6981 23.081C26.531 23.0643 26.3584 23.1421 26.2693 23.3034C26.1523 23.5147 26.2303 23.7761 26.4419 23.8929C26.6535 24.0097 26.9153 23.9318 27.0322 23.7205C27.1269 23.5481 27.0935 23.3368 26.9598 23.2033C27.3608 22.2968 27.5724 21.3069 27.5724 20.3058C27.5724 20.2169 27.5724 20.1223 27.5669 20.0278C27.7395 19.9555 27.8509 19.7775 27.8286 19.5773L27.8231 19.5829Z" fill="white"/>
<path d="M26.4193 20.7564C26.4304 20.5172 26.2411 20.3115 26.0016 20.3059C25.7621 20.2948 25.5561 20.4839 25.5505 20.723C25.5449 20.901 25.6452 21.0622 25.7956 21.1345C25.4057 23.8429 23.1613 25.8394 20.4157 25.8394C17.4251 25.8394 14.9969 23.3591 14.9969 20.3115C14.9969 17.5697 16.9851 15.2506 19.5915 14.8447C19.6639 14.9948 19.8254 15.0949 20.0036 15.0893C20.2431 15.0782 20.4324 14.878 20.4213 14.6389C20.4102 14.3997 20.2097 14.2107 19.9702 14.2218C19.7697 14.2329 19.6082 14.3719 19.5636 14.561C18.2827 14.7557 17.1132 15.3785 16.2333 16.3518C15.2531 17.4307 14.7129 18.8377 14.7129 20.3115C14.7129 21.8631 15.2977 23.3201 16.3669 24.4157C17.4418 25.5224 18.8842 26.1286 20.4213 26.1286C21.9584 26.1286 23.295 25.5669 24.3531 24.5548C25.2943 23.6538 25.9014 22.4637 26.0852 21.1679C26.2689 21.1234 26.4137 20.9621 26.4193 20.7619V20.7564Z" fill="white"/>
<path d="M162.397 7.75943C163.56 7.75943 164.502 6.81825 164.502 5.65724C164.502 4.49624 163.56 3.55505 162.397 3.55505C161.234 3.55505 160.292 4.49624 160.292 5.65724C160.292 6.81825 161.234 7.75943 162.397 7.75943Z" stroke="white" stroke-width="0.286931" stroke-miterlimit="10"/>
<path d="M163.473 6.84737H162.994L162.676 6.21337C162.615 6.09102 162.532 5.99648 162.325 5.99648H161.997V6.84737H161.562V4.46155H162.465C163.016 4.46155 163.367 4.70069 163.367 5.20121C163.367 5.54601 163.178 5.77403 162.927 5.89081C163.01 5.93531 163.061 6.01316 163.105 6.10215L163.478 6.84181L163.473 6.84737ZM162.448 5.62387C162.732 5.62387 162.927 5.51264 162.927 5.22345C162.927 4.95651 162.738 4.84528 162.448 4.84528H161.991V5.62387H162.448Z" fill="white"/>
</svg>
