<svg width="194" height="166" viewBox="0 0 194 166" fill="none" xmlns="http://www.w3.org/2000/svg">
<path d="M162.196 51.1565C194.57 54.9856 208.145 127.391 162.892 135.745C140.229 139.347 122.978 136.753 113.462 125.302L130.171 121.473L143.747 115.207L161.835 104.969L171.943 84.9223L170.899 67.5172L165.677 59.859L162.196 51.1565Z" fill="#D8D8E7"/>
<path d="M142.133 128.718C180.97 126.55 184.219 87.7882 171.455 61.3319C171.167 60.7359 170.885 60.1358 170.648 59.5181C167.243 50.6587 159.52 49.0249 152.203 49.828C140.476 51.115 130.366 58.6873 125.549 69.4561C120.543 80.6499 116.637 95.5072 110.671 108.193C109.579 110.514 108.895 113.018 108.794 115.581C108.251 129.455 123.659 131.488 139.163 129.027C140.146 128.871 141.139 128.773 142.133 128.718Z" fill="#E9E9F2"/>
<path d="M104.357 0.0488281H43.7881V97.3972H104.357V0.0488281Z" fill="#C8C9DB"/>
<path d="M101.619 4.26465H46.5264V90.3068H101.619V4.26465Z" fill="#E9E9F2"/>
<path d="M96.7604 17.6788H51.3849C51.2678 17.6788 51.1729 17.5838 51.1729 17.4667V14.4416C51.1729 14.3244 51.2678 14.2295 51.3849 14.2295H96.7604C96.8776 14.2295 96.9725 14.3245 96.9725 14.4416V17.4667C96.9725 17.5839 96.8776 17.6788 96.7604 17.6788Z" fill="white"/>
<path d="M96.7604 28.027H51.3849C51.2678 28.027 51.1729 27.932 51.1729 27.8149V24.7897C51.1729 24.6726 51.2678 24.5776 51.3849 24.5776H96.7604C96.8776 24.5776 96.9725 24.6726 96.9725 24.7897V27.8149C96.9725 27.932 96.8776 28.027 96.7604 28.027Z" fill="white"/>
<path d="M96.7604 38.3749H51.3849C51.2678 38.3749 51.1729 38.2799 51.1729 38.1628V35.1376C51.1729 35.0205 51.2678 34.9255 51.3849 34.9255H96.7604C96.8776 34.9255 96.9725 35.0205 96.9725 35.1376V38.1628C96.9725 38.2799 96.8776 38.3749 96.7604 38.3749Z" fill="white"/>
<path d="M96.7604 48.723H51.3849C51.2678 48.723 51.1729 48.6281 51.1729 48.5109V45.4858C51.1729 45.3686 51.2678 45.2737 51.3849 45.2737H96.7604C96.8776 45.2737 96.9725 45.3686 96.9725 45.4858V48.5109C96.9725 48.628 96.8776 48.723 96.7604 48.723Z" fill="white"/>
<path d="M96.7604 59.0709H51.3849C51.2678 59.0709 51.1729 58.976 51.1729 58.8588V55.8337C51.1729 55.7165 51.2678 55.6216 51.3849 55.6216H96.7604C96.8776 55.6216 96.9725 55.7165 96.9725 55.8337V58.8588C96.9725 58.976 96.8776 59.0709 96.7604 59.0709Z" fill="white"/>
<path d="M96.7604 69.419H51.3849C51.2678 69.419 51.1729 69.3241 51.1729 69.207V66.1818C51.1729 66.0647 51.2678 65.9697 51.3849 65.9697H96.7604C96.8776 65.9697 96.9725 66.0647 96.9725 66.1818V69.207C96.9725 69.3241 96.8776 69.419 96.7604 69.419Z" fill="white"/>
<path d="M96.7604 79.7672H51.3849C51.2678 79.7672 51.1729 79.6723 51.1729 79.5551V76.5299C51.1729 76.4128 51.2678 76.3179 51.3849 76.3179H96.7604C96.8776 76.3179 96.9725 76.4128 96.9725 76.5299V79.5551C96.9725 79.6722 96.8776 79.7672 96.7604 79.7672Z" fill="white"/>
<path d="M143.067 53.3596L144.389 65.8626C147.655 67.5063 150.652 66.6503 153.426 63.7322C153.426 63.7322 151.112 53.8897 152.171 49.3645L143.067 53.3596Z" fill="#E89082"/>
<path d="M146.593 46.4837C146.386 46.5939 146.141 46.4289 146.165 46.196C146.581 42.2227 145.975 39.5522 142.327 41.3081C142.347 41.3434 142.365 41.3781 142.386 41.4139C142.386 41.4139 140.671 42.9774 140.58 45.7568L138.553 47.7891L139.584 48.6779L139.265 49.7166L139.594 50.1378L139.392 50.747L139.845 51.1836C138.646 53.699 140.862 53.2123 143.034 54.1154L149.725 52.8938C150.497 48.578 151.839 43.687 146.593 46.4837Z" fill="#FBA996"/>
<path d="M154.154 40.3778C154.06 40.2923 153.969 40.2039 153.881 40.1119C150.114 36.155 139.581 36.4663 142.327 41.3079C145.975 39.552 146.581 42.2226 146.166 46.1958C146.141 46.4288 146.387 46.5937 146.593 46.4835C151.839 43.6869 150.498 48.5778 149.726 52.8937L151.73 52.5278C154.998 47.5689 157.09 43.0445 154.154 40.3778Z" fill="#100259"/>
<path d="M97 165.951C150.157 165.951 193.25 161.198 193.25 155.334C193.25 149.47 150.157 144.717 97 144.717C43.8426 144.717 0.75 149.47 0.75 155.334C0.75 161.198 43.8426 165.951 97 165.951Z" fill="#E9E9F2"/>
<path d="M169.176 131.771L163.261 162.058L164.627 162.325L170.543 132.038L169.176 131.771Z" fill="#C8C9DB"/>
<path d="M182.022 124.812L180.658 125.092L188.317 162.339L189.681 162.058L182.022 124.812Z" fill="#C8C9DB"/>
<path d="M138.86 135.962L137.495 136.235L142.716 162.343L144.082 162.07L138.86 135.962Z" fill="#C8C9DB"/>
<path d="M123.925 133.17L116.729 162.023L118.08 162.36L125.276 133.507L123.925 133.17Z" fill="#C8C9DB"/>
<path d="M126.69 152.106C126.69 152.106 126.69 156.979 122.861 158.024L125.298 159.068H129.823L132.956 158.372C132.956 158.372 133.653 155.239 130.52 151.41L126.69 152.106Z" fill="#FFC1BB"/>
<path d="M151.468 150.884L150.361 156.979L153.494 158.372L158.716 157.328L156.627 150.714L151.468 150.884Z" fill="#FFC1BB"/>
<path d="M133.272 156.385C133.272 156.385 127.735 159.764 123.906 156.979C123.906 156.979 114.855 158.372 115.203 161.505H134.001L133.272 156.385Z" fill="#7A8FD3"/>
<path d="M151.023 155.514C152.195 156.491 155.282 158.489 158.183 155.414C158.319 155.269 158.558 155.304 158.65 155.48C159.44 156.986 162.032 162.619 156.36 162.279C155.848 162.248 155.333 162.288 154.824 162.356C153.061 162.591 150.441 162.222 150.517 155.752C150.52 155.492 150.823 155.347 151.023 155.514Z" fill="#7A8FD3"/>
<path d="M137.133 61.2516C137.133 61.2516 130.867 60.2073 124.602 95.3655L134.964 95.6591L137.829 92.2326L142.703 66.8212L137.133 61.2516Z" fill="#2698EF"/>
<path d="M125.297 115.207C125.297 115.207 148.272 122.517 157.323 120.429L162.544 110.682L164.981 103.024L139.918 101.979L129.823 101.283L123.557 102.328H121.468L121.12 105.809L124.253 111.726L125.297 115.207Z" fill="#060351"/>
<path d="M142.006 103.024H161.5L161.152 85.9666L170.203 85.6185C171.595 77.9603 168.81 65.7768 168.81 65.7768C166.722 58.8148 152.743 59.106 152.743 59.106C152.743 59.106 146.129 71.9857 143.692 59.106L136.089 61.2514L135.044 94.6691L134.696 102.327L142.006 103.024Z" fill="#195ECB"/>
<path d="M136.912 98.0509L158.346 98.2587L160.087 85.1289L170.276 85.5396C170.276 85.5396 169.291 106.157 156.522 102.623C156.522 102.623 141.016 100.753 136.912 101.169V98.0509Z" fill="#FBA996"/>
<path d="M121.121 103.372C121.121 103.372 107.545 104.416 115.203 120.429L124.95 153.498H132.608C131.752 130.907 131.755 106.616 121.121 103.372Z" fill="#18217D"/>
<path d="M159.76 105.46C154.726 109.367 152.909 132.028 150.709 152.454L159.412 153.15C159.412 153.15 181.342 91.5362 159.76 105.46Z" fill="#18217D"/>
<path d="M166.374 102.327H144.096V103.372H166.374V102.327Z" fill="#D79840"/>
<path d="M151.058 103.372H121.121L112.07 80.7451H141.311L151.058 103.372Z" fill="#D79840"/>
<path d="M131.563 96.5837C132.813 96.5837 133.826 95.181 133.826 93.4508C133.826 91.7205 132.813 90.3179 131.563 90.3179C130.314 90.3179 129.301 91.7205 129.301 93.4508C129.301 95.181 130.314 96.5837 131.563 96.5837Z" fill="#D8D8E7"/>
<path d="M20.2255 115.581C10.7887 92.5449 5.84797 70.0574 5.93773 50.5497C6.02408 31.8261 10.9057 17.6145 19.6833 10.5325C24.536 6.61737 30.3834 4.97408 37.0646 5.64975C44.0283 6.35375 51.7538 9.59188 60.0267 15.274L58.8444 16.9957C43.3502 6.35342 30.2624 4.68093 20.9948 12.1581C12.7152 18.8381 8.10962 32.4759 8.02629 50.5592C7.93929 69.52 12.9579 92.3307 22.1584 114.789L20.2255 115.581Z" fill="#C8C9DB"/>
<path d="M51.7778 114.299H20.1006V151.894H51.7778V114.299Z" fill="#F0EDF7"/>
<path d="M56.9988 112.907H15.9229V116.04H56.9988V112.907Z" fill="#EECEAD"/>
<path d="M53.8663 115.344H50.7334V152.242H53.8663V115.344Z" fill="#EECEAD"/>
<path d="M22.1887 115.344H19.752V152.939H22.1887V115.344Z" fill="#EECEAD"/>
<path d="M31.4194 112.907H26.0318L23.1963 105.393H34.255L31.4194 112.907Z" fill="#D6786D"/>
<path d="M30.3779 95.78C30.3779 95.78 31.0048 89.3028 37.7995 88.6628C38.083 91.4984 35.5664 97.0453 30.3779 95.78Z" fill="#2698EF"/>
<path d="M20.5026 84.1259C20.5026 84.1259 30.0645 82.7511 28.0796 90.9742C28.0796 90.9742 20.219 91.4984 20.5026 84.1259Z" fill="#C8C9DB"/>
<path d="M28.8876 104.039L28.5644 103.91C28.5756 103.882 29.6871 101.056 29.6151 97.4798C29.5489 94.1939 28.4385 89.5792 23.5244 86.255L23.7195 85.9666C28.7615 89.3774 29.8979 94.1129 29.9634 97.4851C30.0342 101.129 28.8992 104.011 28.8876 104.039Z" fill="#B7DFFF"/>
<path d="M30.0236 96.7672L29.6885 96.6732C30.3142 94.4421 35.2274 91.2058 35.4362 91.0691L35.6268 91.3603C35.5768 91.3931 30.6142 94.6612 30.0236 96.7672Z" fill="#B7DFFF"/>
<path d="M34.8218 103.55H22.6289V106.102H34.8218V103.55Z" fill="#FBA996"/>
<path d="M57.9395 33.1008L69.9412 31.0039L70.9737 36.9139C71.0652 37.4375 70.7149 37.9362 70.1912 38.0277L60.0858 39.7933C59.5621 39.8848 59.0635 39.5345 58.972 39.0108L57.9395 33.1008Z" fill="#FEC227"/>
<path d="M80.0092 31.8905L46.7657 37.8064L43.5622 19.8053C43.3041 18.3549 44.2707 16.9698 45.7211 16.7117L73.7122 11.7304C75.1626 11.4723 76.5476 12.4389 76.8058 13.8893L80.0092 31.8905Z" fill="#EECEAD"/>
<path d="M51.4339 132.459H22.1934V134.896H51.4339V132.459Z" fill="#EECEAD"/>
</svg>
