<svg width="461" height="148" viewBox="0 0 461 148" fill="none" xmlns="http://www.w3.org/2000/svg">
<path d="M2.94389 11.9091V2.81818H3.52628V11.9091H2.94389ZM4.76562 5.63778C4.72775 5.30161 4.5715 5.04119 4.29688 4.85653C4.02225 4.66951 3.67661 4.57599 3.25994 4.57599C2.96165 4.57599 2.7036 4.62334 2.4858 4.71804C2.26799 4.81037 2.09872 4.93821 1.97798 5.10156C1.85961 5.26255 1.80043 5.44602 1.80043 5.65199C1.80043 5.82481 1.84067 5.97396 1.92116 6.09943C2.00402 6.22491 2.11174 6.33026 2.24432 6.41548C2.37926 6.49834 2.52367 6.56818 2.67756 6.625C2.83144 6.67945 2.9794 6.72443 3.12145 6.75994L3.83168 6.9446C4.06368 7.00142 4.30161 7.07836 4.54545 7.17543C4.7893 7.27249 5.01539 7.40033 5.22372 7.55895C5.43206 7.71757 5.60014 7.91406 5.72798 8.14844C5.85819 8.38281 5.9233 8.66335 5.9233 8.99006C5.9233 9.40199 5.81676 9.76776 5.60369 10.0874C5.39299 10.407 5.08641 10.6591 4.68395 10.8438C4.28385 11.0284 3.79972 11.1207 3.23153 11.1207C2.68703 11.1207 2.21591 11.0343 1.81818 10.8615C1.42045 10.6887 1.10914 10.4437 0.884233 10.1264C0.659328 9.80682 0.535038 9.42803 0.511364 8.99006H1.61222C1.63352 9.25284 1.71875 9.47183 1.8679 9.64702C2.01941 9.81984 2.21236 9.94886 2.44673 10.0341C2.68348 10.117 2.94271 10.1584 3.22443 10.1584C3.53456 10.1584 3.81037 10.1098 4.05185 10.0128C4.29569 9.91335 4.48745 9.77604 4.62713 9.60085C4.76681 9.4233 4.83665 9.21615 4.83665 8.9794C4.83665 8.76397 4.77509 8.58759 4.65199 8.45028C4.53125 8.31297 4.36671 8.19934 4.15838 8.10938C3.95241 8.01941 3.71922 7.9401 3.45881 7.87145L2.59943 7.63707C2.01705 7.47846 1.5554 7.24527 1.21449 6.9375C0.875947 6.62973 0.706676 6.22254 0.706676 5.71591C0.706676 5.29687 0.820313 4.93111 1.04759 4.61861C1.27486 4.30611 1.58262 4.06345 1.97088 3.89062C2.35914 3.71544 2.79711 3.62784 3.2848 3.62784C3.77723 3.62784 4.21165 3.71425 4.58807 3.88707C4.96686 4.0599 5.26515 4.29782 5.48295 4.60085C5.70076 4.90151 5.81439 5.24716 5.82386 5.63778H4.76562ZM9.39435 3.72727V11H8.2935V4.82812H8.25089L6.51083 5.96449V4.91335L8.32546 3.72727H9.39435ZM13.3936 11.1207C12.8326 11.1184 12.3532 10.9704 11.9554 10.6768C11.5577 10.3833 11.2535 9.95597 11.0428 9.39489C10.8321 8.83381 10.7267 8.15791 10.7267 7.36719C10.7267 6.57884 10.8321 5.9053 11.0428 5.34659C11.2559 4.78788 11.5613 4.36174 11.959 4.06818C12.3591 3.77462 12.8373 3.62784 13.3936 3.62784C13.95 3.62784 14.427 3.7758 14.8248 4.07173C15.2225 4.36529 15.5267 4.79143 15.7374 5.35014C15.9505 5.90649 16.057 6.57884 16.057 7.36719C16.057 8.16027 15.9516 8.83736 15.7409 9.39844C15.5302 9.95715 15.226 10.3845 14.8283 10.6804C14.4306 10.974 13.9524 11.1207 13.3936 11.1207ZM13.3936 10.1726C13.8861 10.1726 14.2708 9.93229 14.5478 9.4517C14.8271 8.97112 14.9668 8.27628 14.9668 7.36719C14.9668 6.76349 14.9029 6.25331 14.775 5.83665C14.6496 5.41761 14.4685 5.10038 14.2317 4.88494C13.9973 4.66714 13.718 4.55824 13.3936 4.55824C12.9036 4.55824 12.5189 4.79972 12.2395 5.28267C11.9602 5.76562 11.8193 6.46046 11.8169 7.36719C11.8169 7.97325 11.8797 8.4858 12.0051 8.90483C12.133 9.3215 12.3141 9.63755 12.5485 9.85298C12.7828 10.0661 13.0646 10.1726 13.3936 10.1726ZM19.3487 11.1207C18.7876 11.1184 18.3082 10.9704 17.9105 10.6768C17.5128 10.3833 17.2086 9.95597 16.9979 9.39489C16.7872 8.83381 16.6818 8.15791 16.6818 7.36719C16.6818 6.57884 16.7872 5.9053 16.9979 5.34659C17.2109 4.78788 17.5163 4.36174 17.9141 4.06818C18.3142 3.77462 18.7924 3.62784 19.3487 3.62784C19.9051 3.62784 20.3821 3.7758 20.7798 4.07173C21.1776 4.36529 21.4818 4.79143 21.6925 5.35014C21.9055 5.90649 22.0121 6.57884 22.0121 7.36719C22.0121 8.16027 21.9067 8.83736 21.696 9.39844C21.4853 9.95715 21.1811 10.3845 20.7834 10.6804C20.3857 10.974 19.9074 11.1207 19.3487 11.1207ZM19.3487 10.1726C19.8411 10.1726 20.2259 9.93229 20.5028 9.4517C20.7822 8.97112 20.9219 8.27628 20.9219 7.36719C20.9219 6.76349 20.858 6.25331 20.7301 5.83665C20.6046 5.41761 20.4235 5.10038 20.1868 4.88494C19.9524 4.66714 19.6731 4.55824 19.3487 4.55824C18.8587 4.55824 18.474 4.79972 18.1946 5.28267C17.9152 5.76562 17.7744 6.46046 17.772 7.36719C17.772 7.97325 17.8348 8.4858 17.9602 8.90483C18.0881 9.3215 18.2692 9.63755 18.5036 9.85298C18.7379 10.0661 19.0196 10.1726 19.3487 10.1726ZM25.3038 11.1207C24.7427 11.1184 24.2633 10.9704 23.8656 10.6768C23.4679 10.3833 23.1636 9.95597 22.9529 9.39489C22.7422 8.83381 22.6369 8.15791 22.6369 7.36719C22.6369 6.57884 22.7422 5.9053 22.9529 5.34659C23.166 4.78788 23.4714 4.36174 23.8691 4.06818C24.2692 3.77462 24.7475 3.62784 25.3038 3.62784C25.8601 3.62784 26.3372 3.7758 26.7349 4.07173C27.1326 4.36529 27.4368 4.79143 27.6475 5.35014C27.8606 5.90649 27.9672 6.57884 27.9672 7.36719C27.9672 8.16027 27.8618 8.83736 27.6511 9.39844C27.4404 9.95715 27.1362 10.3845 26.7385 10.6804C26.3407 10.974 25.8625 11.1207 25.3038 11.1207ZM25.3038 10.1726C25.7962 10.1726 26.1809 9.93229 26.4579 9.4517C26.7373 8.97112 26.877 8.27628 26.877 7.36719C26.877 6.76349 26.813 6.25331 26.6852 5.83665C26.5597 5.41761 26.3786 5.10038 26.1419 4.88494C25.9075 4.66714 25.6281 4.55824 25.3038 4.55824C24.8137 4.55824 24.429 4.79972 24.1497 5.28267C23.8703 5.76562 23.7295 6.46046 23.7271 7.36719C23.7271 7.97325 23.7898 8.4858 23.9153 8.90483C24.0431 9.3215 24.2243 9.63755 24.4586 9.85298C24.693 10.0661 24.9747 10.1726 25.3038 10.1726Z" fill="#464646"/>
<path d="M2.94389 54.9091V45.8182H3.52628V54.9091H2.94389ZM4.76562 48.6378C4.72775 48.3016 4.5715 48.0412 4.29688 47.8565C4.02225 47.6695 3.67661 47.576 3.25994 47.576C2.96165 47.576 2.7036 47.6233 2.4858 47.718C2.26799 47.8104 2.09872 47.9382 1.97798 48.1016C1.85961 48.2625 1.80043 48.446 1.80043 48.652C1.80043 48.8248 1.84067 48.974 1.92116 49.0994C2.00402 49.2249 2.11174 49.3303 2.24432 49.4155C2.37926 49.4983 2.52367 49.5682 2.67756 49.625C2.83144 49.6795 2.9794 49.7244 3.12145 49.7599L3.83168 49.9446C4.06368 50.0014 4.30161 50.0784 4.54545 50.1754C4.7893 50.2725 5.01539 50.4003 5.22372 50.5589C5.43206 50.7176 5.60014 50.9141 5.72798 51.1484C5.85819 51.3828 5.9233 51.6634 5.9233 51.9901C5.9233 52.402 5.81676 52.7678 5.60369 53.0874C5.39299 53.407 5.08641 53.6591 4.68395 53.8438C4.28385 54.0284 3.79972 54.1207 3.23153 54.1207C2.68703 54.1207 2.21591 54.0343 1.81818 53.8615C1.42045 53.6887 1.10914 53.4437 0.884233 53.1264C0.659328 52.8068 0.535038 52.428 0.511364 51.9901H1.61222C1.63352 52.2528 1.71875 52.4718 1.8679 52.647C2.01941 52.8198 2.21236 52.9489 2.44673 53.0341C2.68348 53.117 2.94271 53.1584 3.22443 53.1584C3.53456 53.1584 3.81037 53.1098 4.05185 53.0128C4.29569 52.9134 4.48745 52.776 4.62713 52.6009C4.76681 52.4233 4.83665 52.2161 4.83665 51.9794C4.83665 51.764 4.77509 51.5876 4.65199 51.4503C4.53125 51.313 4.36671 51.1993 4.15838 51.1094C3.95241 51.0194 3.71922 50.9401 3.45881 50.8714L2.59943 50.6371C2.01705 50.4785 1.5554 50.2453 1.21449 49.9375C0.875947 49.6297 0.706676 49.2225 0.706676 48.7159C0.706676 48.2969 0.820313 47.9311 1.04759 47.6186C1.27486 47.3061 1.58262 47.0634 1.97088 46.8906C2.35914 46.7154 2.79711 46.6278 3.2848 46.6278C3.77723 46.6278 4.21165 46.7143 4.58807 46.8871C4.96686 47.0599 5.26515 47.2978 5.48295 47.6009C5.70076 47.9015 5.81439 48.2472 5.82386 48.6378H4.76562ZM9.03569 54.0994C8.59061 54.0994 8.19052 54.0142 7.8354 53.8438C7.48266 53.6709 7.20094 53.4342 6.99023 53.1335C6.77953 52.8329 6.66708 52.4896 6.65288 52.1037H7.71822C7.74426 52.4162 7.88275 52.6731 8.1337 52.8743C8.38465 53.0755 8.68531 53.1761 9.03569 53.1761C9.31505 53.1761 9.56244 53.1122 9.77788 52.9844C9.99568 52.8542 10.1661 52.6754 10.2892 52.4482C10.4147 52.2209 10.4775 51.9616 10.4775 51.6705C10.4775 51.3745 10.4135 51.1106 10.2857 50.8786C10.1578 50.6465 9.98148 50.4643 9.75657 50.3317C9.53403 50.1991 9.27835 50.1316 8.98952 50.1293C8.76935 50.1293 8.548 50.1671 8.32546 50.2429C8.10292 50.3187 7.923 50.4181 7.78569 50.5412L6.78072 50.392L7.1891 46.7273H11.1877V47.6683H8.10174L7.87092 49.7031H7.91353C8.05558 49.5658 8.24379 49.451 8.47816 49.3587C8.7149 49.2663 8.96822 49.2202 9.2381 49.2202C9.68081 49.2202 10.075 49.3255 10.4206 49.5362C10.7686 49.7469 11.0421 50.0346 11.2409 50.3991C11.4422 50.7614 11.5416 51.178 11.5392 51.6491C11.5416 52.1203 11.4351 52.5405 11.2196 52.9098C11.0066 53.2791 10.7106 53.5703 10.3319 53.7834C9.95543 53.9941 9.52338 54.0994 9.03569 54.0994ZM14.8683 54.1207C14.3072 54.1184 13.8278 53.9704 13.43 53.6768C13.0323 53.3833 12.7281 52.956 12.5174 52.3949C12.3067 51.8338 12.2013 51.1579 12.2013 50.3672C12.2013 49.5788 12.3067 48.9053 12.5174 48.3466C12.7305 47.7879 13.0359 47.3617 13.4336 47.0682C13.8337 46.7746 14.3119 46.6278 14.8683 46.6278C15.4246 46.6278 15.9016 46.7758 16.2994 47.0717C16.6971 47.3653 17.0013 47.7914 17.212 48.3501C17.4251 48.9065 17.5316 49.5788 17.5316 50.3672C17.5316 51.1603 17.4263 51.8374 17.2156 52.3984C17.0049 52.9571 16.7006 53.3845 16.3029 53.6804C15.9052 53.974 15.427 54.1207 14.8683 54.1207ZM14.8683 53.1726C15.3607 53.1726 15.7454 52.9323 16.0224 52.4517C16.3017 51.9711 16.4414 51.2763 16.4414 50.3672C16.4414 49.7635 16.3775 49.2533 16.2496 48.8366C16.1242 48.4176 15.9431 48.1004 15.7063 47.8849C15.4719 47.6671 15.1926 47.5582 14.8683 47.5582C14.3782 47.5582 13.9935 47.7997 13.7141 48.2827C13.4348 48.7656 13.2939 49.4605 13.2915 50.3672C13.2915 50.9732 13.3543 51.4858 13.4798 51.9048C13.6076 52.3215 13.7887 52.6375 14.0231 52.853C14.2575 53.0661 14.5392 53.1726 14.8683 53.1726ZM20.8233 54.1207C20.2623 54.1184 19.7828 53.9704 19.3851 53.6768C18.9874 53.3833 18.6832 52.956 18.4725 52.3949C18.2618 51.8338 18.1564 51.1579 18.1564 50.3672C18.1564 49.5788 18.2618 48.9053 18.4725 48.3466C18.6855 47.7879 18.9909 47.3617 19.3887 47.0682C19.7888 46.7746 20.267 46.6278 20.8233 46.6278C21.3797 46.6278 21.8567 46.7758 22.2544 47.0717C22.6522 47.3653 22.9564 47.7914 23.1671 48.3501C23.3801 48.9065 23.4867 49.5788 23.4867 50.3672C23.4867 51.1603 23.3813 51.8374 23.1706 52.3984C22.9599 52.9571 22.6557 53.3845 22.258 53.6804C21.8603 53.974 21.382 54.1207 20.8233 54.1207ZM20.8233 53.1726C21.3158 53.1726 21.7005 52.9323 21.9775 52.4517C22.2568 51.9711 22.3965 51.2763 22.3965 50.3672C22.3965 49.7635 22.3326 49.2533 22.2047 48.8366C22.0792 48.4176 21.8981 48.1004 21.6614 47.8849C21.427 47.6671 21.1477 47.5582 20.8233 47.5582C20.3333 47.5582 19.9486 47.7997 19.6692 48.2827C19.3899 48.7656 19.249 49.4605 19.2466 50.3672C19.2466 50.9732 19.3094 51.4858 19.4348 51.9048C19.5627 52.3215 19.7438 52.6375 19.9782 52.853C20.2125 53.0661 20.4943 53.1726 20.8233 53.1726Z" fill="#464646"/>
<path d="M2.94389 97.9091V88.8182H3.52628V97.9091H2.94389ZM4.76562 91.6378C4.72775 91.3016 4.5715 91.0412 4.29688 90.8565C4.02225 90.6695 3.67661 90.576 3.25994 90.576C2.96165 90.576 2.7036 90.6233 2.4858 90.718C2.26799 90.8104 2.09872 90.9382 1.97798 91.1016C1.85961 91.2625 1.80043 91.446 1.80043 91.652C1.80043 91.8248 1.84067 91.974 1.92116 92.0994C2.00402 92.2249 2.11174 92.3303 2.24432 92.4155C2.37926 92.4983 2.52367 92.5682 2.67756 92.625C2.83144 92.6795 2.9794 92.7244 3.12145 92.7599L3.83168 92.9446C4.06368 93.0014 4.30161 93.0784 4.54545 93.1754C4.7893 93.2725 5.01539 93.4003 5.22372 93.5589C5.43206 93.7176 5.60014 93.9141 5.72798 94.1484C5.85819 94.3828 5.9233 94.6634 5.9233 94.9901C5.9233 95.402 5.81676 95.7678 5.60369 96.0874C5.39299 96.407 5.08641 96.6591 4.68395 96.8438C4.28385 97.0284 3.79972 97.1207 3.23153 97.1207C2.68703 97.1207 2.21591 97.0343 1.81818 96.8615C1.42045 96.6887 1.10914 96.4437 0.884233 96.1264C0.659328 95.8068 0.535038 95.428 0.511364 94.9901H1.61222C1.63352 95.2528 1.71875 95.4718 1.8679 95.647C2.01941 95.8198 2.21236 95.9489 2.44673 96.0341C2.68348 96.117 2.94271 96.1584 3.22443 96.1584C3.53456 96.1584 3.81037 96.1098 4.05185 96.0128C4.29569 95.9134 4.48745 95.776 4.62713 95.6009C4.76681 95.4233 4.83665 95.2161 4.83665 94.9794C4.83665 94.764 4.77509 94.5876 4.65199 94.4503C4.53125 94.313 4.36671 94.1993 4.15838 94.1094C3.95241 94.0194 3.71922 93.9401 3.45881 93.8714L2.59943 93.6371C2.01705 93.4785 1.5554 93.2453 1.21449 92.9375C0.875947 92.6297 0.706676 92.2225 0.706676 91.7159C0.706676 91.2969 0.820313 90.9311 1.04759 90.6186C1.27486 90.3061 1.58262 90.0634 1.97088 89.8906C2.35914 89.7154 2.79711 89.6278 3.2848 89.6278C3.77723 89.6278 4.21165 89.7143 4.58807 89.8871C4.96686 90.0599 5.26515 90.2978 5.48295 90.6009C5.70076 90.9015 5.81439 91.2472 5.82386 91.6378H4.76562ZM6.63512 97V96.2045L9.09606 93.6548C9.35884 93.3778 9.57546 93.1352 9.74592 92.9268C9.91874 92.7161 10.0478 92.5161 10.133 92.3267C10.2182 92.1373 10.2608 91.9361 10.2608 91.723C10.2608 91.4815 10.204 91.2732 10.0904 91.098C9.97674 90.9205 9.82167 90.7843 9.62518 90.6896C9.42868 90.5926 9.20733 90.544 8.96112 90.544C8.7007 90.544 8.47343 90.5973 8.2793 90.7038C8.08517 90.8104 7.93602 90.9607 7.83185 91.1548C7.72769 91.349 7.6756 91.5762 7.6756 91.8366H6.62802C6.62802 91.3939 6.72982 91.0069 6.93342 90.6754C7.13701 90.344 7.41637 90.0871 7.77148 89.9048C8.1266 89.7202 8.53024 89.6278 8.98242 89.6278C9.43933 89.6278 9.8418 89.719 10.1898 89.9013C10.5402 90.0812 10.8136 90.3274 11.0101 90.6399C11.2066 90.95 11.3049 91.3004 11.3049 91.6911C11.3049 91.9609 11.254 92.2249 11.1522 92.483C11.0527 92.741 10.8787 93.0286 10.6301 93.3459C10.3816 93.6607 10.0359 94.0431 9.59322 94.4929L8.1479 96.0057V96.0589H11.4221V97H6.63512ZM14.7999 97.1207C14.2388 97.1184 13.7594 96.9704 13.3617 96.6768C12.964 96.3833 12.6597 95.956 12.449 95.3949C12.2383 94.8338 12.133 94.1579 12.133 93.3672C12.133 92.5788 12.2383 91.9053 12.449 91.3466C12.6621 90.7879 12.9675 90.3617 13.3652 90.0682C13.7653 89.7746 14.2435 89.6278 14.7999 89.6278C15.3562 89.6278 15.8333 89.7758 16.231 90.0717C16.6287 90.3653 16.9329 90.7914 17.1436 91.3501C17.3567 91.9065 17.4632 92.5788 17.4632 93.3672C17.4632 94.1603 17.3579 94.8374 17.1472 95.3984C16.9365 95.9571 16.6323 96.3845 16.2346 96.6804C15.8368 96.974 15.3586 97.1207 14.7999 97.1207ZM14.7999 96.1726C15.2923 96.1726 15.677 95.9323 15.954 95.4517C16.2334 94.9711 16.373 94.2763 16.373 93.3672C16.373 92.7635 16.3091 92.2533 16.1813 91.8366C16.0558 91.4176 15.8747 91.1004 15.638 90.8849C15.4036 90.6671 15.1242 90.5582 14.7999 90.5582C14.3098 90.5582 13.9251 90.7997 13.6458 91.2827C13.3664 91.7656 13.2256 92.4605 13.2232 93.3672C13.2232 93.9732 13.2859 94.4858 13.4114 94.9048C13.5392 95.3215 13.7203 95.6375 13.9547 95.853C14.1891 96.0661 14.4708 96.1726 14.7999 96.1726ZM20.755 97.1207C20.1939 97.1184 19.7145 96.9704 19.3168 96.6768C18.919 96.3833 18.6148 95.956 18.4041 95.3949C18.1934 94.8338 18.0881 94.1579 18.0881 93.3672C18.0881 92.5788 18.1934 91.9053 18.4041 91.3466C18.6172 90.7879 18.9226 90.3617 19.3203 90.0682C19.7204 89.7746 20.1986 89.6278 20.755 89.6278C21.3113 89.6278 21.7884 89.7758 22.1861 90.0717C22.5838 90.3653 22.888 90.7914 23.0987 91.3501C23.3118 91.9065 23.4183 92.5788 23.4183 93.3672C23.4183 94.1603 23.313 94.8374 23.1023 95.3984C22.8916 95.9571 22.5874 96.3845 22.1896 96.6804C21.7919 96.974 21.3137 97.1207 20.755 97.1207ZM20.755 96.1726C21.2474 96.1726 21.6321 95.9323 21.9091 95.4517C22.1884 94.9711 22.3281 94.2763 22.3281 93.3672C22.3281 92.7635 22.2642 92.2533 22.1364 91.8366C22.0109 91.4176 21.8298 91.1004 21.593 90.8849C21.3587 90.6671 21.0793 90.5582 20.755 90.5582C20.2649 90.5582 19.8802 90.7997 19.6009 91.2827C19.3215 91.7656 19.1806 92.4605 19.1783 93.3672C19.1783 93.9732 19.241 94.4858 19.3665 94.9048C19.4943 95.3215 19.6754 95.6375 19.9098 95.853C20.1442 96.0661 20.4259 96.1726 20.755 96.1726Z" fill="#464646"/>
<path d="M2.94389 140.909V131.818H3.52628V140.909H2.94389ZM4.76562 134.638C4.72775 134.302 4.5715 134.041 4.29688 133.857C4.02225 133.67 3.67661 133.576 3.25994 133.576C2.96165 133.576 2.7036 133.623 2.4858 133.718C2.26799 133.81 2.09872 133.938 1.97798 134.102C1.85961 134.263 1.80043 134.446 1.80043 134.652C1.80043 134.825 1.84067 134.974 1.92116 135.099C2.00402 135.225 2.11174 135.33 2.24432 135.415C2.37926 135.498 2.52367 135.568 2.67756 135.625C2.83144 135.679 2.9794 135.724 3.12145 135.76L3.83168 135.945C4.06368 136.001 4.30161 136.078 4.54545 136.175C4.7893 136.272 5.01539 136.4 5.22372 136.559C5.43206 136.718 5.60014 136.914 5.72798 137.148C5.85819 137.383 5.9233 137.663 5.9233 137.99C5.9233 138.402 5.81676 138.768 5.60369 139.087C5.39299 139.407 5.08641 139.659 4.68395 139.844C4.28385 140.028 3.79972 140.121 3.23153 140.121C2.68703 140.121 2.21591 140.034 1.81818 139.862C1.42045 139.689 1.10914 139.444 0.884233 139.126C0.659328 138.807 0.535038 138.428 0.511364 137.99H1.61222C1.63352 138.253 1.71875 138.472 1.8679 138.647C2.01941 138.82 2.21236 138.949 2.44673 139.034C2.68348 139.117 2.94271 139.158 3.22443 139.158C3.53456 139.158 3.81037 139.11 4.05185 139.013C4.29569 138.913 4.48745 138.776 4.62713 138.601C4.76681 138.423 4.83665 138.216 4.83665 137.979C4.83665 137.764 4.77509 137.588 4.65199 137.45C4.53125 137.313 4.36671 137.199 4.15838 137.109C3.95241 137.019 3.71922 136.94 3.45881 136.871L2.59943 136.637C2.01705 136.478 1.5554 136.245 1.21449 135.938C0.875947 135.63 0.706676 135.223 0.706676 134.716C0.706676 134.297 0.820313 133.931 1.04759 133.619C1.27486 133.306 1.58262 133.063 1.97088 132.891C2.35914 132.715 2.79711 132.628 3.2848 132.628C3.77723 132.628 4.21165 132.714 4.58807 132.887C4.96686 133.06 5.26515 133.298 5.48295 133.601C5.70076 133.902 5.81439 134.247 5.82386 134.638H4.76562ZM9.16708 140.121C8.606 140.118 8.1266 139.97 7.72887 139.677C7.33114 139.383 7.02693 138.956 6.81623 138.395C6.60553 137.834 6.50018 137.158 6.50018 136.367C6.50018 135.579 6.60553 134.905 6.81623 134.347C7.0293 133.788 7.33469 133.362 7.73242 133.068C8.13252 132.775 8.61074 132.628 9.16708 132.628C9.72343 132.628 10.2005 132.776 10.5982 133.072C10.9959 133.365 11.3001 133.791 11.5108 134.35C11.7239 134.906 11.8304 135.579 11.8304 136.367C11.8304 137.16 11.7251 137.837 11.5144 138.398C11.3037 138.957 10.9995 139.384 10.6017 139.68C10.204 139.974 9.72579 140.121 9.16708 140.121ZM9.16708 139.173C9.65951 139.173 10.0442 138.932 10.3212 138.452C10.6006 137.971 10.7402 137.276 10.7402 136.367C10.7402 135.763 10.6763 135.253 10.5485 134.837C10.423 134.418 10.2419 134.1 10.0051 133.885C9.77077 133.667 9.49142 133.558 9.16708 133.558C8.67702 133.558 8.29232 133.8 8.01296 134.283C7.73361 134.766 7.59274 135.46 7.59038 136.367C7.59038 136.973 7.65311 137.486 7.77859 137.905C7.90643 138.321 8.08754 138.638 8.32191 138.853C8.55629 139.066 8.83801 139.173 9.16708 139.173Z" fill="#464646"/>
<line opacity="0.4" x1="37.2494" y1="7.24941" x2="460.749" y2="6.25059" stroke="#CCCCCC" stroke-width="0.5" stroke-linecap="round" stroke-dasharray="10 8"/>
<line opacity="0.4" x1="37.2494" y1="50.2494" x2="460.749" y2="49.2506" stroke="#CCCCCC" stroke-width="0.5" stroke-linecap="round" stroke-dasharray="10 8"/>
<line opacity="0.4" x1="37.2494" y1="93.2494" x2="460.749" y2="92.2506" stroke="#CCCCCC" stroke-width="0.5" stroke-linecap="round" stroke-dasharray="10 8"/>
<line opacity="0.4" x1="37.2494" y1="136.249" x2="460.749" y2="135.251" stroke="#CCCCCC" stroke-width="0.5" stroke-linecap="round" stroke-dasharray="10 8"/>
<rect x="47.5" y="41.5" width="27" height="106" rx="6" fill="#F6F4FE"/>
<mask id="mask0_126_674" style="mask-type:alpha" maskUnits="userSpaceOnUse" x="47" y="41" width="28" height="107">
<rect x="47.5" y="41.5" width="27" height="106" rx="4" fill="#D9D9D9"/>
</mask>
<g mask="url(#mask0_126_674)">
<path d="M47.9621 -91.5L47.9621 278.5" stroke="url(#paint0_linear_126_674)" stroke-width="1.5"/>
<path d="M50.9621 -91.5L50.9621 278.5" stroke="url(#paint1_linear_126_674)" stroke-width="1.5"/>
<path d="M53.9621 -91.5L53.9621 278.5" stroke="url(#paint2_linear_126_674)" stroke-width="1.5"/>
<path d="M56.9621 -91.5L56.9621 278.5" stroke="url(#paint3_linear_126_674)" stroke-width="1.5"/>
<path d="M59.9621 -91.5L59.9621 278.5" stroke="url(#paint4_linear_126_674)" stroke-width="1.5"/>
<path d="M62.9621 -91.5L62.9621 278.5" stroke="url(#paint5_linear_126_674)" stroke-width="1.5"/>
<path d="M65.9621 -91.5L65.9621 278.5" stroke="url(#paint6_linear_126_674)" stroke-width="1.5"/>
<path d="M68.9621 -91.5L68.9621 278.5" stroke="url(#paint7_linear_126_674)" stroke-width="1.5"/>
<path d="M71.9621 -91.5L71.9621 278.5" stroke="url(#paint8_linear_126_674)" stroke-width="1.5"/>
<path d="M74.9621 -91.5L74.9621 278.5" stroke="url(#paint9_linear_126_674)" stroke-width="1.5"/>
</g>
<rect x="47.5" y="76.5" width="27" height="71" rx="4" fill="url(#paint10_linear_126_674)"/>
<rect x="94.5" y="7.5" width="27" height="140" rx="6" fill="#F6F4FE"/>
<mask id="mask1_126_674" style="mask-type:alpha" maskUnits="userSpaceOnUse" x="94" y="7" width="28" height="141">
<rect x="94.5" y="7.5" width="27" height="140" rx="4" fill="#D9D9D9"/>
</mask>
<g mask="url(#mask1_126_674)">
<path d="M94.9621 -108.5L94.9621 261.5" stroke="url(#paint11_linear_126_674)" stroke-width="1.5"/>
<path d="M97.9621 -108.5L97.9621 261.5" stroke="url(#paint12_linear_126_674)" stroke-width="1.5"/>
<path d="M100.962 -108.5L100.962 261.5" stroke="url(#paint13_linear_126_674)" stroke-width="1.5"/>
<path d="M103.962 -108.5L103.962 261.5" stroke="url(#paint14_linear_126_674)" stroke-width="1.5"/>
<path d="M106.962 -108.5L106.962 261.5" stroke="url(#paint15_linear_126_674)" stroke-width="1.5"/>
<path d="M109.962 -108.5L109.962 261.5" stroke="url(#paint16_linear_126_674)" stroke-width="1.5"/>
<path d="M112.962 -108.5L112.962 261.5" stroke="url(#paint17_linear_126_674)" stroke-width="1.5"/>
<path d="M115.962 -108.5L115.962 261.5" stroke="url(#paint18_linear_126_674)" stroke-width="1.5"/>
<path d="M118.962 -108.5L118.962 261.5" stroke="url(#paint19_linear_126_674)" stroke-width="1.5"/>
<path d="M121.962 -108.5L121.962 261.5" stroke="url(#paint20_linear_126_674)" stroke-width="1.5"/>
</g>
<rect x="94.5" y="117.5" width="27" height="30" rx="4" fill="url(#paint21_linear_126_674)"/>
<rect x="141.5" y="92.5" width="27" height="55" rx="6" fill="#F6F4FE"/>
<mask id="mask2_126_674" style="mask-type:alpha" maskUnits="userSpaceOnUse" x="141" y="92" width="28" height="56">
<rect x="141.5" y="92.5" width="27" height="55" rx="4" fill="#D9D9D9"/>
</mask>
<g mask="url(#mask2_126_674)">
<path d="M141.962 -65.5L141.962 304.5" stroke="url(#paint22_linear_126_674)" stroke-width="1.5"/>
<path d="M144.962 -65.5L144.962 304.5" stroke="url(#paint23_linear_126_674)" stroke-width="1.5"/>
<path d="M147.962 -65.5L147.962 304.5" stroke="url(#paint24_linear_126_674)" stroke-width="1.5"/>
<path d="M150.962 -65.5L150.962 304.5" stroke="url(#paint25_linear_126_674)" stroke-width="1.5"/>
<path d="M153.962 -65.5L153.962 304.5" stroke="url(#paint26_linear_126_674)" stroke-width="1.5"/>
<path d="M156.962 -65.5L156.962 304.5" stroke="url(#paint27_linear_126_674)" stroke-width="1.5"/>
<path d="M159.962 -65.5L159.962 304.5" stroke="url(#paint28_linear_126_674)" stroke-width="1.5"/>
<path d="M162.962 -65.5L162.962 304.5" stroke="url(#paint29_linear_126_674)" stroke-width="1.5"/>
<path d="M165.962 -65.5L165.962 304.5" stroke="url(#paint30_linear_126_674)" stroke-width="1.5"/>
<path d="M168.962 -65.5L168.962 304.5" stroke="url(#paint31_linear_126_674)" stroke-width="1.5"/>
</g>
<rect x="141.5" y="92.5" width="27" height="55" rx="4" fill="url(#paint32_linear_126_674)"/>
<rect x="188.5" y="41.5" width="27" height="106" rx="6" fill="#F6F4FE"/>
<mask id="mask3_126_674" style="mask-type:alpha" maskUnits="userSpaceOnUse" x="188" y="41" width="28" height="107">
<rect x="188.5" y="41.5" width="27" height="106" rx="4" fill="#D9D9D9"/>
</mask>
<g mask="url(#mask3_126_674)">
<path d="M188.962 -91.5L188.962 278.5" stroke="url(#paint33_linear_126_674)" stroke-width="1.5"/>
<path d="M191.962 -91.5L191.962 278.5" stroke="url(#paint34_linear_126_674)" stroke-width="1.5"/>
<path d="M194.962 -91.5L194.962 278.5" stroke="url(#paint35_linear_126_674)" stroke-width="1.5"/>
<path d="M197.962 -91.5L197.962 278.5" stroke="url(#paint36_linear_126_674)" stroke-width="1.5"/>
<path d="M200.962 -91.5L200.962 278.5" stroke="url(#paint37_linear_126_674)" stroke-width="1.5"/>
<path d="M203.962 -91.5L203.962 278.5" stroke="url(#paint38_linear_126_674)" stroke-width="1.5"/>
<path d="M206.962 -91.5L206.962 278.5" stroke="url(#paint39_linear_126_674)" stroke-width="1.5"/>
<path d="M209.962 -91.5L209.962 278.5" stroke="url(#paint40_linear_126_674)" stroke-width="1.5"/>
<path d="M212.962 -91.5L212.962 278.5" stroke="url(#paint41_linear_126_674)" stroke-width="1.5"/>
<path d="M215.962 -91.5L215.962 278.5" stroke="url(#paint42_linear_126_674)" stroke-width="1.5"/>
</g>
<rect x="188.5" y="76.5" width="27" height="71" rx="4" fill="url(#paint43_linear_126_674)"/>
<rect x="235.5" y="59.5" width="27" height="88" rx="6" fill="#F6F4FE"/>
<mask id="mask4_126_674" style="mask-type:alpha" maskUnits="userSpaceOnUse" x="235" y="59" width="28" height="89">
<rect x="235.5" y="59.5" width="27" height="88" rx="4" fill="#D9D9D9"/>
</mask>
<g mask="url(#mask4_126_674)">
<path d="M235.962 -82.5L235.962 287.5" stroke="url(#paint44_linear_126_674)" stroke-width="1.5"/>
<path d="M238.962 -82.5L238.962 287.5" stroke="url(#paint45_linear_126_674)" stroke-width="1.5"/>
<path d="M241.962 -82.5L241.962 287.5" stroke="url(#paint46_linear_126_674)" stroke-width="1.5"/>
<path d="M244.962 -82.5L244.962 287.5" stroke="url(#paint47_linear_126_674)" stroke-width="1.5"/>
<path d="M247.962 -82.5L247.962 287.5" stroke="url(#paint48_linear_126_674)" stroke-width="1.5"/>
<path d="M250.962 -82.5L250.962 287.5" stroke="url(#paint49_linear_126_674)" stroke-width="1.5"/>
<path d="M253.962 -82.5L253.962 287.5" stroke="url(#paint50_linear_126_674)" stroke-width="1.5"/>
<path d="M256.962 -82.5V287.5" stroke="url(#paint51_linear_126_674)" stroke-width="1.5"/>
<path d="M259.962 -82.5V287.5" stroke="url(#paint52_linear_126_674)" stroke-width="1.5"/>
<path d="M262.962 -82.5V287.5" stroke="url(#paint53_linear_126_674)" stroke-width="1.5"/>
</g>
<rect x="235.5" y="115.5" width="27" height="32" rx="4" fill="url(#paint54_linear_126_674)"/>
<rect x="282.5" y="6.5" width="27" height="141" rx="6" fill="#F6F4FE"/>
<mask id="mask5_126_674" style="mask-type:alpha" maskUnits="userSpaceOnUse" x="282" y="6" width="28" height="142">
<rect x="282.5" y="6.5" width="27" height="141" rx="4" fill="#D9D9D9"/>
</mask>
<g mask="url(#mask5_126_674)">
<path d="M282.962 -108.5V261.5" stroke="url(#paint55_linear_126_674)" stroke-width="1.5"/>
<path d="M285.962 -108.5V261.5" stroke="url(#paint56_linear_126_674)" stroke-width="1.5"/>
<path d="M288.962 -108.5V261.5" stroke="url(#paint57_linear_126_674)" stroke-width="1.5"/>
<path d="M291.962 -108.5V261.5" stroke="url(#paint58_linear_126_674)" stroke-width="1.5"/>
<path d="M294.962 -108.5V261.5" stroke="url(#paint59_linear_126_674)" stroke-width="1.5"/>
<path d="M297.962 -108.5V261.5" stroke="url(#paint60_linear_126_674)" stroke-width="1.5"/>
<path d="M300.962 -108.5V261.5" stroke="url(#paint61_linear_126_674)" stroke-width="1.5"/>
<path d="M303.962 -108.5V261.5" stroke="url(#paint62_linear_126_674)" stroke-width="1.5"/>
<path d="M306.962 -108.5V261.5" stroke="url(#paint63_linear_126_674)" stroke-width="1.5"/>
<path d="M309.962 -108.5V261.5" stroke="url(#paint64_linear_126_674)" stroke-width="1.5"/>
</g>
<rect x="282.5" y="115.5" width="27" height="32" rx="4" fill="url(#paint65_linear_126_674)"/>
<rect x="329.5" y="32.5" width="27" height="115" rx="6" fill="#F6F4FE"/>
<mask id="mask6_126_674" style="mask-type:alpha" maskUnits="userSpaceOnUse" x="329" y="32" width="28" height="116">
<rect x="329.5" y="32.5" width="27" height="115" rx="4" fill="#D9D9D9"/>
</mask>
<g mask="url(#mask6_126_674)">
<path d="M329.962 -95.5V274.5" stroke="url(#paint66_linear_126_674)" stroke-width="1.5"/>
<path d="M332.962 -95.5V274.5" stroke="url(#paint67_linear_126_674)" stroke-width="1.5"/>
<path d="M335.962 -95.5V274.5" stroke="url(#paint68_linear_126_674)" stroke-width="1.5"/>
<path d="M338.962 -95.5V274.5" stroke="url(#paint69_linear_126_674)" stroke-width="1.5"/>
<path d="M341.962 -95.5V274.5" stroke="url(#paint70_linear_126_674)" stroke-width="1.5"/>
<path d="M344.962 -95.5V274.5" stroke="url(#paint71_linear_126_674)" stroke-width="1.5"/>
<path d="M347.962 -95.5V274.5" stroke="url(#paint72_linear_126_674)" stroke-width="1.5"/>
<path d="M350.962 -95.5V274.5" stroke="url(#paint73_linear_126_674)" stroke-width="1.5"/>
<path d="M353.962 -95.5V274.5" stroke="url(#paint74_linear_126_674)" stroke-width="1.5"/>
<path d="M356.962 -95.5V274.5" stroke="url(#paint75_linear_126_674)" stroke-width="1.5"/>
</g>
<rect x="329.5" y="32.5" width="27" height="115" rx="4" fill="url(#paint76_linear_126_674)"/>
<rect x="376.5" y="62.5" width="27" height="85" rx="6" fill="#F6F4FE"/>
<mask id="mask7_126_674" style="mask-type:alpha" maskUnits="userSpaceOnUse" x="376" y="62" width="28" height="86">
<rect x="376.5" y="62.5" width="27" height="85" rx="4" fill="#D9D9D9"/>
</mask>
<g mask="url(#mask7_126_674)">
<path d="M376.962 -80.5V289.5" stroke="url(#paint77_linear_126_674)" stroke-width="1.5"/>
<path d="M379.962 -80.5V289.5" stroke="url(#paint78_linear_126_674)" stroke-width="1.5"/>
<path d="M382.962 -80.5V289.5" stroke="url(#paint79_linear_126_674)" stroke-width="1.5"/>
<path d="M385.962 -80.5V289.5" stroke="url(#paint80_linear_126_674)" stroke-width="1.5"/>
<path d="M388.962 -80.5V289.5" stroke="url(#paint81_linear_126_674)" stroke-width="1.5"/>
<path d="M391.962 -80.5V289.5" stroke="url(#paint82_linear_126_674)" stroke-width="1.5"/>
<path d="M394.962 -80.5V289.5" stroke="url(#paint83_linear_126_674)" stroke-width="1.5"/>
<path d="M397.962 -80.5V289.5" stroke="url(#paint84_linear_126_674)" stroke-width="1.5"/>
<path d="M400.962 -80.5V289.5" stroke="url(#paint85_linear_126_674)" stroke-width="1.5"/>
<path d="M403.962 -80.5V289.5" stroke="url(#paint86_linear_126_674)" stroke-width="1.5"/>
</g>
<rect x="376.5" y="76.5" width="27" height="71" rx="4" fill="url(#paint87_linear_126_674)"/>
<rect x="423.5" y="32.5" width="27" height="115" rx="6" fill="#F6F4FE"/>
<mask id="mask8_126_674" style="mask-type:alpha" maskUnits="userSpaceOnUse" x="423" y="32" width="28" height="116">
<rect x="423.5" y="32.5" width="27" height="115" rx="4" fill="#D9D9D9"/>
</mask>
<g mask="url(#mask8_126_674)">
<path d="M423.962 -95.5V274.5" stroke="url(#paint88_linear_126_674)" stroke-width="1.5"/>
<path d="M426.962 -95.5V274.5" stroke="url(#paint89_linear_126_674)" stroke-width="1.5"/>
<path d="M429.962 -95.5V274.5" stroke="url(#paint90_linear_126_674)" stroke-width="1.5"/>
<path d="M432.962 -95.5V274.5" stroke="url(#paint91_linear_126_674)" stroke-width="1.5"/>
<path d="M435.962 -95.5V274.5" stroke="url(#paint92_linear_126_674)" stroke-width="1.5"/>
<path d="M438.962 -95.5V274.5" stroke="url(#paint93_linear_126_674)" stroke-width="1.5"/>
<path d="M441.962 -95.5V274.5" stroke="url(#paint94_linear_126_674)" stroke-width="1.5"/>
<path d="M444.962 -95.5V274.5" stroke="url(#paint95_linear_126_674)" stroke-width="1.5"/>
<path d="M447.962 -95.5V274.5" stroke="url(#paint96_linear_126_674)" stroke-width="1.5"/>
<path d="M450.962 -95.5V274.5" stroke="url(#paint97_linear_126_674)" stroke-width="1.5"/>
</g>
<rect x="423.5" y="62.5" width="27" height="85" rx="4" fill="url(#paint98_linear_126_674)"/>
<defs>
<linearGradient id="paint0_linear_126_674" x1="47.7197" y1="142.758" x2="46.4776" y2="142.761" gradientUnits="userSpaceOnUse">
<stop stop-color="#E6E5FB"/>
<stop offset="1" stop-color="#FEFDFF"/>
</linearGradient>
<linearGradient id="paint1_linear_126_674" x1="50.7197" y1="142.758" x2="49.4776" y2="142.761" gradientUnits="userSpaceOnUse">
<stop stop-color="#E6E5FB"/>
<stop offset="1" stop-color="#FEFDFF"/>
</linearGradient>
<linearGradient id="paint2_linear_126_674" x1="53.7197" y1="142.758" x2="52.4776" y2="142.761" gradientUnits="userSpaceOnUse">
<stop stop-color="#E6E5FB"/>
<stop offset="1" stop-color="#FEFDFF"/>
</linearGradient>
<linearGradient id="paint3_linear_126_674" x1="56.7197" y1="142.758" x2="55.4776" y2="142.761" gradientUnits="userSpaceOnUse">
<stop stop-color="#E6E5FB"/>
<stop offset="1" stop-color="#FEFDFF"/>
</linearGradient>
<linearGradient id="paint4_linear_126_674" x1="59.7197" y1="142.758" x2="58.4776" y2="142.761" gradientUnits="userSpaceOnUse">
<stop stop-color="#E6E5FB"/>
<stop offset="1" stop-color="#FEFDFF"/>
</linearGradient>
<linearGradient id="paint5_linear_126_674" x1="62.7197" y1="142.758" x2="61.4776" y2="142.761" gradientUnits="userSpaceOnUse">
<stop stop-color="#E6E5FB"/>
<stop offset="1" stop-color="#FEFDFF"/>
</linearGradient>
<linearGradient id="paint6_linear_126_674" x1="65.7197" y1="142.758" x2="64.4776" y2="142.761" gradientUnits="userSpaceOnUse">
<stop stop-color="#E6E5FB"/>
<stop offset="1" stop-color="#FEFDFF"/>
</linearGradient>
<linearGradient id="paint7_linear_126_674" x1="68.7197" y1="142.758" x2="67.4776" y2="142.761" gradientUnits="userSpaceOnUse">
<stop stop-color="#E6E5FB"/>
<stop offset="1" stop-color="#FEFDFF"/>
</linearGradient>
<linearGradient id="paint8_linear_126_674" x1="71.7197" y1="142.758" x2="70.4776" y2="142.761" gradientUnits="userSpaceOnUse">
<stop stop-color="#E6E5FB"/>
<stop offset="1" stop-color="#FEFDFF"/>
</linearGradient>
<linearGradient id="paint9_linear_126_674" x1="74.7197" y1="142.758" x2="73.4776" y2="142.761" gradientUnits="userSpaceOnUse">
<stop stop-color="#E6E5FB"/>
<stop offset="1" stop-color="#FEFDFF"/>
</linearGradient>
<linearGradient id="paint10_linear_126_674" x1="61" y1="76.5" x2="61.4841" y2="130" gradientUnits="userSpaceOnUse">
<stop stop-color="#8061DB" stop-opacity="0.38"/>
<stop offset="1" stop-color="#8061DB" stop-opacity="0.94"/>
</linearGradient>
<linearGradient id="paint11_linear_126_674" x1="94.7197" y1="125.758" x2="93.4776" y2="125.761" gradientUnits="userSpaceOnUse">
<stop stop-color="#E6E5FB"/>
<stop offset="1" stop-color="#FEFDFF"/>
</linearGradient>
<linearGradient id="paint12_linear_126_674" x1="97.7197" y1="125.758" x2="96.4776" y2="125.761" gradientUnits="userSpaceOnUse">
<stop stop-color="#E6E5FB"/>
<stop offset="1" stop-color="#FEFDFF"/>
</linearGradient>
<linearGradient id="paint13_linear_126_674" x1="100.72" y1="125.758" x2="99.4776" y2="125.761" gradientUnits="userSpaceOnUse">
<stop stop-color="#E6E5FB"/>
<stop offset="1" stop-color="#FEFDFF"/>
</linearGradient>
<linearGradient id="paint14_linear_126_674" x1="103.72" y1="125.758" x2="102.478" y2="125.761" gradientUnits="userSpaceOnUse">
<stop stop-color="#E6E5FB"/>
<stop offset="1" stop-color="#FEFDFF"/>
</linearGradient>
<linearGradient id="paint15_linear_126_674" x1="106.72" y1="125.758" x2="105.478" y2="125.761" gradientUnits="userSpaceOnUse">
<stop stop-color="#E6E5FB"/>
<stop offset="1" stop-color="#FEFDFF"/>
</linearGradient>
<linearGradient id="paint16_linear_126_674" x1="109.72" y1="125.758" x2="108.478" y2="125.761" gradientUnits="userSpaceOnUse">
<stop stop-color="#E6E5FB"/>
<stop offset="1" stop-color="#FEFDFF"/>
</linearGradient>
<linearGradient id="paint17_linear_126_674" x1="112.72" y1="125.758" x2="111.478" y2="125.761" gradientUnits="userSpaceOnUse">
<stop stop-color="#E6E5FB"/>
<stop offset="1" stop-color="#FEFDFF"/>
</linearGradient>
<linearGradient id="paint18_linear_126_674" x1="115.72" y1="125.758" x2="114.478" y2="125.761" gradientUnits="userSpaceOnUse">
<stop stop-color="#E6E5FB"/>
<stop offset="1" stop-color="#FEFDFF"/>
</linearGradient>
<linearGradient id="paint19_linear_126_674" x1="118.72" y1="125.758" x2="117.478" y2="125.761" gradientUnits="userSpaceOnUse">
<stop stop-color="#E6E5FB"/>
<stop offset="1" stop-color="#FEFDFF"/>
</linearGradient>
<linearGradient id="paint20_linear_126_674" x1="121.72" y1="125.758" x2="120.478" y2="125.761" gradientUnits="userSpaceOnUse">
<stop stop-color="#E6E5FB"/>
<stop offset="1" stop-color="#FEFDFF"/>
</linearGradient>
<linearGradient id="paint21_linear_126_674" x1="108" y1="117.5" x2="108.086" y2="140.107" gradientUnits="userSpaceOnUse">
<stop stop-color="#8061DB" stop-opacity="0.38"/>
<stop offset="1" stop-color="#8061DB" stop-opacity="0.94"/>
</linearGradient>
<linearGradient id="paint22_linear_126_674" x1="141.72" y1="168.758" x2="140.478" y2="168.761" gradientUnits="userSpaceOnUse">
<stop stop-color="#E6E5FB"/>
<stop offset="1" stop-color="#FEFDFF"/>
</linearGradient>
<linearGradient id="paint23_linear_126_674" x1="144.72" y1="168.758" x2="143.478" y2="168.761" gradientUnits="userSpaceOnUse">
<stop stop-color="#E6E5FB"/>
<stop offset="1" stop-color="#FEFDFF"/>
</linearGradient>
<linearGradient id="paint24_linear_126_674" x1="147.72" y1="168.758" x2="146.478" y2="168.761" gradientUnits="userSpaceOnUse">
<stop stop-color="#E6E5FB"/>
<stop offset="1" stop-color="#FEFDFF"/>
</linearGradient>
<linearGradient id="paint25_linear_126_674" x1="150.72" y1="168.758" x2="149.478" y2="168.761" gradientUnits="userSpaceOnUse">
<stop stop-color="#E6E5FB"/>
<stop offset="1" stop-color="#FEFDFF"/>
</linearGradient>
<linearGradient id="paint26_linear_126_674" x1="153.72" y1="168.758" x2="152.478" y2="168.761" gradientUnits="userSpaceOnUse">
<stop stop-color="#E6E5FB"/>
<stop offset="1" stop-color="#FEFDFF"/>
</linearGradient>
<linearGradient id="paint27_linear_126_674" x1="156.72" y1="168.758" x2="155.478" y2="168.761" gradientUnits="userSpaceOnUse">
<stop stop-color="#E6E5FB"/>
<stop offset="1" stop-color="#FEFDFF"/>
</linearGradient>
<linearGradient id="paint28_linear_126_674" x1="159.72" y1="168.758" x2="158.478" y2="168.761" gradientUnits="userSpaceOnUse">
<stop stop-color="#E6E5FB"/>
<stop offset="1" stop-color="#FEFDFF"/>
</linearGradient>
<linearGradient id="paint29_linear_126_674" x1="162.72" y1="168.758" x2="161.478" y2="168.761" gradientUnits="userSpaceOnUse">
<stop stop-color="#E6E5FB"/>
<stop offset="1" stop-color="#FEFDFF"/>
</linearGradient>
<linearGradient id="paint30_linear_126_674" x1="165.72" y1="168.758" x2="164.478" y2="168.761" gradientUnits="userSpaceOnUse">
<stop stop-color="#E6E5FB"/>
<stop offset="1" stop-color="#FEFDFF"/>
</linearGradient>
<linearGradient id="paint31_linear_126_674" x1="168.72" y1="168.758" x2="167.478" y2="168.761" gradientUnits="userSpaceOnUse">
<stop stop-color="#E6E5FB"/>
<stop offset="1" stop-color="#FEFDFF"/>
</linearGradient>
<linearGradient id="paint32_linear_126_674" x1="155" y1="92.5" x2="155.29" y2="133.945" gradientUnits="userSpaceOnUse">
<stop stop-color="#8061DB" stop-opacity="0.38"/>
<stop offset="1" stop-color="#8061DB" stop-opacity="0.94"/>
</linearGradient>
<linearGradient id="paint33_linear_126_674" x1="188.72" y1="142.758" x2="187.478" y2="142.761" gradientUnits="userSpaceOnUse">
<stop stop-color="#E6E5FB"/>
<stop offset="1" stop-color="#FEFDFF"/>
</linearGradient>
<linearGradient id="paint34_linear_126_674" x1="191.72" y1="142.758" x2="190.478" y2="142.761" gradientUnits="userSpaceOnUse">
<stop stop-color="#E6E5FB"/>
<stop offset="1" stop-color="#FEFDFF"/>
</linearGradient>
<linearGradient id="paint35_linear_126_674" x1="194.72" y1="142.758" x2="193.478" y2="142.761" gradientUnits="userSpaceOnUse">
<stop stop-color="#E6E5FB"/>
<stop offset="1" stop-color="#FEFDFF"/>
</linearGradient>
<linearGradient id="paint36_linear_126_674" x1="197.72" y1="142.758" x2="196.478" y2="142.761" gradientUnits="userSpaceOnUse">
<stop stop-color="#E6E5FB"/>
<stop offset="1" stop-color="#FEFDFF"/>
</linearGradient>
<linearGradient id="paint37_linear_126_674" x1="200.72" y1="142.758" x2="199.478" y2="142.761" gradientUnits="userSpaceOnUse">
<stop stop-color="#E6E5FB"/>
<stop offset="1" stop-color="#FEFDFF"/>
</linearGradient>
<linearGradient id="paint38_linear_126_674" x1="203.72" y1="142.758" x2="202.478" y2="142.761" gradientUnits="userSpaceOnUse">
<stop stop-color="#E6E5FB"/>
<stop offset="1" stop-color="#FEFDFF"/>
</linearGradient>
<linearGradient id="paint39_linear_126_674" x1="206.72" y1="142.758" x2="205.478" y2="142.761" gradientUnits="userSpaceOnUse">
<stop stop-color="#E6E5FB"/>
<stop offset="1" stop-color="#FEFDFF"/>
</linearGradient>
<linearGradient id="paint40_linear_126_674" x1="209.72" y1="142.758" x2="208.478" y2="142.761" gradientUnits="userSpaceOnUse">
<stop stop-color="#E6E5FB"/>
<stop offset="1" stop-color="#FEFDFF"/>
</linearGradient>
<linearGradient id="paint41_linear_126_674" x1="212.72" y1="142.758" x2="211.478" y2="142.761" gradientUnits="userSpaceOnUse">
<stop stop-color="#E6E5FB"/>
<stop offset="1" stop-color="#FEFDFF"/>
</linearGradient>
<linearGradient id="paint42_linear_126_674" x1="215.72" y1="142.758" x2="214.478" y2="142.761" gradientUnits="userSpaceOnUse">
<stop stop-color="#E6E5FB"/>
<stop offset="1" stop-color="#FEFDFF"/>
</linearGradient>
<linearGradient id="paint43_linear_126_674" x1="202" y1="76.5" x2="202.484" y2="130" gradientUnits="userSpaceOnUse">
<stop stop-color="#8061DB" stop-opacity="0.38"/>
<stop offset="1" stop-color="#8061DB" stop-opacity="0.94"/>
</linearGradient>
<linearGradient id="paint44_linear_126_674" x1="235.72" y1="151.758" x2="234.478" y2="151.761" gradientUnits="userSpaceOnUse">
<stop stop-color="#E6E5FB"/>
<stop offset="1" stop-color="#FEFDFF"/>
</linearGradient>
<linearGradient id="paint45_linear_126_674" x1="238.72" y1="151.758" x2="237.478" y2="151.761" gradientUnits="userSpaceOnUse">
<stop stop-color="#E6E5FB"/>
<stop offset="1" stop-color="#FEFDFF"/>
</linearGradient>
<linearGradient id="paint46_linear_126_674" x1="241.72" y1="151.758" x2="240.478" y2="151.761" gradientUnits="userSpaceOnUse">
<stop stop-color="#E6E5FB"/>
<stop offset="1" stop-color="#FEFDFF"/>
</linearGradient>
<linearGradient id="paint47_linear_126_674" x1="244.72" y1="151.758" x2="243.478" y2="151.761" gradientUnits="userSpaceOnUse">
<stop stop-color="#E6E5FB"/>
<stop offset="1" stop-color="#FEFDFF"/>
</linearGradient>
<linearGradient id="paint48_linear_126_674" x1="247.72" y1="151.758" x2="246.478" y2="151.761" gradientUnits="userSpaceOnUse">
<stop stop-color="#E6E5FB"/>
<stop offset="1" stop-color="#FEFDFF"/>
</linearGradient>
<linearGradient id="paint49_linear_126_674" x1="250.72" y1="151.758" x2="249.478" y2="151.761" gradientUnits="userSpaceOnUse">
<stop stop-color="#E6E5FB"/>
<stop offset="1" stop-color="#FEFDFF"/>
</linearGradient>
<linearGradient id="paint50_linear_126_674" x1="253.72" y1="151.758" x2="252.478" y2="151.761" gradientUnits="userSpaceOnUse">
<stop stop-color="#E6E5FB"/>
<stop offset="1" stop-color="#FEFDFF"/>
</linearGradient>
<linearGradient id="paint51_linear_126_674" x1="256.72" y1="151.758" x2="255.478" y2="151.761" gradientUnits="userSpaceOnUse">
<stop stop-color="#E6E5FB"/>
<stop offset="1" stop-color="#FEFDFF"/>
</linearGradient>
<linearGradient id="paint52_linear_126_674" x1="259.72" y1="151.758" x2="258.478" y2="151.761" gradientUnits="userSpaceOnUse">
<stop stop-color="#E6E5FB"/>
<stop offset="1" stop-color="#FEFDFF"/>
</linearGradient>
<linearGradient id="paint53_linear_126_674" x1="262.72" y1="151.758" x2="261.478" y2="151.761" gradientUnits="userSpaceOnUse">
<stop stop-color="#E6E5FB"/>
<stop offset="1" stop-color="#FEFDFF"/>
</linearGradient>
<linearGradient id="paint54_linear_126_674" x1="249" y1="115.5" x2="249.098" y2="139.614" gradientUnits="userSpaceOnUse">
<stop stop-color="#8061DB" stop-opacity="0.38"/>
<stop offset="1" stop-color="#8061DB" stop-opacity="0.94"/>
</linearGradient>
<linearGradient id="paint55_linear_126_674" x1="282.72" y1="125.758" x2="281.478" y2="125.761" gradientUnits="userSpaceOnUse">
<stop stop-color="#E6E5FB"/>
<stop offset="1" stop-color="#FEFDFF"/>
</linearGradient>
<linearGradient id="paint56_linear_126_674" x1="285.72" y1="125.758" x2="284.478" y2="125.761" gradientUnits="userSpaceOnUse">
<stop stop-color="#E6E5FB"/>
<stop offset="1" stop-color="#FEFDFF"/>
</linearGradient>
<linearGradient id="paint57_linear_126_674" x1="288.72" y1="125.758" x2="287.478" y2="125.761" gradientUnits="userSpaceOnUse">
<stop stop-color="#E6E5FB"/>
<stop offset="1" stop-color="#FEFDFF"/>
</linearGradient>
<linearGradient id="paint58_linear_126_674" x1="291.72" y1="125.758" x2="290.478" y2="125.761" gradientUnits="userSpaceOnUse">
<stop stop-color="#E6E5FB"/>
<stop offset="1" stop-color="#FEFDFF"/>
</linearGradient>
<linearGradient id="paint59_linear_126_674" x1="294.72" y1="125.758" x2="293.478" y2="125.761" gradientUnits="userSpaceOnUse">
<stop stop-color="#E6E5FB"/>
<stop offset="1" stop-color="#FEFDFF"/>
</linearGradient>
<linearGradient id="paint60_linear_126_674" x1="297.72" y1="125.758" x2="296.478" y2="125.761" gradientUnits="userSpaceOnUse">
<stop stop-color="#E6E5FB"/>
<stop offset="1" stop-color="#FEFDFF"/>
</linearGradient>
<linearGradient id="paint61_linear_126_674" x1="300.72" y1="125.758" x2="299.478" y2="125.761" gradientUnits="userSpaceOnUse">
<stop stop-color="#E6E5FB"/>
<stop offset="1" stop-color="#FEFDFF"/>
</linearGradient>
<linearGradient id="paint62_linear_126_674" x1="303.72" y1="125.758" x2="302.478" y2="125.761" gradientUnits="userSpaceOnUse">
<stop stop-color="#E6E5FB"/>
<stop offset="1" stop-color="#FEFDFF"/>
</linearGradient>
<linearGradient id="paint63_linear_126_674" x1="306.72" y1="125.758" x2="305.478" y2="125.761" gradientUnits="userSpaceOnUse">
<stop stop-color="#E6E5FB"/>
<stop offset="1" stop-color="#FEFDFF"/>
</linearGradient>
<linearGradient id="paint64_linear_126_674" x1="309.72" y1="125.758" x2="308.478" y2="125.761" gradientUnits="userSpaceOnUse">
<stop stop-color="#E6E5FB"/>
<stop offset="1" stop-color="#FEFDFF"/>
</linearGradient>
<linearGradient id="paint65_linear_126_674" x1="296" y1="115.5" x2="296.098" y2="139.614" gradientUnits="userSpaceOnUse">
<stop stop-color="#8061DB" stop-opacity="0.38"/>
<stop offset="1" stop-color="#8061DB" stop-opacity="0.94"/>
</linearGradient>
<linearGradient id="paint66_linear_126_674" x1="329.72" y1="138.758" x2="328.478" y2="138.761" gradientUnits="userSpaceOnUse">
<stop stop-color="#E6E5FB"/>
<stop offset="1" stop-color="#FEFDFF"/>
</linearGradient>
<linearGradient id="paint67_linear_126_674" x1="332.72" y1="138.758" x2="331.478" y2="138.761" gradientUnits="userSpaceOnUse">
<stop stop-color="#E6E5FB"/>
<stop offset="1" stop-color="#FEFDFF"/>
</linearGradient>
<linearGradient id="paint68_linear_126_674" x1="335.72" y1="138.758" x2="334.478" y2="138.761" gradientUnits="userSpaceOnUse">
<stop stop-color="#E6E5FB"/>
<stop offset="1" stop-color="#FEFDFF"/>
</linearGradient>
<linearGradient id="paint69_linear_126_674" x1="338.72" y1="138.758" x2="337.478" y2="138.761" gradientUnits="userSpaceOnUse">
<stop stop-color="#E6E5FB"/>
<stop offset="1" stop-color="#FEFDFF"/>
</linearGradient>
<linearGradient id="paint70_linear_126_674" x1="341.72" y1="138.758" x2="340.478" y2="138.761" gradientUnits="userSpaceOnUse">
<stop stop-color="#E6E5FB"/>
<stop offset="1" stop-color="#FEFDFF"/>
</linearGradient>
<linearGradient id="paint71_linear_126_674" x1="344.72" y1="138.758" x2="343.478" y2="138.761" gradientUnits="userSpaceOnUse">
<stop stop-color="#E6E5FB"/>
<stop offset="1" stop-color="#FEFDFF"/>
</linearGradient>
<linearGradient id="paint72_linear_126_674" x1="347.72" y1="138.758" x2="346.478" y2="138.761" gradientUnits="userSpaceOnUse">
<stop stop-color="#E6E5FB"/>
<stop offset="1" stop-color="#FEFDFF"/>
</linearGradient>
<linearGradient id="paint73_linear_126_674" x1="350.72" y1="138.758" x2="349.478" y2="138.761" gradientUnits="userSpaceOnUse">
<stop stop-color="#E6E5FB"/>
<stop offset="1" stop-color="#FEFDFF"/>
</linearGradient>
<linearGradient id="paint74_linear_126_674" x1="353.72" y1="138.758" x2="352.478" y2="138.761" gradientUnits="userSpaceOnUse">
<stop stop-color="#E6E5FB"/>
<stop offset="1" stop-color="#FEFDFF"/>
</linearGradient>
<linearGradient id="paint75_linear_126_674" x1="356.72" y1="138.758" x2="355.478" y2="138.761" gradientUnits="userSpaceOnUse">
<stop stop-color="#E6E5FB"/>
<stop offset="1" stop-color="#FEFDFF"/>
</linearGradient>
<linearGradient id="paint76_linear_126_674" x1="343" y1="32.5" x2="344.27" y2="119.144" gradientUnits="userSpaceOnUse">
<stop stop-color="#8061DB" stop-opacity="0.38"/>
<stop offset="1" stop-color="#8061DB" stop-opacity="0.94"/>
</linearGradient>
<linearGradient id="paint77_linear_126_674" x1="376.72" y1="153.758" x2="375.478" y2="153.761" gradientUnits="userSpaceOnUse">
<stop stop-color="#E6E5FB"/>
<stop offset="1" stop-color="#FEFDFF"/>
</linearGradient>
<linearGradient id="paint78_linear_126_674" x1="379.72" y1="153.758" x2="378.478" y2="153.761" gradientUnits="userSpaceOnUse">
<stop stop-color="#E6E5FB"/>
<stop offset="1" stop-color="#FEFDFF"/>
</linearGradient>
<linearGradient id="paint79_linear_126_674" x1="382.72" y1="153.758" x2="381.478" y2="153.761" gradientUnits="userSpaceOnUse">
<stop stop-color="#E6E5FB"/>
<stop offset="1" stop-color="#FEFDFF"/>
</linearGradient>
<linearGradient id="paint80_linear_126_674" x1="385.72" y1="153.758" x2="384.478" y2="153.761" gradientUnits="userSpaceOnUse">
<stop stop-color="#E6E5FB"/>
<stop offset="1" stop-color="#FEFDFF"/>
</linearGradient>
<linearGradient id="paint81_linear_126_674" x1="388.72" y1="153.758" x2="387.478" y2="153.761" gradientUnits="userSpaceOnUse">
<stop stop-color="#E6E5FB"/>
<stop offset="1" stop-color="#FEFDFF"/>
</linearGradient>
<linearGradient id="paint82_linear_126_674" x1="391.72" y1="153.758" x2="390.478" y2="153.761" gradientUnits="userSpaceOnUse">
<stop stop-color="#E6E5FB"/>
<stop offset="1" stop-color="#FEFDFF"/>
</linearGradient>
<linearGradient id="paint83_linear_126_674" x1="394.72" y1="153.758" x2="393.478" y2="153.761" gradientUnits="userSpaceOnUse">
<stop stop-color="#E6E5FB"/>
<stop offset="1" stop-color="#FEFDFF"/>
</linearGradient>
<linearGradient id="paint84_linear_126_674" x1="397.72" y1="153.758" x2="396.478" y2="153.761" gradientUnits="userSpaceOnUse">
<stop stop-color="#E6E5FB"/>
<stop offset="1" stop-color="#FEFDFF"/>
</linearGradient>
<linearGradient id="paint85_linear_126_674" x1="400.72" y1="153.758" x2="399.478" y2="153.761" gradientUnits="userSpaceOnUse">
<stop stop-color="#E6E5FB"/>
<stop offset="1" stop-color="#FEFDFF"/>
</linearGradient>
<linearGradient id="paint86_linear_126_674" x1="403.72" y1="153.758" x2="402.478" y2="153.761" gradientUnits="userSpaceOnUse">
<stop stop-color="#E6E5FB"/>
<stop offset="1" stop-color="#FEFDFF"/>
</linearGradient>
<linearGradient id="paint87_linear_126_674" x1="390" y1="76.5" x2="390.484" y2="130" gradientUnits="userSpaceOnUse">
<stop stop-color="#8061DB" stop-opacity="0.38"/>
<stop offset="1" stop-color="#8061DB" stop-opacity="0.94"/>
</linearGradient>
<linearGradient id="paint88_linear_126_674" x1="423.72" y1="138.758" x2="422.478" y2="138.761" gradientUnits="userSpaceOnUse">
<stop stop-color="#E6E5FB"/>
<stop offset="1" stop-color="#FEFDFF"/>
</linearGradient>
<linearGradient id="paint89_linear_126_674" x1="426.72" y1="138.758" x2="425.478" y2="138.761" gradientUnits="userSpaceOnUse">
<stop stop-color="#E6E5FB"/>
<stop offset="1" stop-color="#FEFDFF"/>
</linearGradient>
<linearGradient id="paint90_linear_126_674" x1="429.72" y1="138.758" x2="428.478" y2="138.761" gradientUnits="userSpaceOnUse">
<stop stop-color="#E6E5FB"/>
<stop offset="1" stop-color="#FEFDFF"/>
</linearGradient>
<linearGradient id="paint91_linear_126_674" x1="432.72" y1="138.758" x2="431.478" y2="138.761" gradientUnits="userSpaceOnUse">
<stop stop-color="#E6E5FB"/>
<stop offset="1" stop-color="#FEFDFF"/>
</linearGradient>
<linearGradient id="paint92_linear_126_674" x1="435.72" y1="138.758" x2="434.478" y2="138.761" gradientUnits="userSpaceOnUse">
<stop stop-color="#E6E5FB"/>
<stop offset="1" stop-color="#FEFDFF"/>
</linearGradient>
<linearGradient id="paint93_linear_126_674" x1="438.72" y1="138.758" x2="437.478" y2="138.761" gradientUnits="userSpaceOnUse">
<stop stop-color="#E6E5FB"/>
<stop offset="1" stop-color="#FEFDFF"/>
</linearGradient>
<linearGradient id="paint94_linear_126_674" x1="441.72" y1="138.758" x2="440.478" y2="138.761" gradientUnits="userSpaceOnUse">
<stop stop-color="#E6E5FB"/>
<stop offset="1" stop-color="#FEFDFF"/>
</linearGradient>
<linearGradient id="paint95_linear_126_674" x1="444.72" y1="138.758" x2="443.478" y2="138.761" gradientUnits="userSpaceOnUse">
<stop stop-color="#E6E5FB"/>
<stop offset="1" stop-color="#FEFDFF"/>
</linearGradient>
<linearGradient id="paint96_linear_126_674" x1="447.72" y1="138.758" x2="446.478" y2="138.761" gradientUnits="userSpaceOnUse">
<stop stop-color="#E6E5FB"/>
<stop offset="1" stop-color="#FEFDFF"/>
</linearGradient>
<linearGradient id="paint97_linear_126_674" x1="450.72" y1="138.758" x2="449.478" y2="138.761" gradientUnits="userSpaceOnUse">
<stop stop-color="#E6E5FB"/>
<stop offset="1" stop-color="#FEFDFF"/>
</linearGradient>
<linearGradient id="paint98_linear_126_674" x1="437" y1="62.5" x2="437.694" y2="126.547" gradientUnits="userSpaceOnUse">
<stop stop-color="#8061DB" stop-opacity="0.38"/>
<stop offset="1" stop-color="#8061DB" stop-opacity="0.94"/>
</linearGradient>
</defs>
</svg>
