<svg width="18" height="22" viewBox="0 0 18 22" fill="none" xmlns="http://www.w3.org/2000/svg">
<path d="M14.4912 14.0698L16.9133 19.2645L14.5318 19.0698L13.1914 21L10.9121 16.1121" stroke="#013B95" stroke-width="0.616016" stroke-miterlimit="10"/>
<path d="M3.93682 14.0698L1.51465 19.2645L3.89617 19.0698L5.23662 21L7.51588 16.1121" stroke="#013B95" stroke-width="0.616016" stroke-miterlimit="10"/>
<path d="M17.4271 9.21355L16.0156 11.0366L16.3276 13.3213L14.1917 14.1917L13.3213 16.3276L11.0366 16.0156L9.21355 17.4271L7.39051 16.0156L5.10583 16.3276L4.2354 14.1917L2.09951 13.3213L2.41154 11.0366L1 9.21355L2.41154 7.39051L2.09951 5.10583L4.2354 4.2354L5.10583 2.09951L7.39051 2.41154L9.21355 1L11.0366 2.41154L13.3213 2.09951L14.1917 4.2354L16.3276 5.10583L16.0156 7.39051L17.4271 9.21355Z" stroke="#013B95" stroke-width="0.616016" stroke-miterlimit="10"/>
<path d="M9.21407 14.7577C12.276 14.7577 14.7582 12.2755 14.7582 9.21358C14.7582 6.15163 12.276 3.66943 9.21407 3.66943C6.15212 3.66943 3.66992 6.15163 3.66992 9.21358C3.66992 12.2755 6.15212 14.7577 9.21407 14.7577Z" stroke="#013B95" stroke-width="0.616016" stroke-miterlimit="10"/>
</svg>
