<svg width="18" height="16" viewBox="0 0 18 16" fill="none" xmlns="http://www.w3.org/2000/svg">
<path d="M15.4419 3.5969H14.8837V1.92248C14.8837 0.868217 14.0155 0 12.9612 0H4.27907C1.92248 0 0 1.86046 0 4.21705V11.7829C0 14.1395 1.92248 16 4.21705 16H15.3798C16.4341 16 17.3023 15.1318 17.3023 14.0775V5.51938C17.3643 4.46512 16.4961 3.5969 15.4419 3.5969ZM16.124 14.0775C16.124 14.4496 15.814 14.7597 15.4419 14.7597H4.27907C2.60465 14.7597 1.30233 13.3953 1.30233 11.7829V4.21705C1.30233 2.54264 2.66667 1.24031 4.27907 1.24031H12.9612C13.3333 1.24031 13.6434 1.55039 13.6434 1.92248V3.5969H4.96124C4.58915 3.5969 4.34109 3.84496 4.34109 4.21705C4.34109 4.58915 4.58915 4.83721 4.96124 4.83721H15.4419C15.814 4.83721 16.124 5.14729 16.124 5.51938V14.0775Z" fill="#164D64"/>
<path d="M13.0236 7.93799C11.9693 7.93799 11.1631 8.74419 11.1631 9.79845C11.1631 10.8527 11.9693 11.6589 13.0236 11.6589C14.0778 11.6589 14.884 10.8527 14.884 9.79845C14.884 8.74419 14.0778 7.93799 13.0236 7.93799ZM13.0236 10.4186C12.6515 10.4186 12.4034 10.1705 12.4034 9.79845C12.4034 9.42636 12.6515 9.1783 13.0236 9.1783C13.3956 9.1783 13.6437 9.42636 13.6437 9.79845C13.6437 10.1705 13.3956 10.4186 13.0236 10.4186Z" fill="#164D64"/>
</svg>
