<svg width="20" height="16" viewBox="0 0 20 16" fill="none" xmlns="http://www.w3.org/2000/svg">
<path d="M18 0H2C0.9 0 0 0.9 0 2V10.6667C0 11.5333 0.56 12.2667 1.33333 12.5467V14C1.33333 15.1 2.23333 16 3.33333 16H16.6667C17.7667 16 18.6667 15.1 18.6667 14V12.5467C19.44 12.2733 20 11.54 20 10.6667V2C20 0.9 19.1 0 18 0ZM18.6667 2V3.24C17.7333 3 17.0067 2.26667 16.76 1.33333H18C18.3667 1.33333 18.6667 1.63333 18.6667 2ZM15.3933 11.3333H4.60667C4.32667 9.66 3.00667 8.34 1.33333 8.06V4.60667C3.00667 4.32667 4.32667 3.00667 4.60667 1.33333H15.3933C15.6733 3.00667 16.9933 4.32667 18.6667 4.60667V8.06C16.9933 8.34 15.6733 9.66 15.3933 11.3333ZM2 11.3333C1.63333 11.3333 1.33333 11.0333 1.33333 10.6667V9.42667C2.26667 9.66667 2.99333 10.4 3.24 11.3333H2ZM2 1.33333H3.24C3 2.26667 2.26667 2.99333 1.33333 3.24V2C1.33333 1.63333 1.63333 1.33333 2 1.33333ZM16.6667 14.6667H3.33333C2.96667 14.6667 2.66667 14.3667 2.66667 14V12.6667H17.3333V14C17.3333 14.3667 17.0333 14.6667 16.6667 14.6667ZM18 11.3333H16.76C17 10.4 17.7333 9.67333 18.6667 9.42667V10.6667C18.6667 11.0333 18.3667 11.3333 18 11.3333Z" fill="#256A1D"/>
<path d="M9.99935 3.00049C8.15935 3.00049 6.66602 4.49382 6.66602 6.33382C6.66602 8.17382 8.15935 9.66715 9.99935 9.66715C11.8393 9.66715 13.3327 8.17382 13.3327 6.33382C13.3327 4.49382 11.8393 3.00049 9.99935 3.00049ZM9.99935 8.33382C8.89935 8.33382 7.99935 7.43382 7.99935 6.33382C7.99935 5.23382 8.89935 4.33382 9.99935 4.33382C11.0993 4.33382 11.9993 5.23382 11.9993 6.33382C11.9993 7.43382 11.0993 8.33382 9.99935 8.33382Z" fill="#256A1D"/>
<path d="M16.667 5.6665H15.3337C14.967 5.6665 14.667 5.9665 14.667 6.33317C14.667 6.69984 14.967 6.99984 15.3337 6.99984H16.667C17.0337 6.99984 17.3337 6.69984 17.3337 6.33317C17.3337 5.9665 17.0337 5.6665 16.667 5.6665Z" fill="#256A1D"/>
<path d="M4.66699 5.6665H3.33366C2.96699 5.6665 2.66699 5.9665 2.66699 6.33317C2.66699 6.69984 2.96699 6.99984 3.33366 6.99984H4.66699C5.03366 6.99984 5.33366 6.69984 5.33366 6.33317C5.33366 5.9665 5.03366 5.6665 4.66699 5.6665Z" fill="#256A1D"/>
</svg>
