<svg width="45" height="54" viewBox="0 0 45 54" fill="none" xmlns="http://www.w3.org/2000/svg">
<path d="M13.1893 20.3657C13.1893 21.5179 12.4153 22.4897 11.3681 22.7715V23.2073C11.3681 23.6458 11.0185 24.0014 10.5872 24.0014C10.156 24.0014 9.80633 23.6458 9.80633 23.2073V22.724C8.83895 22.3919 8.14051 21.4602 8.14051 20.3658C8.14051 19.9272 8.49015 19.5717 8.92141 19.5717C9.35268 19.5717 9.70231 19.9272 9.70231 20.3658C9.70231 20.8621 10.0992 21.2657 10.5872 21.2657H10.7425C11.2305 21.2657 11.6275 20.862 11.6275 20.3657C11.6275 19.8694 11.2305 19.4658 10.7425 19.4658H10.432C9.0828 19.4658 7.98527 18.3496 7.98527 16.9776C7.98527 15.8255 8.7593 14.8537 9.80633 14.5718V14.1359C9.80633 13.6973 10.156 13.3418 10.5872 13.3418C11.0185 13.3418 11.3681 13.6973 11.3681 14.1359V14.6192C12.3355 14.9514 13.0339 15.8831 13.0339 16.9775C13.0339 17.416 12.6843 17.7716 12.253 17.7716C11.8218 17.7716 11.4721 17.416 11.4721 16.9775C11.4721 16.4812 11.0752 16.0776 10.5872 16.0776H10.432C9.94397 16.0776 9.54707 16.4812 9.54707 16.9775C9.54707 17.4737 9.94397 17.8775 10.432 17.8775H10.7425C12.0917 17.8776 13.1893 18.9938 13.1893 20.3657ZM25.5785 8.92253V6.24317C25.5785 5.8046 25.9281 5.44905 26.3594 5.44905H28.9941C29.4253 5.44905 29.775 5.8046 29.775 6.24317V8.92242C29.775 9.36099 29.4253 9.71654 28.9941 9.71654H26.3594C25.9281 9.71665 25.5785 9.3611 25.5785 8.92253ZM27.1403 8.12841H28.2132V7.03729H27.1403V8.12841ZM30.6842 8.92253V6.24317C30.6842 5.8046 31.0339 5.44905 31.4651 5.44905H34.0998C34.5311 5.44905 34.8807 5.8046 34.8807 6.24317V8.92242C34.8807 9.36099 34.5311 9.71654 34.0998 9.71654H31.4651C31.0339 9.71665 30.6842 9.3611 30.6842 8.92253ZM32.246 8.12841H33.3189V7.03729H32.246V8.12841ZM35.79 8.92253V6.24317C35.79 5.8046 36.1396 5.44905 36.5709 5.44905H39.2055C39.6368 5.44905 39.9864 5.8046 39.9864 6.24317V8.92242C39.9864 9.36099 39.6368 9.71654 39.2055 9.71654H36.5709C36.1396 9.71665 35.79 9.3611 35.79 8.92253ZM37.3518 8.12841H38.4246V7.03729H37.3518V8.12841ZM25.5785 14.3168V11.6376C25.5785 11.199 25.9281 10.8435 26.3594 10.8435H28.9941C29.4253 10.8435 29.775 11.199 29.775 11.6376V14.3168C29.775 14.7554 29.4253 15.111 28.9941 15.111H26.3594C25.9281 15.111 25.5785 14.7554 25.5785 14.3168ZM27.1403 13.5227H28.2132V12.4317H27.1403V13.5227ZM30.6842 14.3168V11.6376C30.6842 11.199 31.0339 10.8435 31.4651 10.8435H34.0998C34.5311 10.8435 34.8807 11.199 34.8807 11.6376V14.3168C34.8807 14.7554 34.5311 15.111 34.0998 15.111H31.4651C31.0339 15.111 30.6842 14.7554 30.6842 14.3168ZM32.246 13.5227H33.3189V12.4317H32.246V13.5227ZM35.79 14.3168V11.6376C35.79 11.199 36.1396 10.8435 36.5709 10.8435H39.2055C39.6368 10.8435 39.9864 11.199 39.9864 11.6376V14.3168C39.9864 14.7554 39.6368 15.111 39.2055 15.111H36.5709C36.1396 15.111 35.79 14.7554 35.79 14.3168ZM37.3518 13.5227H38.4246V12.4317H37.3518V13.5227ZM25.5785 19.7112V17.032C25.5785 16.5934 25.9281 16.2379 26.3594 16.2379H28.9941C29.4253 16.2379 29.775 16.5934 29.775 17.032V19.7112C29.775 20.1498 29.4253 20.5054 28.9941 20.5054H26.3594C25.9281 20.5054 25.5785 20.1498 25.5785 19.7112ZM27.1403 18.9171H28.2132V17.8261H27.1403V18.9171ZM30.6842 19.7112V17.032C30.6842 16.5934 31.0339 16.2379 31.4651 16.2379H34.0998C34.5311 16.2379 34.8807 16.5934 34.8807 17.032V19.7112C34.8807 20.1498 34.5311 20.5054 34.0998 20.5054H31.4651C31.0339 20.5054 30.6842 20.1498 30.6842 19.7112ZM32.246 18.9171H33.3189V17.8261H32.246V18.9171ZM35.79 19.7112V17.032C35.79 16.5934 36.1396 16.2379 36.5709 16.2379H39.2055C39.6368 16.2379 39.9864 16.5934 39.9864 17.032V19.7112C39.9864 20.1498 39.6368 20.5054 39.2055 20.5054H36.5709C36.1396 20.5054 35.79 20.1498 35.79 19.7112ZM37.3518 18.9171H38.4246V17.8261H37.3518V18.9171ZM45 25.5509V42.526C45 42.9646 44.6504 43.3201 44.2191 43.3201H38.3347C38.0019 43.3201 37.7057 43.1057 37.5968 42.7859L37.3242 41.9854C37.2095 42.0435 35.7169 42.8059 35.0214 43.0945C34.8409 43.1694 34.6582 43.2292 34.4746 43.2748C35.2644 44.4127 35.1655 45.9552 34.1802 46.9572C33.5163 47.6322 32.6003 47.8985 31.7376 47.7559C31.6756 48.3902 31.4061 49.0072 30.9293 49.492C30.4 50.0303 29.694 50.3269 28.9413 50.3269C28.7189 50.3269 28.5006 50.3011 28.2897 50.2507C28.2035 50.8343 27.94 51.3958 27.499 51.8442C26.6223 52.7359 25.3055 52.9143 24.2525 52.3796C24.1346 52.7059 23.947 53.0118 23.6898 53.2733C23.2285 53.7424 22.6147 54 21.9599 54C21.9547 54 21.9496 54 21.9444 54C21.2928 53.996 20.6861 53.7354 20.2361 53.2664L13.3057 46.0448C13.2229 45.9586 13.1329 45.8632 13.0356 45.7602C12.0914 44.7606 10.4111 42.9815 8.23963 42.1154L8.0114 42.7856C7.90249 43.1055 7.60627 43.3199 7.27351 43.3199H1.38917C0.957903 43.3199 0.608268 42.9644 0.608268 42.5258V25.5507C0.608268 25.1728 0.870234 24.8471 1.23455 24.7722C1.42082 24.734 1.6072 24.6995 1.79378 24.6669C0.63003 22.903 0 20.8197 0 18.6713C0 12.7345 4.74943 7.90468 10.5873 7.90468C16.4252 7.90468 21.1747 12.7345 21.1747 18.6713C21.1747 21.2687 20.2525 23.7771 18.578 25.7346C17.3985 27.1134 15.9021 28.1537 14.242 28.7754C16.0743 29.1732 17.8221 29.0871 20.1163 28.5631L20.3069 28.3808C20.9913 27.7266 21.7643 27.2409 22.5899 26.9309V8.1499L21.3908 9.10624C21.1696 9.28274 20.9047 9.37327 20.6369 9.37327C20.455 9.37327 20.2718 9.33145 20.1 9.24653C19.6755 9.03657 19.4119 8.60753 19.4119 8.12703V7.62091H12.9543C12.523 7.62091 12.1734 7.26536 12.1734 6.82679V3.23514C12.1734 2.79658 12.523 2.44102 12.9543 2.44102H19.4119V1.93501C19.4119 1.45451 19.6755 1.02558 20.1 0.815509C20.5245 0.605544 21.0191 0.659226 21.3909 0.955804L23.3675 2.5324C23.3687 2.5324 23.3697 2.53219 23.3709 2.53219H25.6826V0.794121C25.6826 0.355554 26.0323 0 26.4635 0H39.1017C39.533 0 39.8826 0.355554 39.8826 0.794121V2.53219H42.1944C42.6257 2.53219 42.9753 2.88774 42.9753 3.32631V24.5398C43.4421 24.5996 43.9083 24.6769 44.3738 24.7725C44.738 24.8474 45 25.173 45 25.5509ZM27.2443 2.53219H38.3207V1.58824H27.2443V2.53219ZM23.8644 5.11488C23.8908 5.0937 23.9044 5.06554 23.9044 5.03102C23.9044 4.9965 23.8909 4.96834 23.8644 4.94716L20.9736 2.64146V3.23504C20.9736 3.6736 20.624 4.02916 20.1927 4.02916H13.7352V6.03267H20.1928C20.6241 6.03267 20.9737 6.38823 20.9737 6.82679V7.42037L23.8644 5.11488ZM24.1517 26.5628C24.9823 26.4764 25.8408 26.5529 26.6968 26.8006C26.7641 26.8201 26.8291 26.841 26.8958 26.8609V23.1979C26.8958 22.7593 27.2455 22.4037 27.6767 22.4037H37.8883C38.3196 22.4037 38.6692 22.7593 38.6692 23.1979V24.4933C39.5842 24.3963 40.4994 24.3669 41.4134 24.4061V4.12043H25.2061C25.3744 4.38852 25.4661 4.70225 25.4662 5.03102C25.4662 5.55514 25.2337 6.04125 24.8283 6.36461L24.1517 6.9043V26.5628ZM32.0016 23.9919H28.4576V27.3512C29.6105 27.7199 30.7373 28.0542 32.0016 28.1555V23.9919ZM37.1074 24.7245V23.9919H33.5634V25.7438C34.741 25.2905 35.9234 24.9503 37.1074 24.7245ZM10.5873 24.8676C13.947 24.8676 16.6802 22.0881 16.6802 18.6716C16.6802 15.2551 13.947 12.4756 10.5873 12.4756C7.22769 12.4756 4.49454 15.2551 4.49454 18.6716C4.49454 22.0881 7.22769 24.8676 10.5873 24.8676ZM3.57048 24.444C4.18146 24.397 4.79316 24.3805 5.40518 24.3944C3.88628 22.971 2.93264 20.9327 2.93264 18.6716C2.93264 14.3793 6.36641 10.8874 10.5872 10.8874C14.808 10.8874 18.2419 14.3793 18.2419 18.6716C18.2419 22.1446 15.9932 25.0929 12.899 26.0922C12.9073 26.0958 12.9157 26.0991 12.924 26.1027C13.3012 26.2664 13.4897 26.699 13.3555 27.0931L13.2355 27.4454C16.9499 26.2801 19.6129 22.7231 19.6129 18.6717C19.6129 13.6107 15.5641 9.49334 10.5873 9.49334C5.61071 9.49334 1.5618 13.6107 1.5618 18.6717C1.5618 20.7797 2.27273 22.814 3.57048 24.444ZM11.6374 27.2849C8.48911 26.0463 5.31043 25.6862 2.17007 26.2126V41.7319H6.71761L11.6374 27.2849ZM33.0637 44.0242L32.1921 43.0976C31.7522 42.9099 31.3418 42.6318 30.9832 42.2673L23.7206 34.8864C23.1086 35.4022 22.3605 36.1315 22.3605 37.1177C22.3605 40.3077 19.3063 42.2139 16.3535 42.2139C15.9222 42.2139 15.5726 41.8583 15.5726 41.4198V34.545C15.5726 33.4742 15.978 32.5205 16.7451 31.7871L18.0624 30.5275C17.5411 30.5836 17.0375 30.6128 16.5449 30.6128C15.1414 30.6128 13.8216 30.3827 12.3965 29.909L8.75118 40.6137C11.2674 41.5959 13.1218 43.5588 14.1621 44.6603C14.2561 44.7599 14.3434 44.8523 14.4235 44.9358L21.3539 52.1574C21.51 52.3202 21.7232 52.4106 21.954 52.412C22.1981 52.4167 22.4182 52.3207 22.5855 52.1504C22.9268 51.8034 22.9268 51.2385 22.5854 50.8912C22.5843 50.8901 22.5834 50.8889 22.5824 50.8878C22.5812 50.8866 22.5799 50.8856 22.5787 50.8844L18.7183 46.8618C18.417 46.548 18.4231 46.0451 18.7317 45.7388C19.0403 45.4324 19.5347 45.4386 19.836 45.7525L24.6271 50.7214C25.1145 51.217 25.9072 51.217 26.3945 50.7214C26.8817 50.226 26.8817 49.4197 26.3944 48.9242C26.3933 48.923 26.3922 48.9216 26.3911 48.9205C26.39 48.9194 26.3888 48.9185 26.3877 48.9173L22.5274 44.8947C22.2262 44.5809 22.2322 44.078 22.5408 43.7717C22.8494 43.4654 23.3438 43.4715 23.6451 43.7854L28.0575 48.3693C28.2919 48.6076 28.6057 48.7389 28.9411 48.7389C29.2764 48.7389 29.5904 48.6076 29.8248 48.3692C30.3121 47.8736 30.3121 47.0674 29.8249 46.5719C29.8239 46.5708 29.823 46.5696 29.8218 46.5684C29.8207 46.5672 29.8193 46.5662 29.8182 46.565L25.9577 42.5423C25.6565 42.2285 25.6625 41.7256 25.9712 41.4193C26.2798 41.1129 26.7741 41.1192 27.0754 41.433L31.3081 45.8341C31.7955 46.3296 32.5883 46.3296 33.0756 45.8341C33.5602 45.3415 33.555 44.5465 33.0637 44.0242ZM36.8089 40.4725L33.1634 29.7676C31.0263 29.8417 29.3129 29.2928 27.6525 28.7583C27.2026 28.6134 26.7374 28.4637 26.269 28.3282C24.4741 27.8085 22.7366 28.2383 21.3767 29.5385L17.8149 32.9442C17.357 33.3821 17.1343 33.9058 17.1343 34.545V40.5674C19.017 40.2882 20.7986 39.0217 20.7986 37.1177C20.7986 35.2419 22.2134 34.0806 22.9734 33.4567C23.0855 33.3647 23.1823 33.2853 23.2517 33.2223C23.5607 32.9426 24.0307 32.956 24.3233 33.2534L32.0872 41.1438C32.7228 41.7899 33.5991 41.9694 34.4311 41.6241C35.0703 41.3589 36.6291 40.5628 36.8089 40.4725ZM43.4382 26.2126C40.2978 25.6862 37.1191 26.0464 33.9709 27.2849L38.8907 41.7319H43.4382V26.2126Z" fill="black"/>
</svg>
