<svg width="52" height="54" viewBox="0 0 52 54" fill="none" xmlns="http://www.w3.org/2000/svg">
<path d="M2.68592 19.0865L5.51817 20.3383C5.81756 20.4705 6.13045 20.5332 6.43855 20.5332C7.31615 20.5332 8.15478 20.025 8.53179 19.172L8.81986 18.5203C9.71793 18.9204 10.2433 19.1487 10.4483 19.2283C10.7734 19.3545 10.885 19.8372 11.0301 20.6172C11.1111 21.0521 11.1958 21.4968 11.3644 21.9076L10.6002 23.3364C9.77922 24.8716 10.3603 26.7885 11.8953 27.6094C12.3613 27.8588 12.8712 27.9804 13.3789 27.9804H13.3813C13.3243 28.4189 13.3608 28.8692 13.4932 29.3062C13.7384 30.115 14.2816 30.7789 15.0231 31.1754C15.9721 31.6828 17.0678 31.6526 17.9612 31.1917C18.2462 31.7736 18.7085 32.2677 19.304 32.5862C20.1532 33.0404 21.133 33.0663 21.977 32.7262C22.2479 33.3929 22.7451 33.9626 23.4124 34.3196C23.8853 34.5724 24.3941 34.6923 24.8962 34.6923C25.8795 34.6923 26.8361 34.232 27.4417 33.4102L28.1906 33.8405C28.6505 34.1045 29.1615 34.2391 29.6816 34.2391C29.9593 34.2391 30.2397 34.2007 30.5162 34.1232C31.3165 33.8988 32.004 33.3545 32.4027 32.6297C32.6635 32.1555 32.7856 31.6406 32.7825 31.1321C33.2515 31.2218 33.7398 31.2002 34.2143 31.0638C35.0133 30.8338 35.6727 30.308 36.0715 29.5832C36.35 29.0769 36.4694 28.5233 36.4465 27.9808C37.6504 28.1123 38.8744 27.5243 39.4938 26.3982C39.9108 25.64 39.9712 24.776 39.7315 24.0016C39.7441 23.9981 39.7568 23.9946 39.7696 23.9909C40.5718 23.7613 41.2339 23.2345 41.6336 22.5076C41.9631 21.9088 42.0777 21.2213 41.9749 20.5569L44.2242 19.6184L44.4539 20.2111C44.6739 20.7787 45.1032 21.2273 45.6626 21.4741C45.9592 21.6049 46.2729 21.6706 46.5869 21.6706C46.8651 21.6706 47.1436 21.619 47.4103 21.5157L50.2973 20.3965C51.4721 19.941 52.0572 18.6148 51.6018 17.44L45.788 2.44301C45.568 1.87536 45.1387 1.42682 44.5792 1.18001C44.0198 0.933206 43.3992 0.9184 42.8315 1.13853L39.9445 2.25771C38.7697 2.71323 38.1845 4.03937 38.6399 5.21407L39.0633 6.30625L37.5029 7.1415C36.6445 7.58787 35.7826 7.27443 34.3335 6.68196C32.3605 5.87556 29.69 4.78654 26.2127 6.92071C23.6963 5.45511 21.5417 5.95972 19.7898 6.37016C18.463 6.6812 17.4153 6.9267 16.4222 6.36798C16.4019 6.35655 16.3812 6.34588 16.3601 6.33619L14.5698 5.5102L15.0338 4.46037C15.5431 3.30798 15.0199 1.95604 13.8676 1.44664L11.0357 0.194961C9.88352 -0.314332 8.53146 0.208787 8.02206 1.36117L1.51971 16.0728C1.01053 17.2252 1.53365 18.5772 2.68592 19.0865ZM12.7167 26.0733C12.0287 25.7053 11.7682 24.846 12.1362 24.1578L13.5459 21.5221C13.9138 20.8347 14.7733 20.5743 15.4621 20.9418C16.1108 21.288 16.3831 22.0782 16.0919 22.7512L14.2453 25.947C13.8062 26.2819 13.2069 26.3353 12.7167 26.0733ZM15.8447 29.6393C15.5135 29.4622 15.2705 29.1644 15.1603 28.8009C15.0501 28.4374 15.0869 28.0548 15.2642 27.7238L17.5527 23.7045C17.9924 23.3638 18.5958 23.308 19.0904 23.572C19.6313 23.8606 19.9238 24.4886 19.8097 25.0898L17.7649 29.0496C17.3937 29.7425 16.5324 30.007 15.8447 29.6393ZM20.1255 31.0503C19.6376 30.7892 19.35 30.2636 19.3824 29.7143L21.3516 25.9006C21.7878 25.4799 22.4676 25.3788 23.0059 25.6662C23.5463 25.9546 23.8389 26.5819 23.7254 27.1828L21.9146 30.6631C21.4956 31.2086 20.7358 31.3764 20.1255 31.0503ZM24.234 32.7836C23.7284 32.5131 23.441 31.9688 23.4934 31.4027L25.2659 27.9959C25.7021 27.5742 26.3825 27.4724 26.9208 27.7601C27.1071 27.8597 27.2643 27.9956 27.3881 28.1638C27.7122 28.6046 27.7565 29.1981 27.5011 29.6756L26.1495 32.2031C25.7814 32.8913 24.922 33.1515 24.234 32.7836ZM30.8765 31.7903C30.7018 32.108 30.399 32.3471 30.0461 32.446C29.7058 32.5413 29.3548 32.5002 29.0583 32.33L28.2923 31.8901L29.0372 30.497C29.2233 30.1489 29.3371 29.7736 29.3826 29.3919C29.3826 29.3919 30.2966 29.9248 30.3417 29.95C30.9937 30.3155 31.2336 31.1411 30.8765 31.7903ZM40.5743 3.88172L43.4614 2.76254C43.5237 2.73837 43.589 2.72629 43.6545 2.72629C43.7295 2.72629 43.8048 2.74208 43.8761 2.77365C44.0099 2.83266 44.112 2.9388 44.164 3.0726L49.9779 18.0695C50.0844 18.344 49.9423 18.6658 49.6678 18.7723L46.7808 19.8914C46.647 19.9434 46.4997 19.9395 46.3659 19.8803C46.2321 19.8213 46.1299 19.7152 46.078 19.5814L40.2642 4.58448C40.1578 4.31002 40.2998 3.9882 40.5743 3.88172ZM33.6745 8.29443C35.1575 8.90062 36.691 9.52738 38.316 8.68212L39.6978 7.94256L43.5945 17.9937L41.2377 18.9771C41.0083 18.715 40.7352 18.4917 40.4269 18.3159L32.7486 13.9394C30.7362 12.7925 28.5649 13.6714 26.4654 14.5213C23.9262 15.5493 21.7097 16.4468 19.6475 14.2839C21.6717 13.0468 23.4058 11.704 24.8092 10.2857C25.4462 9.64202 26.0872 9.09822 26.716 8.66862C29.6559 6.65159 31.6988 7.48684 33.6745 8.29443ZM15.6004 7.90402C17.1732 8.77259 18.7053 8.41353 20.1875 8.06613C21.6392 7.7258 23.0252 7.40181 24.6327 8.07397C24.2775 8.37554 23.9228 8.70487 23.5711 9.06033C22.1331 10.5134 20.3084 11.8895 18.1475 13.1508C17.8641 13.3163 17.6662 13.5955 17.6042 13.9171C17.5424 14.2386 17.6223 14.5713 17.8234 14.8294C20.8205 18.6858 24.3128 17.2719 27.1191 16.1359C28.9906 15.3781 30.6074 14.7238 31.8861 15.4527L39.5644 19.8292C39.8123 19.9705 40.009 20.18 40.1327 20.435C40.3273 20.836 40.3183 21.2854 40.1077 21.6679C39.9333 21.985 39.6431 22.2151 39.2905 22.316C38.946 22.4145 38.5875 22.3744 38.2813 22.203C38.2811 22.2029 38.2808 22.2028 38.2805 22.2025C36.6549 21.292 34.8126 20.2601 33.0037 19.2245C32.586 18.9854 32.0541 19.1302 31.8152 19.5476C31.5762 19.965 31.7209 20.4972 32.1383 20.7362C33.9537 21.7754 35.7993 22.8092 37.428 23.7214C37.4282 23.7215 37.4284 23.7216 37.4285 23.7217C38.0809 24.0889 38.3228 24.9127 37.9678 25.5582C37.6094 26.2098 36.7876 26.4486 36.1359 26.0903L29.1879 22.1807C28.7686 21.9447 28.2375 22.0934 28.0017 22.5126C27.7658 22.9319 27.9144 23.4629 28.3337 23.6988C28.3337 23.6988 33.9606 26.8813 34.006 26.9069C34.6583 27.2742 34.9004 28.098 34.5453 28.7434C34.3717 29.0592 34.0831 29.2886 33.7326 29.3895C33.3865 29.4891 33.0257 29.4491 32.7165 29.2772L32.712 29.2747L28.6854 26.9955C28.4248 26.6787 28.1082 26.4194 27.7419 26.2236C26.9868 25.8203 26.1304 25.7498 25.3547 25.9805C25.1159 25.2061 24.5814 24.5325 23.826 24.1294C23.071 23.7265 22.2151 23.6563 21.4394 23.8868C21.2006 23.1124 20.6661 22.4386 19.9106 22.0354C19.2852 21.7015 18.582 21.5966 17.9125 21.7065C17.7642 20.7565 17.1864 19.8877 16.2822 19.4051C15.0689 18.7575 13.6181 18.9852 12.6577 19.8656C12.4761 19.0061 12.1464 18.0189 11.0786 17.6044C10.9024 17.5361 10.3796 17.3082 9.52392 16.927L13.8656 7.10372L15.6004 7.90402ZM3.11302 16.777L9.61537 2.06545C9.73448 1.79622 10.0628 1.66938 10.3316 1.78827L13.1637 3.03994C13.433 3.15894 13.5599 3.48696 13.4408 3.75631L6.93848 18.4679C6.81938 18.7371 6.49136 18.8638 6.22234 18.7451L3.3902 17.4933C3.12086 17.3743 2.99403 17.0462 3.11302 16.777ZM9.95788 4.24459C9.98248 3.71385 10.4328 3.30352 10.9635 3.32812C11.4942 3.35273 11.9046 3.8029 11.88 4.33375C11.8554 4.86449 11.4052 5.27482 10.8743 5.25022C10.3436 5.22561 9.93327 4.77533 9.95788 4.24459ZM41.7966 5.23356C41.7966 4.70228 42.2274 4.27148 42.7587 4.27148C43.29 4.27148 43.7208 4.70228 43.7208 5.23356C43.7208 5.76495 43.29 6.19564 42.7587 6.19564C42.2274 6.19564 41.7966 5.76495 41.7966 5.23356ZM50.4186 30.935L45.4702 31.5186C44.9925 31.575 44.651 32.0079 44.7072 32.4856C44.7635 32.9633 45.1963 33.3047 45.6743 33.2486L48.193 32.9515L35.536 44.2679C34.9265 43.8451 34.1874 43.5963 33.3909 43.5963C32.1874 43.5963 31.1146 44.1634 30.4233 45.0436L23.4283 41.8219C23.4768 41.5811 23.5025 41.3321 23.5025 41.0773C23.5025 38.9969 21.81 37.3043 19.7296 37.3043C17.6492 37.3043 15.9567 38.9968 15.9567 41.0773C15.9567 41.4491 16.0116 41.808 16.1123 42.1476L6.52184 47.6469C5.83313 46.9136 4.85592 46.4541 3.77288 46.4541C1.69249 46.4541 0 48.1466 0 50.2271C0 52.3075 1.69249 54 3.77288 54C5.85327 54 7.54576 52.3075 7.54576 50.2271C7.54576 49.8554 7.49089 49.4964 7.39029 49.1569L16.9807 43.6576C17.6694 44.3909 18.6467 44.8503 19.7297 44.8503C20.9332 44.8503 22.0061 44.2832 22.6973 43.403L29.6923 46.6246C29.6439 46.8654 29.6181 47.1144 29.6181 47.3693C29.6181 49.4497 31.3106 51.1423 33.391 51.1423C35.4714 51.1423 37.164 49.4498 37.164 47.3693C37.164 46.715 36.9963 46.0991 36.702 45.5622L49.4543 34.1603L49.2474 36.6954C49.2083 37.1747 49.5653 37.5952 50.0447 37.6343C50.0689 37.6362 50.0926 37.6372 50.1164 37.6372C50.5653 37.6372 50.9463 37.2923 50.9836 36.837L51.3888 31.8707C51.41 31.6104 51.3133 31.3543 51.1253 31.1731C50.9375 30.9919 50.6791 30.9043 50.4186 30.935ZM3.77277 52.2581C2.65294 52.2581 1.74181 51.347 1.74181 50.2271C1.74181 49.1073 2.65294 48.196 3.77277 48.196C4.8926 48.196 5.80373 49.1072 5.80373 50.2271C5.80373 51.3471 4.8926 52.2581 3.77277 52.2581ZM19.7296 43.1083C18.6098 43.1083 17.6986 42.1972 17.6986 41.0773C17.6986 39.9573 18.6098 39.0462 19.7296 39.0462C20.8494 39.0462 21.7605 39.9573 21.7605 41.0773C21.7605 42.1972 20.8494 43.1083 19.7296 43.1083ZM33.3909 49.4003C32.271 49.4003 31.3599 48.4891 31.3599 47.3692C31.3599 46.2492 32.271 45.3382 33.3909 45.3382C34.5108 45.3382 35.422 46.2493 35.422 47.3692C35.422 48.489 34.5108 49.4003 33.3909 49.4003Z" fill="black"/>
</svg>
