<svg width="54" height="54" viewBox="0 0 54 54" fill="none" xmlns="http://www.w3.org/2000/svg">
<g clip-path="url(#clip0_195_7854)">
<path d="M44.1937 1.09949H36.2581V4.35636H44.1937V1.09949Z" stroke="black" stroke-width="2.46094" stroke-miterlimit="10" stroke-linecap="round" stroke-linejoin="round"/>
</g>
<path d="M22.1145 37.0522V25.5255H31.8852V38.7977" stroke="black" stroke-width="1.4" stroke-miterlimit="10" stroke-linecap="round" stroke-linejoin="round"/>
<path d="M10.7159 38.7661V17.269" stroke="black" stroke-width="1.4" stroke-miterlimit="10" stroke-linecap="round" stroke-linejoin="round"/>
<path d="M43.2839 23.8126V17.2711" stroke="black" stroke-width="1.4" stroke-miterlimit="10" stroke-linecap="round" stroke-linejoin="round"/>
<path d="M43.2839 37.985V27.2391" stroke="black" stroke-width="1.4" stroke-miterlimit="10" stroke-linecap="round" stroke-linejoin="round"/>
<path d="M24.449 45.0143H34.57C35.8859 45.0143 37.1809 44.0474 37.5558 42.7764" stroke="black" stroke-width="1.4" stroke-miterlimit="10" stroke-linecap="round" stroke-linejoin="round"/>
<path d="M7.47 50.986H11.6143L17.5047 52.7569C18.5008 53.0568 19.5367 53.2088 20.5768 53.2088H33.426C34.7104 53.2088 35.9517 52.7422 36.9174 51.8962L50.3967 40.0913C51.5943 39.0433 51.7887 37.0736 50.7501 35.8082C49.6607 34.4788 47.6958 34.2942 46.3778 35.3972L37.5559 42.7764C37.6456 42.4781 37.6898 42.1607 37.6832 41.8318C37.6495 40.136 36.2227 38.7974 34.5265 38.7974H26.5772C25.2604 38.7974 23.9675 38.3895 22.9191 37.5927C21.5267 36.5348 19.7903 35.9057 17.9062 35.9057C15.8048 35.9057 13.8862 36.6881 12.4246 37.9769C11.828 38.503 11.0625 38.7975 10.267 38.7975H7.47" stroke="black" stroke-width="1.4" stroke-miterlimit="10" stroke-linecap="round" stroke-linejoin="round"/>
<path d="M2.57544 46.7282V53.209H7.46982V36.9249H2.57544V43.3008" stroke="black" stroke-width="1.4" stroke-miterlimit="10" stroke-linecap="round" stroke-linejoin="round"/>
<path d="M37.5812 8.6347V4.35583H42.8708V12.7784" stroke="black" stroke-width="1.4" stroke-miterlimit="10" stroke-linecap="round" stroke-linejoin="round"/>
<path d="M40.2259 25.5258H35.142V32.0394H40.2259V25.5258Z" stroke="black" stroke-width="1.4" stroke-miterlimit="10" stroke-linecap="round" stroke-linejoin="round"/>
<path d="M19.0565 25.5258H13.9726V32.0394H19.0565V25.5258Z" stroke="black" stroke-width="1.4" stroke-miterlimit="10" stroke-linecap="round" stroke-linejoin="round"/>
<path d="M31.8852 12.4984H22.1147V20.4442H31.8852V12.4984Z" stroke="black" stroke-width="1.4" stroke-miterlimit="10" stroke-linecap="round" stroke-linejoin="round"/>
<path d="M26.9998 12.4984V20.4442" stroke="black" stroke-width="1.4" stroke-miterlimit="10" stroke-linecap="round" stroke-linejoin="round"/>
<path d="M31.8852 16.4712H22.1147" stroke="black" stroke-width="1.4" stroke-miterlimit="10" stroke-linecap="round" stroke-linejoin="round"/>
<path d="M17.315 7.93225L25.9881 1.14017C26.5827 0.674631 27.4172 0.674631 28.0118 1.14017L49.1807 17.7199C49.8947 18.2787 50.0195 19.3104 49.4617 20.0234C49.1377 20.4376 48.1688 20.9806 47.1571 20.3044L26.9999 4.51633L6.83966 20.3045C6.12669 20.8634 5.09499 20.7375 4.53611 20.0235C3.97723 19.3105 4.10306 18.2788 4.81603 17.72L14.6162 10.045" stroke="black" stroke-width="1.4" stroke-miterlimit="10" stroke-linecap="round" stroke-linejoin="round"/>
<defs>
<clipPath id="clip0_195_7854">
<rect width="54" height="54" fill="white"/>
</clipPath>
</defs>
</svg>
