<svg width="54" height="54" viewBox="0 0 54 54" fill="none" xmlns="http://www.w3.org/2000/svg">
<path d="M53.2075 52.4182H40.0586V49.252C40.0586 48.4321 39.3915 47.7651 38.5715 47.7651H37.0654V44.345C37.0654 43.6652 36.5122 43.1121 35.8324 43.1121H34.8394L31.1665 14.7336H32.5514C33.5484 14.7336 34.3595 13.9225 34.3595 12.9256V9.85757L42.8096 10.7649V34.2202C42.8096 34.5029 42.9605 34.7642 43.2054 34.9054C43.4466 35.0445 43.7484 35.0486 43.9968 34.9048C46.3362 33.5509 48.2167 31.416 49.5862 28.559C49.7751 28.1651 49.6088 27.6926 49.2148 27.5038C48.8212 27.3148 48.3485 27.481 48.1596 27.8752C47.1759 29.9271 45.9119 31.5564 44.3914 32.7362C44.3914 31.7563 44.3914 8.54558 44.3914 7.33103L49.4874 2.98341C51.0459 12.0117 50.9724 19.4167 49.2683 24.9994C49.1407 25.4173 49.376 25.8594 49.7938 25.9869C50.2115 26.1143 50.6537 25.8792 50.7812 25.4614C52.5874 19.5447 52.6496 11.7374 50.9662 2.25622C50.8836 1.79154 50.5561 1.40374 50.1117 1.24438C49.6673 1.08502 49.1683 1.17614 48.8092 1.48242L43.3773 6.11659L20.3407 1.62448C19.9113 1.54085 19.4965 1.82075 19.4129 2.24947C19.3293 2.67819 19.6091 3.09362 20.0379 3.17725L42.8094 7.61779V9.17394C41.5395 9.03747 6.75214 5.30197 5.57872 5.17604L5.76666 4.83402C7.08509 2.43562 9.77584 1.17625 12.4623 1.69999L16.8753 2.5606C17.3051 2.64455 17.7194 2.36432 17.8031 1.93561C17.8867 1.50689 17.6069 1.09146 17.1781 1.00782L12.7651 0.14722C9.40112 -0.508884 6.03138 1.06846 4.38042 4.07192L3.62033 5.45469C3.49282 5.6865 3.48976 5.96672 3.6121 6.20138C3.73444 6.43605 3.96594 6.59393 4.22908 6.62219L6.76152 6.89408V8.37303C6.76152 9.34058 7.54872 10.1278 8.51637 10.1278H9.35335V33.5658L6.09055 36.8285C5.78164 37.1375 5.78164 37.6382 6.09055 37.9471C6.39946 38.2558 6.90021 38.2561 7.20923 37.9471L11.3795 33.7769C12.4911 32.6653 14.2906 32.6652 15.4026 33.7769C16.5117 34.8862 16.5117 36.6909 15.4026 37.8L8.80197 44.4005C7.693 45.5097 5.88806 45.5099 4.77887 44.4005C3.66958 43.2913 3.66958 41.4866 4.77887 40.3774L4.97293 40.1833C5.28184 39.8743 5.28184 39.3736 4.97293 39.0647C4.66391 38.7559 4.16316 38.7559 3.85425 39.0647L3.66019 39.2587C1.93424 40.9848 1.93424 43.7931 3.66019 45.5192C3.81365 45.6726 3.97606 45.8118 4.14513 45.938L2.03728 52.418H0.790994C0.354049 52.418 0 52.7721 0 53.209C0 53.646 0.354049 54 0.790994 54H53.2075C53.6445 54 53.9985 53.646 53.9985 53.209C53.9985 52.7721 53.6444 52.4182 53.2075 52.4182ZM35.4834 47.7651H19.8887V44.6941H35.4834V47.7651ZM32.6424 38.4626L24.5357 35.3175L31.8291 32.178L32.6424 38.4626ZM31.5203 29.7918L25.2435 26.762L30.736 23.7321L31.5203 29.7918ZM29.6082 15.0182L30.385 21.0207L25.989 18.17L29.6082 15.0182ZM27.4717 14.781L25.5815 16.427L25.7945 14.781H27.4717ZM25.1798 19.5307L29.7291 22.4809L24.4187 25.4101L25.1798 19.5307ZM24.0886 27.9612L30.4691 31.041L23.29 34.1313L24.0886 27.9612ZM22.9943 36.4164L31.5848 39.7491L25.4101 43.1026C25.4046 43.1056 25.3998 43.1092 25.3944 43.1122H22.1277L22.9943 36.4164ZM28.7073 43.1121L32.9463 40.81L33.2442 43.1121H28.7073ZM32.7774 12.9257C32.7774 13.0503 32.676 13.1517 32.5513 13.1517H22.8205C22.6958 13.1517 22.5945 13.0503 22.5945 12.9257V8.59419L32.7773 9.68766V12.9257H32.7774ZM8.34341 8.37303V7.06399L11.9449 7.45073V8.37314C11.9449 8.46837 11.8674 8.54589 11.7721 8.54589H8.51627C8.42103 8.54579 8.34341 8.46827 8.34341 8.37303ZM16.5211 38.9188C18.247 37.1929 18.247 34.3845 16.5211 32.6585C14.982 31.1194 12.629 30.9699 10.9351 32.1039V10.1278H11.7722C12.7398 10.1278 13.527 9.34058 13.527 8.37303V7.62053L21.0127 8.42439V12.9257C21.0127 13.9226 21.8237 14.7337 22.8207 14.7337H24.2057L20.5327 43.1122H19.5398C18.8599 43.1122 18.3069 43.6653 18.3069 44.3451V47.7652H16.8006C15.9807 47.7652 15.3136 48.4321 15.3136 49.2521V52.4183H12.5148L10.1847 45.2553L16.5211 38.9188ZM3.70069 52.4182L5.57862 46.6451C5.97422 46.757 6.38216 46.8139 6.79042 46.8138C7.50326 46.8137 8.216 46.6428 8.86167 46.3015L10.8513 52.4182H3.70069ZM16.8954 52.4182V49.3472H38.4766V52.4182H16.8954Z" fill="black"/>
</svg>
