<svg width="74" height="54" viewBox="0 0 74 54" fill="none" xmlns="http://www.w3.org/2000/svg">
<path d="M36.5978 8.22724C37.237 8.22724 37.7599 7.70433 37.7599 7.0652V1.16204C37.7599 0.522918 37.237 0 36.5978 0C35.9587 0 35.4358 0.522918 35.4358 1.16204V7.0652C35.4358 7.71595 35.9587 8.22724 36.5978 8.22724Z" fill="black"/>
<path d="M25.907 9.15687C26.0813 9.6333 26.5229 9.92381 26.9993 9.92381C27.1271 9.92381 27.2666 9.90057 27.3944 9.85409C27.9987 9.6333 28.3124 8.97094 28.0916 8.36668L26.0697 2.81213C25.8489 2.20787 25.1865 1.89412 24.5823 2.1149C23.978 2.33569 23.6643 2.99805 23.885 3.60231L25.907 9.15687Z" fill="black"/>
<path d="M45.8011 9.85409C45.929 9.90057 46.0684 9.92381 46.1962 9.92381C46.6727 9.92381 47.1142 9.6333 47.2886 9.15687L49.3105 3.60231C49.5313 2.99805 49.2175 2.33569 48.6133 2.1149C48.009 1.89412 47.3467 2.20787 47.1259 2.81213L45.1039 8.36668C44.8831 8.97094 45.1969 9.6333 45.8011 9.85409Z" fill="black"/>
<path d="M73.0743 52.3267L67.1711 40.5087C66.9736 40.1136 66.5668 39.8696 66.1369 39.8696H60.9542L55.3648 28.7024C55.1672 28.3073 54.7605 28.0633 54.3306 28.0633H49.1362L43.5468 16.8961C43.3493 16.501 42.9426 16.257 42.5126 16.257H30.6947C30.2531 16.257 29.8464 16.501 29.6604 16.8961L24.071 28.0633H18.8767C18.4351 28.0633 18.0284 28.3073 17.8425 28.7024L12.2531 39.8696H7.05877C6.61719 39.8696 6.21048 40.1136 6.02455 40.5087L0.121388 52.3267C-0.0529184 52.6869 -0.041298 53.1169 0.167869 53.4539C0.377036 53.7909 0.748889 54 1.1556 54H72.0401C72.4468 54 72.8186 53.7909 73.0278 53.4539C73.237 53.1169 73.2602 52.6869 73.0743 52.3267ZM58.3512 39.8696H38.4803L43.2215 30.3757H53.5985L58.3512 39.8696ZM48.4158 50.2583L44.3835 42.2053H52.4364L48.4158 50.2583ZM36.5978 38.4403L32.5655 30.3874H40.6185L36.5978 38.4403ZM31.4151 18.5694H41.7921L46.5333 28.0633H26.6624L31.4151 18.5694ZM19.5972 30.3874H29.9742L34.7153 39.8812H14.8444L19.5972 30.3874ZM24.7799 50.2583L20.7476 42.2053H28.8005L24.7799 50.2583ZM3.03811 51.6876L7.77923 42.1937H18.1562L22.8974 51.6876H3.03811ZM26.6624 51.6876L31.4035 42.1937H41.7805L46.5217 51.6876H26.6624ZM50.2983 51.6876L55.0394 42.1937H65.4164L70.1575 51.6876H50.2983Z" fill="black"/>
<path d="M17.6682 14.3744C17.9006 14.6533 18.226 14.7927 18.563 14.7927C18.8302 14.7927 19.0975 14.6998 19.3067 14.5255C19.7947 14.1187 19.8644 13.375 19.4461 12.887L15.6462 8.36664C15.2395 7.87859 14.4958 7.80887 14.0078 8.2272C13.5197 8.63392 13.45 9.37762 13.8683 9.86568L17.6682 14.3744Z" fill="black"/>
<path d="M6.60561 19.1504L11.7186 22.102C11.9045 22.2066 12.1021 22.253 12.2996 22.253C12.7063 22.253 13.0898 22.0439 13.3106 21.672C13.6359 21.1142 13.4384 20.4054 12.8806 20.08L7.76765 17.1284C7.20987 16.8031 6.50102 17.0006 6.17565 17.5584C5.8619 18.1162 6.04783 18.825 6.60561 19.1504Z" fill="black"/>
<path d="M2.94511 30.3757L8.76693 31.3983C8.83666 31.4099 8.90638 31.4215 8.96448 31.4215C9.52226 31.4215 10.0103 31.0265 10.1033 30.4571C10.2195 29.8296 9.78953 29.2253 9.16203 29.1091L3.34021 28.0865C2.70108 27.9703 2.10844 28.4002 1.99224 29.0277C1.88766 29.6552 2.31761 30.2595 2.94511 30.3757Z" fill="black"/>
<path d="M63.0924 30.4571C63.197 31.0149 63.685 31.4216 64.2312 31.4216C64.3009 31.4216 64.3706 31.4216 64.4287 31.3983L70.2506 30.3757C70.8781 30.2595 71.308 29.6669 71.1918 29.0278C71.0756 28.3886 70.483 27.9703 69.8438 28.0865L64.022 29.1091C63.3945 29.2253 62.9762 29.8296 63.0924 30.4571Z" fill="black"/>
<path d="M60.8961 22.2647C61.0936 22.2647 61.2912 22.2182 61.4771 22.1137L66.5901 19.1621C67.1479 18.8367 67.3338 18.1279 67.0201 17.5701C66.6947 17.0123 65.9858 16.8264 65.4281 17.1401L60.3151 20.0917C59.7573 20.4171 59.5714 21.1259 59.8851 21.6837C60.1059 22.0556 60.501 22.2647 60.8961 22.2647Z" fill="black"/>
<path d="M54.6327 14.7927C54.9697 14.7927 55.295 14.6533 55.5274 14.3744L59.3273 9.85405C59.734 9.366 59.6759 8.63391 59.1879 8.21558C58.6998 7.80886 57.9677 7.86697 57.5494 8.35502L53.7495 12.8754C53.3428 13.3634 53.4009 14.0955 53.889 14.5138C54.1097 14.7114 54.377 14.7927 54.6327 14.7927Z" fill="black"/>
</svg>
