<svg width="54" height="54" viewBox="0 0 54 54" fill="none" xmlns="http://www.w3.org/2000/svg">
<path d="M21.4918 7.53735C21.9601 7.53735 22.3351 7.9124 22.3351 8.38069C22.3351 8.84349 21.9601 9.22402 21.4918 9.22402H9.72136C9.25266 9.22402 8.8776 8.84349 8.8776 8.38069C8.8776 7.9124 9.25266 7.53735 9.72136 7.53735H21.4918ZM5.70339 7.53735C6.1721 7.53735 6.55306 7.9124 6.55306 8.38069C6.55306 8.84349 6.17252 9.22402 5.70339 9.22402H5.07142C4.6082 9.22402 4.22766 8.84349 4.22766 8.38069C4.22766 7.9124 4.6082 7.53735 5.07142 7.53735H5.70339Z" fill="black"/>
<path d="M27.1196 0.310935L34.7965 8.6443C35.107 8.98391 35.0897 9.51675 34.7438 9.83273C34.5856 9.97912 34.3814 10.0555 34.1759 10.0555H28.8881C27.9866 10.0555 27.1723 9.68634 26.5809 9.09529C26.5636 9.07757 26.5454 9.06027 26.5281 9.04255C25.9658 8.45656 25.6202 7.66048 25.6202 6.78761V0.84419C25.6202 0.381389 25.9953 0.000854492 26.464 0.000854492C26.7268 0.000854492 26.9614 0.123621 27.1196 0.310935ZM32.2555 8.36924L27.3069 3.00463V6.78803C27.3069 7.20949 27.471 7.59003 27.7347 7.871C27.7461 7.88281 27.7583 7.89462 27.7701 7.90644C28.057 8.19331 28.4548 8.36881 28.8881 8.36881L32.2555 8.36924Z" fill="black"/>
<path d="M15.5593 23.0679H50.3099C51.3291 23.0679 52.2484 23.4834 52.9162 24.1508V24.1572C53.5836 24.825 53.9996 25.7443 53.9996 26.7572V50.3111C53.9996 51.3236 53.5836 52.2492 52.9162 52.9166C52.2484 53.5849 51.3291 54 50.3099 54H15.5593C14.5464 54 13.6208 53.5849 12.9534 52.9166C12.2855 52.2492 11.87 51.3295 11.87 50.3111V26.7572C11.87 25.7443 12.2855 24.8187 12.9534 24.1508C13.6212 23.4834 14.5464 23.0679 15.5593 23.0679ZM50.3099 24.7545H15.5593C15.0088 24.7545 14.511 24.9828 14.1481 25.3456C13.7849 25.7088 13.5567 26.2066 13.5567 26.7572V50.3111C13.5567 50.8616 13.7849 51.3649 14.1481 51.7282C14.5105 52.0906 15.0088 52.3133 15.5593 52.3133H50.3099C50.8604 52.3133 51.3637 52.091 51.727 51.7282C52.0898 51.3649 52.313 50.8612 52.313 50.3111V26.7572C52.313 26.2066 52.0902 25.7033 51.727 25.3401V25.346C51.3637 24.9832 50.8604 24.7545 50.3099 24.7545Z" fill="black"/>
<path d="M25.8899 16.0348H39.9857C40.7881 16.0348 41.5256 16.3626 42.0529 16.8954C42.5799 17.4283 42.914 18.1606 42.914 18.9626V23.9108V24.7542H42.0702H38.51H37.6671V23.9108V21.1707H28.209V23.9113V24.7546H27.3652H23.805H22.9617V23.9113V18.9626C22.9617 18.1606 23.2895 17.4223 23.8164 16.8954C24.3492 16.3626 25.082 16.0348 25.8899 16.0348ZM39.9853 17.7215H25.8899C25.5499 17.7215 25.2398 17.8615 25.0112 18.0902C24.7888 18.3129 24.6488 18.623 24.6488 18.9626V23.0675H26.5223V20.327V19.4841H27.3657H38.51H39.3538V20.327V23.0679H41.2273V18.963C41.2273 18.623 41.0868 18.3129 40.8645 18.0906H40.8582C40.6354 17.8619 40.3253 17.7215 39.9853 17.7215Z" fill="black"/>
<path d="M9.31676 45.7726C9.77956 45.7726 10.1601 46.1468 10.1601 46.6155C10.1601 47.0779 9.77956 47.4584 9.31676 47.4584H2.53001C1.83897 47.4584 1.20657 47.1715 0.743772 46.715V46.7091C0.286877 46.2522 0 45.6203 0 44.9229V2.53044C0 1.8394 0.286877 1.20701 0.743772 0.744626C1.20024 0.287732 1.83264 0.000854492 2.53001 0.000854492H26.2527C26.6159 0.000854492 26.9555 0.0713082 27.2723 0.211794C27.5828 0.352279 27.8638 0.55689 28.1157 0.820564L34.4814 7.63137C34.4987 7.64909 34.5105 7.66639 34.5282 7.68411C34.7324 7.91234 34.8792 8.16463 34.9847 8.42788C35.0902 8.71518 35.1488 9.01935 35.1488 9.34167V13.4761C35.1488 13.9444 34.7683 14.3194 34.3055 14.3194C33.8372 14.3194 33.4562 13.9444 33.4562 13.4761V9.34167C33.4562 9.22438 33.4448 9.11934 33.4094 9.02526C33.3744 8.94932 33.3335 8.87887 33.2807 8.80841C33.2689 8.79702 33.2567 8.79111 33.2453 8.7793L26.8855 1.9685C26.7973 1.87484 26.6982 1.80439 26.5927 1.75165C26.4935 1.71073 26.3822 1.68752 26.2531 1.68752H2.53001C2.30177 1.68752 2.09083 1.78118 1.93853 1.93939L1.93263 1.93348C1.78033 2.08536 1.68667 2.3022 1.68667 2.53044V44.9229C1.68667 45.157 1.78033 45.368 1.93263 45.5203L1.93853 45.5262C2.09083 45.673 2.30135 45.7726 2.53001 45.7726H9.31676Z" fill="black"/>
<path d="M29.8779 38.4407L15.4074 35.6935C14.4295 35.512 13.5271 35.0847 12.8779 34.4346C12.2564 33.814 11.87 33.0002 11.87 32.0219H13.5567C13.5567 32.5197 13.7562 32.9297 14.0722 33.2461C14.4764 33.644 15.0678 33.9195 15.7179 34.0422L30.1884 36.7887L29.8779 38.4407ZM53.9992 32.0219C53.9992 32.9998 53.6128 33.8081 52.9918 34.4287V34.4346C52.3416 35.0847 51.4401 35.5125 50.4681 35.6935L35.9972 38.4635L35.6812 36.8123L50.1517 34.0422C50.8077 33.9136 51.3992 33.6444 51.8029 33.2461C52.1193 32.9297 52.3125 32.5192 52.3125 32.0219H53.9992Z" fill="black"/>
<path d="M15.9458 15.1914C16.4086 15.1914 16.7891 15.5715 16.7891 16.0347C16.7891 16.503 16.4086 16.8777 15.9458 16.8777H9.72094C9.25266 16.8777 8.8776 16.503 8.8776 16.0347C8.8776 15.5719 9.25266 15.1914 9.72094 15.1914H15.9458ZM5.70381 15.1914C6.1721 15.1914 6.55306 15.5715 6.55306 16.0347C6.55306 16.503 6.17252 16.8777 5.70381 16.8777H5.07142C4.60862 16.8777 4.22766 16.503 4.22766 16.0347C4.22766 15.5719 4.6082 15.1914 5.07142 15.1914H5.70381Z" fill="black"/>
<path d="M21.4918 11.3671C21.9601 11.3671 22.3351 11.7421 22.3351 12.2104C22.3351 12.6728 21.9601 13.0537 21.4918 13.0537H9.72136C9.25266 13.0537 8.8776 12.6732 8.8776 12.2104C8.8776 11.7421 9.25266 11.3671 9.72136 11.3671H21.4918ZM5.70339 11.3671C6.1721 11.3671 6.55306 11.7421 6.55306 12.2104C6.55306 12.6728 6.17252 13.0537 5.70339 13.0537H5.07142C4.6082 13.0537 4.22766 12.6732 4.22766 12.2104C4.22766 11.7421 4.6082 11.3671 5.07142 11.3671H5.70339Z" fill="black"/>
<path d="M38.3458 4.5449C38.2521 5.00137 37.8075 5.29415 37.3506 5.19501C36.8937 5.10093 36.6009 4.65627 36.6946 4.20486L37.0169 2.67049L37.4383 0.67374C37.5202 0.275908 37.8716 0 38.264 0H39.7397H41.2154C41.6428 0 41.9946 0.316409 42.0528 0.731959L42.6734 3.68342C43.1067 3.80661 43.5286 3.953 43.9382 4.1226C44.3542 4.29261 44.7579 4.49174 45.1444 4.70859L47.7271 3.02192C48.0608 2.80507 48.5 2.8578 48.7751 3.13329H48.7814L49.8238 4.17575C49.8352 4.19347 49.853 4.20528 49.8652 4.22258L50.8663 5.22412C51.1587 5.511 51.1886 5.96789 50.9604 6.29569L49.291 8.85439C49.5133 9.24125 49.707 9.64499 49.8825 10.061C50.0466 10.4706 50.193 10.8925 50.3158 11.3257L53.3259 11.9641C53.7418 12.0459 54.0228 12.4209 53.9996 12.8306V14.2603V15.7361C53.9996 16.1634 53.6836 16.5208 53.2676 16.5735L50.3162 17.1941C50.1934 17.6333 50.0466 18.0551 49.8829 18.4589C49.637 19.0503 49.3442 19.6123 49.0105 20.1341C48.7649 20.532 48.2435 20.6493 47.8452 20.3974C47.4529 20.1455 47.336 19.6245 47.5875 19.2318C47.8748 18.7812 48.1207 18.3066 48.3258 17.8151C48.5249 17.3346 48.6827 16.8427 48.7999 16.3394C48.8527 16.0056 49.11 15.7302 49.456 15.6542L52.3129 15.0568V14.2603H52.3188V13.4697L49.4551 12.8664C49.145 12.8023 48.8814 12.5619 48.805 12.2281C48.6936 11.7071 48.5299 11.2034 48.3249 10.706C48.1199 10.2141 47.8739 9.73949 47.5866 9.28892C47.417 9.01934 47.4111 8.66792 47.5925 8.38104L49.1919 5.9333L48.6759 5.41228C48.6586 5.40089 48.6472 5.38865 48.6291 5.37093L48.0671 4.80899L45.6717 6.37247C45.3967 6.58299 45.0157 6.60662 44.7119 6.4134C44.261 6.12652 43.7868 5.88056 43.2949 5.67553C42.8143 5.4764 42.3169 5.3182 41.8132 5.20134C41.4854 5.1486 41.204 4.89674 41.134 4.54532L40.5299 1.68709H39.7397H38.9428L38.6677 3.01052L38.3458 4.5449ZM39.7397 9.03664C39.271 9.03664 38.8959 8.66159 38.8959 8.1933C38.8959 7.72502 39.271 7.34997 39.7397 7.34997C41.6483 7.34997 43.3759 8.12327 44.6293 9.37625C45.8768 10.6237 46.6496 12.3513 46.6496 14.2603C46.6496 14.7641 46.5969 15.2619 46.4914 15.7361C46.386 16.2216 46.2278 16.6908 46.0236 17.1413C45.8299 17.5632 45.3321 17.7505 44.9047 17.5573C44.4833 17.3637 44.3015 16.8659 44.4951 16.4444C44.647 16.1166 44.7643 15.7593 44.8461 15.3842C44.9225 15.0214 44.9634 14.6464 44.9634 14.2599C44.9634 12.8192 44.3778 11.5131 43.4349 10.5647C42.4861 9.62263 41.18 9.03664 39.7397 9.03664Z" fill="black"/>
<path d="M30.1533 32.0459H35.7221C36.1617 32.0459 36.5596 32.2273 36.8469 32.5138L36.8528 32.5197C37.1401 32.8074 37.3211 33.2111 37.3211 33.6503V39.8228C37.3211 41.029 36.8296 42.1242 36.0326 42.9202C35.2425 43.7172 34.1414 44.2091 32.9348 44.2091C31.7282 44.2091 30.633 43.7172 29.8369 42.9202C29.0459 42.1242 28.5481 41.0294 28.5481 39.8228V33.6503C28.5481 33.2111 28.7299 32.8065 29.0227 32.5197V32.5138C29.3155 32.2273 29.7142 32.0459 30.1533 32.0459ZM35.6348 33.7326H30.2411V39.8228C30.2411 40.5602 30.5398 41.2399 31.0317 41.7263C31.5236 42.2182 32.1973 42.5224 32.9348 42.5224C33.679 42.5224 34.3519 42.2182 34.8438 41.7263C35.3298 41.2403 35.6348 40.5602 35.6348 39.8228V33.7326Z" fill="black"/>
<path d="M32.9344 40.5543C33.4002 40.5543 33.7777 40.1768 33.7777 39.711C33.7777 39.2452 33.4002 38.8677 32.9344 38.8677C32.4686 38.8677 32.0911 39.2452 32.0911 39.711C32.0911 40.1768 32.4686 40.5543 32.9344 40.5543Z" fill="black"/>
</svg>
