<svg width="38" height="42" viewBox="0 0 38 42" fill="none" xmlns="http://www.w3.org/2000/svg">
<path d="M8.60417 25H6.375C3.61358 25 1.375 27.2386 1.375 30V37C1.375 39.7614 3.61358 42 6.375 42H31.375C34.1364 42 36.375 39.7614 36.375 37V30C36.375 27.2386 34.1364 25 31.375 25H28.7083C27.1435 25 25.875 26.2685 25.875 27.8333C25.875 29.3981 24.6065 30.6667 23.0417 30.6667H14.2708C12.706 30.6667 11.4375 29.3981 11.4375 27.8333C11.4375 26.2685 10.169 25 8.60417 25Z" fill="#D4D4D8"/>
<path d="M8.375 9H29.375" stroke="#161616" stroke-width="2" stroke-miterlimit="10" stroke-linecap="round" stroke-linejoin="round"/>
<path d="M8.375 17H29.375" stroke="#161616" stroke-width="2" stroke-miterlimit="10" stroke-linecap="round" stroke-linejoin="round"/>
<path d="M1.375 25H11.875V31H25.875V25H36.375" stroke="#161616" stroke-width="2" stroke-miterlimit="10" stroke-linecap="round" stroke-linejoin="round"/>
<path d="M32.875 1H4.875C2.942 1 1.375 2.79086 1.375 5V37C1.375 39.2091 2.942 41 4.875 41H32.875C34.808 41 36.375 39.2091 36.375 37V5C36.375 2.79086 34.808 1 32.875 1Z" stroke="#161616" stroke-width="2" stroke-miterlimit="10" stroke-linecap="round" stroke-linejoin="round"/>
</svg>
