<svg width="42" height="42" viewBox="0 0 42 42" fill="none" xmlns="http://www.w3.org/2000/svg">
<path d="M27.4915 18.4609C27.0445 17.9392 26.5004 17.5392 25.8995 17.2907C25.2987 17.0422 24.6566 16.9516 24.021 17.0256C23.3853 17.0996 22.7724 17.3362 22.2277 17.718C21.6831 18.0998 21.2206 18.6169 20.8748 19.2309C20.529 18.6167 20.0667 18.0995 19.522 17.7176C18.9773 17.3357 18.3644 17.099 17.7286 17.025C17.0929 16.951 16.4508 17.0417 15.8499 17.2903C15.2491 17.5389 14.705 17.939 14.258 18.4609C13.4516 19.4035 13 20.6695 13 21.9879C13 23.3063 13.4516 24.5722 14.258 25.5149L20.8748 33.1999L27.4933 25.5159C28.2992 24.5726 28.7501 23.3064 28.7498 21.988C28.7495 20.6696 28.2979 19.4037 27.4915 18.4609Z" fill="#D4D4D8" stroke="#161616" stroke-width="2" stroke-miterlimit="10" stroke-linecap="round" stroke-linejoin="round"/>
<path d="M36.625 41H5.125C4.19674 41 3.3065 40.5786 2.65013 39.8284C1.99375 39.0783 1.625 38.0609 1.625 37V1H15.625L20 9H40.125V37C40.125 38.0609 39.7562 39.0783 39.0999 39.8284C38.4435 40.5786 37.5533 41 36.625 41Z" stroke="#161616" stroke-width="2" stroke-miterlimit="10" stroke-linecap="round" stroke-linejoin="round"/>
</svg>
